M48
INCH
T1C0.0079
T2C0.0118
T3C0.0157
T4C0.0295
T5C0.0315
T6C0.0354
T7C0.0394
T8C0.0433
T9C0.0469
%
G90
G05
T1
X5.7953Y-3.8555
X5.7953Y-3.9106
X5.8228Y-3.828
X5.8228Y-3.8831
X5.8228Y-3.9382
X5.8504Y-3.8555
X5.8504Y-3.9106
X5.878Y-3.828
X5.878Y-3.8831
X5.878Y-3.9382
X5.9055Y-3.8555
X5.9055Y-3.9106
T2
X3.9587Y-2.1448
X4.412Y-3.3311
X4.5157Y-2.1906
X4.6437Y-3.4252
X4.9003Y-3.0804
X4.9541Y-3.7502
X5.1089Y-3.7793
X5.1482Y-4.0312
X5.2681Y-3.8681
X5.2894Y-3.2795
X5.3136Y-3.5262
X5.318Y-3.4913
X5.3613Y-3.1732
X5.4974Y-3.8664
X5.4987Y-2.1448
X5.5065Y-4.0424
X5.5072Y-3.7237
X5.615Y-3.6558
X5.6162Y-3.9695
X5.6283Y-3.6036
X5.7316Y-3.5435
X5.7344Y-3.4132
X5.778Y-3.5491
X5.9637Y-3.751
X5.975Y-3.8676
X6.1831Y-4.0959
X6.192Y-4.1311
X6.8036Y-3.2369
X6.9107Y-3.3905
X6.9281Y-2.8917
X7.063Y-2.8602
X7.1531Y-2.771
X7.252Y-3.6383
X7.2566Y-3.7532
X7.4085Y-3.1545
T3
X4.4577Y-3.064
X4.6831Y-2.3553
X4.7293Y-2.999
X4.8445Y-2.4892
X4.8465Y-3.5394
X5.1059Y-3.5679
X5.1516Y-2.374
X5.1614Y-3.3175
X5.1614Y-3.7402
X5.2794Y-3.9646
X5.3824Y-2.4894
X5.3824Y-2.9228
X5.5817Y-3.1299
X5.6699Y-3.5491
X6.9508Y-2.6614
X6.9744Y-3.0312
X7.0099Y-3.4085
X7.4321Y-2.9902
T4
X5.0591Y-2.8724
X5.0591Y-2.9724
X5.1091Y-2.9224
T5
X4.6358Y-2.126
X4.7358Y-2.126
X5.028Y-3.1299
X5.128Y-3.1299
T6
X4.3382Y-4.311
X4.6382Y-4.311
X6.8382Y-2.1063
X7.1382Y-2.1063
T7
X4.3472Y-4.0945
X4.4472Y-4.0945
X4.5472Y-4.0945
X4.6472Y-4.0945
X4.8984Y-4.0945
X4.9984Y-4.0945
X5.0984Y-4.0945
X5.1984Y-4.0945
X6.5339Y-4.0945
X6.6339Y-4.0945
X7.0047Y-4.2868
X7.1047Y-4.2868
X7.2047Y-4.2868
T8
X5.7843Y-3.0709
X6.1843Y-3.0709
X6.5354Y-2.1063
X6.5354Y-2.5063
T9
X7.7764Y-2.2047
X7.7764Y-2.3047
M30
