%TF.GenerationSoftware,KiCad,Pcbnew,9.0.1*%
%TF.CreationDate,2025-05-10T22:15:22+02:00*%
%TF.ProjectId,Workcross-ReverseCam,576f726b-6372-46f7-9373-2d5265766572,rev?*%
%TF.SameCoordinates,Original*%
%TF.FileFunction,Legend,Bot*%
%TF.FilePolarity,Positive*%
%FSLAX46Y46*%
G04 Gerber Fmt 4.6, Leading zero omitted, Abs format (unit mm)*
G04 Created by KiCad (PCBNEW 9.0.1) date 2025-05-10 22:15:22*
%MOMM*%
%LPD*%
G01*
G04 APERTURE LIST*
G04 Aperture macros list*
%AMRoundRect*
0 Rectangle with rounded corners*
0 $1 Rounding radius*
0 $2 $3 $4 $5 $6 $7 $8 $9 X,Y pos of 4 corners*
0 Add a 4 corners polygon primitive as box body*
4,1,4,$2,$3,$4,$5,$6,$7,$8,$9,$2,$3,0*
0 Add four circle primitives for the rounded corners*
1,1,$1+$1,$2,$3*
1,1,$1+$1,$4,$5*
1,1,$1+$1,$6,$7*
1,1,$1+$1,$8,$9*
0 Add four rect primitives between the rounded corners*
20,1,$1+$1,$2,$3,$4,$5,0*
20,1,$1+$1,$4,$5,$6,$7,0*
20,1,$1+$1,$6,$7,$8,$9,0*
20,1,$1+$1,$8,$9,$2,$3,0*%
%AMFreePoly0*
4,1,23,0.500000,-0.750000,0.000000,-0.750000,0.000000,-0.745722,-0.065263,-0.745722,-0.191342,-0.711940,-0.304381,-0.646677,-0.396677,-0.554381,-0.461940,-0.441342,-0.495722,-0.315263,-0.495722,-0.250000,-0.500000,-0.250000,-0.500000,0.250000,-0.495722,0.250000,-0.495722,0.315263,-0.461940,0.441342,-0.396677,0.554381,-0.304381,0.646677,-0.191342,0.711940,-0.065263,0.745722,0.000000,0.745722,
0.000000,0.750000,0.500000,0.750000,0.500000,-0.750000,0.500000,-0.750000,$1*%
%AMFreePoly1*
4,1,23,0.000000,0.745722,0.065263,0.745722,0.191342,0.711940,0.304381,0.646677,0.396677,0.554381,0.461940,0.441342,0.495722,0.315263,0.495722,0.250000,0.500000,0.250000,0.500000,-0.250000,0.495722,-0.250000,0.495722,-0.315263,0.461940,-0.441342,0.396677,-0.554381,0.304381,-0.646677,0.191342,-0.711940,0.065263,-0.745722,0.000000,-0.745722,0.000000,-0.750000,-0.500000,-0.750000,
-0.500000,0.750000,0.000000,0.750000,0.000000,0.745722,0.000000,0.745722,$1*%
G04 Aperture macros list end*
%ADD10C,0.100000*%
%ADD11C,0.254000*%
%ADD12C,0.150000*%
%ADD13C,0.200000*%
%ADD14C,0.120000*%
%ADD15R,1.850000X1.700000*%
%ADD16R,1.700000X1.850000*%
%ADD17C,1.400000*%
%ADD18RoundRect,0.150000X0.150000X-0.512500X0.150000X0.512500X-0.150000X0.512500X-0.150000X-0.512500X0*%
%ADD19R,1.600000X1.400000*%
%ADD20RoundRect,0.375000X-0.375000X0.625000X-0.375000X-0.625000X0.375000X-0.625000X0.375000X0.625000X0*%
%ADD21RoundRect,0.500000X-1.400000X0.500000X-1.400000X-0.500000X1.400000X-0.500000X1.400000X0.500000X0*%
%ADD22RoundRect,0.250000X-1.000000X1.750000X-1.000000X-1.750000X1.000000X-1.750000X1.000000X1.750000X0*%
%ADD23RoundRect,0.250000X0.650000X-0.412500X0.650000X0.412500X-0.650000X0.412500X-0.650000X-0.412500X0*%
%ADD24RoundRect,0.250000X0.550000X-1.500000X0.550000X1.500000X-0.550000X1.500000X-0.550000X-1.500000X0*%
%ADD25RoundRect,0.375000X0.625000X0.375000X-0.625000X0.375000X-0.625000X-0.375000X0.625000X-0.375000X0*%
%ADD26RoundRect,0.500000X0.500000X1.400000X-0.500000X1.400000X-0.500000X-1.400000X0.500000X-1.400000X0*%
%ADD27RoundRect,0.090000X0.660000X0.360000X-0.660000X0.360000X-0.660000X-0.360000X0.660000X-0.360000X0*%
%ADD28RoundRect,0.250000X0.400000X0.625000X-0.400000X0.625000X-0.400000X-0.625000X0.400000X-0.625000X0*%
%ADD29RoundRect,0.250000X-0.400000X-0.625000X0.400000X-0.625000X0.400000X0.625000X-0.400000X0.625000X0*%
%ADD30RoundRect,0.250000X1.500000X0.900000X-1.500000X0.900000X-1.500000X-0.900000X1.500000X-0.900000X0*%
%ADD31R,1.700000X1.700000*%
%ADD32C,1.700000*%
%ADD33RoundRect,0.250000X-0.845000X0.620000X-0.845000X-0.620000X0.845000X-0.620000X0.845000X0.620000X0*%
%ADD34O,2.190000X1.740000*%
%ADD35RoundRect,0.250000X0.600000X-1.400000X0.600000X1.400000X-0.600000X1.400000X-0.600000X-1.400000X0*%
%ADD36R,1.800000X1.100000*%
%ADD37RoundRect,0.275000X0.625000X-0.275000X0.625000X0.275000X-0.625000X0.275000X-0.625000X-0.275000X0*%
%ADD38R,1.500000X0.900000*%
%ADD39R,0.900000X1.500000*%
%ADD40C,0.600000*%
%ADD41R,3.900000X3.900000*%
%ADD42RoundRect,0.250000X-0.625000X0.400000X-0.625000X-0.400000X0.625000X-0.400000X0.625000X0.400000X0*%
%ADD43RoundRect,0.250000X-0.550000X1.500000X-0.550000X-1.500000X0.550000X-1.500000X0.550000X1.500000X0*%
%ADD44RoundRect,0.250000X0.625000X-0.400000X0.625000X0.400000X-0.625000X0.400000X-0.625000X-0.400000X0*%
%ADD45FreePoly0,0.000000*%
%ADD46FreePoly1,0.000000*%
%ADD47RoundRect,0.250000X0.412500X0.650000X-0.412500X0.650000X-0.412500X-0.650000X0.412500X-0.650000X0*%
%ADD48RoundRect,0.250000X-0.650000X0.412500X-0.650000X-0.412500X0.650000X-0.412500X0.650000X0.412500X0*%
%ADD49RoundRect,0.150000X0.825000X0.150000X-0.825000X0.150000X-0.825000X-0.150000X0.825000X-0.150000X0*%
%ADD50RoundRect,0.150000X-0.587500X-0.150000X0.587500X-0.150000X0.587500X0.150000X-0.587500X0.150000X0*%
%ADD51RoundRect,0.250000X0.900000X-1.500000X0.900000X1.500000X-0.900000X1.500000X-0.900000X-1.500000X0*%
%ADD52RoundRect,0.250001X-0.624999X0.462499X-0.624999X-0.462499X0.624999X-0.462499X0.624999X0.462499X0*%
%ADD53RoundRect,0.150000X0.150000X-0.587500X0.150000X0.587500X-0.150000X0.587500X-0.150000X-0.587500X0*%
%ADD54RoundRect,0.250000X-0.412500X-0.650000X0.412500X-0.650000X0.412500X0.650000X-0.412500X0.650000X0*%
%ADD55RoundRect,0.112500X-0.187500X-0.112500X0.187500X-0.112500X0.187500X0.112500X-0.187500X0.112500X0*%
%ADD56R,2.200000X2.200000*%
%ADD57O,2.200000X2.200000*%
%ADD58R,1.800000X1.800000*%
%ADD59O,1.800000X1.800000*%
%ADD60RoundRect,0.250000X-1.400000X-0.600000X1.400000X-0.600000X1.400000X0.600000X-1.400000X0.600000X0*%
G04 APERTURE END LIST*
D10*
X119436115Y-106172419D02*
X119436115Y-106981942D01*
X119436115Y-106981942D02*
X119388496Y-107077180D01*
X119388496Y-107077180D02*
X119340877Y-107124800D01*
X119340877Y-107124800D02*
X119245639Y-107172419D01*
X119245639Y-107172419D02*
X119055163Y-107172419D01*
X119055163Y-107172419D02*
X118959925Y-107124800D01*
X118959925Y-107124800D02*
X118912306Y-107077180D01*
X118912306Y-107077180D02*
X118864687Y-106981942D01*
X118864687Y-106981942D02*
X118864687Y-106172419D01*
X118436115Y-106886704D02*
X117959925Y-106886704D01*
X118531353Y-107172419D02*
X118198020Y-106172419D01*
X118198020Y-106172419D02*
X117864687Y-107172419D01*
X116959925Y-107172419D02*
X117293258Y-106696228D01*
X117531353Y-107172419D02*
X117531353Y-106172419D01*
X117531353Y-106172419D02*
X117150401Y-106172419D01*
X117150401Y-106172419D02*
X117055163Y-106220038D01*
X117055163Y-106220038D02*
X117007544Y-106267657D01*
X117007544Y-106267657D02*
X116959925Y-106362895D01*
X116959925Y-106362895D02*
X116959925Y-106505752D01*
X116959925Y-106505752D02*
X117007544Y-106600990D01*
X117007544Y-106600990D02*
X117055163Y-106648609D01*
X117055163Y-106648609D02*
X117150401Y-106696228D01*
X117150401Y-106696228D02*
X117531353Y-106696228D01*
X116674210Y-106172419D02*
X116102782Y-106172419D01*
X116388496Y-107172419D02*
X116388496Y-106172419D01*
X193172306Y-58260038D02*
X193267544Y-58212419D01*
X193267544Y-58212419D02*
X193410401Y-58212419D01*
X193410401Y-58212419D02*
X193553258Y-58260038D01*
X193553258Y-58260038D02*
X193648496Y-58355276D01*
X193648496Y-58355276D02*
X193696115Y-58450514D01*
X193696115Y-58450514D02*
X193743734Y-58640990D01*
X193743734Y-58640990D02*
X193743734Y-58783847D01*
X193743734Y-58783847D02*
X193696115Y-58974323D01*
X193696115Y-58974323D02*
X193648496Y-59069561D01*
X193648496Y-59069561D02*
X193553258Y-59164800D01*
X193553258Y-59164800D02*
X193410401Y-59212419D01*
X193410401Y-59212419D02*
X193315163Y-59212419D01*
X193315163Y-59212419D02*
X193172306Y-59164800D01*
X193172306Y-59164800D02*
X193124687Y-59117180D01*
X193124687Y-59117180D02*
X193124687Y-58783847D01*
X193124687Y-58783847D02*
X193315163Y-58783847D01*
X192696115Y-58545752D02*
X192696115Y-59212419D01*
X192696115Y-58640990D02*
X192648496Y-58593371D01*
X192648496Y-58593371D02*
X192553258Y-58545752D01*
X192553258Y-58545752D02*
X192410401Y-58545752D01*
X192410401Y-58545752D02*
X192315163Y-58593371D01*
X192315163Y-58593371D02*
X192267544Y-58688609D01*
X192267544Y-58688609D02*
X192267544Y-59212419D01*
X191362782Y-59212419D02*
X191362782Y-58212419D01*
X191362782Y-59164800D02*
X191458020Y-59212419D01*
X191458020Y-59212419D02*
X191648496Y-59212419D01*
X191648496Y-59212419D02*
X191743734Y-59164800D01*
X191743734Y-59164800D02*
X191791353Y-59117180D01*
X191791353Y-59117180D02*
X191838972Y-59021942D01*
X191838972Y-59021942D02*
X191838972Y-58736228D01*
X191838972Y-58736228D02*
X191791353Y-58640990D01*
X191791353Y-58640990D02*
X191743734Y-58593371D01*
X191743734Y-58593371D02*
X191648496Y-58545752D01*
X191648496Y-58545752D02*
X191458020Y-58545752D01*
X191458020Y-58545752D02*
X191362782Y-58593371D01*
X132936115Y-106372419D02*
X132936115Y-107181942D01*
X132936115Y-107181942D02*
X132888496Y-107277180D01*
X132888496Y-107277180D02*
X132840877Y-107324800D01*
X132840877Y-107324800D02*
X132745639Y-107372419D01*
X132745639Y-107372419D02*
X132555163Y-107372419D01*
X132555163Y-107372419D02*
X132459925Y-107324800D01*
X132459925Y-107324800D02*
X132412306Y-107277180D01*
X132412306Y-107277180D02*
X132364687Y-107181942D01*
X132364687Y-107181942D02*
X132364687Y-106372419D01*
X131936115Y-107324800D02*
X131793258Y-107372419D01*
X131793258Y-107372419D02*
X131555163Y-107372419D01*
X131555163Y-107372419D02*
X131459925Y-107324800D01*
X131459925Y-107324800D02*
X131412306Y-107277180D01*
X131412306Y-107277180D02*
X131364687Y-107181942D01*
X131364687Y-107181942D02*
X131364687Y-107086704D01*
X131364687Y-107086704D02*
X131412306Y-106991466D01*
X131412306Y-106991466D02*
X131459925Y-106943847D01*
X131459925Y-106943847D02*
X131555163Y-106896228D01*
X131555163Y-106896228D02*
X131745639Y-106848609D01*
X131745639Y-106848609D02*
X131840877Y-106800990D01*
X131840877Y-106800990D02*
X131888496Y-106753371D01*
X131888496Y-106753371D02*
X131936115Y-106658133D01*
X131936115Y-106658133D02*
X131936115Y-106562895D01*
X131936115Y-106562895D02*
X131888496Y-106467657D01*
X131888496Y-106467657D02*
X131840877Y-106420038D01*
X131840877Y-106420038D02*
X131745639Y-106372419D01*
X131745639Y-106372419D02*
X131507544Y-106372419D01*
X131507544Y-106372419D02*
X131364687Y-106420038D01*
X130602782Y-106848609D02*
X130459925Y-106896228D01*
X130459925Y-106896228D02*
X130412306Y-106943847D01*
X130412306Y-106943847D02*
X130364687Y-107039085D01*
X130364687Y-107039085D02*
X130364687Y-107181942D01*
X130364687Y-107181942D02*
X130412306Y-107277180D01*
X130412306Y-107277180D02*
X130459925Y-107324800D01*
X130459925Y-107324800D02*
X130555163Y-107372419D01*
X130555163Y-107372419D02*
X130936115Y-107372419D01*
X130936115Y-107372419D02*
X130936115Y-106372419D01*
X130936115Y-106372419D02*
X130602782Y-106372419D01*
X130602782Y-106372419D02*
X130507544Y-106420038D01*
X130507544Y-106420038D02*
X130459925Y-106467657D01*
X130459925Y-106467657D02*
X130412306Y-106562895D01*
X130412306Y-106562895D02*
X130412306Y-106658133D01*
X130412306Y-106658133D02*
X130459925Y-106753371D01*
X130459925Y-106753371D02*
X130507544Y-106800990D01*
X130507544Y-106800990D02*
X130602782Y-106848609D01*
X130602782Y-106848609D02*
X130936115Y-106848609D01*
X193838972Y-55372419D02*
X193505639Y-56372419D01*
X193505639Y-56372419D02*
X193172306Y-55372419D01*
X192505639Y-55848609D02*
X192362782Y-55896228D01*
X192362782Y-55896228D02*
X192315163Y-55943847D01*
X192315163Y-55943847D02*
X192267544Y-56039085D01*
X192267544Y-56039085D02*
X192267544Y-56181942D01*
X192267544Y-56181942D02*
X192315163Y-56277180D01*
X192315163Y-56277180D02*
X192362782Y-56324800D01*
X192362782Y-56324800D02*
X192458020Y-56372419D01*
X192458020Y-56372419D02*
X192838972Y-56372419D01*
X192838972Y-56372419D02*
X192838972Y-55372419D01*
X192838972Y-55372419D02*
X192505639Y-55372419D01*
X192505639Y-55372419D02*
X192410401Y-55420038D01*
X192410401Y-55420038D02*
X192362782Y-55467657D01*
X192362782Y-55467657D02*
X192315163Y-55562895D01*
X192315163Y-55562895D02*
X192315163Y-55658133D01*
X192315163Y-55658133D02*
X192362782Y-55753371D01*
X192362782Y-55753371D02*
X192410401Y-55800990D01*
X192410401Y-55800990D02*
X192505639Y-55848609D01*
X192505639Y-55848609D02*
X192838972Y-55848609D01*
X191410401Y-56372419D02*
X191410401Y-55848609D01*
X191410401Y-55848609D02*
X191458020Y-55753371D01*
X191458020Y-55753371D02*
X191553258Y-55705752D01*
X191553258Y-55705752D02*
X191743734Y-55705752D01*
X191743734Y-55705752D02*
X191838972Y-55753371D01*
X191410401Y-56324800D02*
X191505639Y-56372419D01*
X191505639Y-56372419D02*
X191743734Y-56372419D01*
X191743734Y-56372419D02*
X191838972Y-56324800D01*
X191838972Y-56324800D02*
X191886591Y-56229561D01*
X191886591Y-56229561D02*
X191886591Y-56134323D01*
X191886591Y-56134323D02*
X191838972Y-56039085D01*
X191838972Y-56039085D02*
X191743734Y-55991466D01*
X191743734Y-55991466D02*
X191505639Y-55991466D01*
X191505639Y-55991466D02*
X191410401Y-55943847D01*
X191077067Y-55705752D02*
X190696115Y-55705752D01*
X190934210Y-55372419D02*
X190934210Y-56229561D01*
X190934210Y-56229561D02*
X190886591Y-56324800D01*
X190886591Y-56324800D02*
X190791353Y-56372419D01*
X190791353Y-56372419D02*
X190696115Y-56372419D01*
X184124687Y-111777180D02*
X184172306Y-111824800D01*
X184172306Y-111824800D02*
X184315163Y-111872419D01*
X184315163Y-111872419D02*
X184410401Y-111872419D01*
X184410401Y-111872419D02*
X184553258Y-111824800D01*
X184553258Y-111824800D02*
X184648496Y-111729561D01*
X184648496Y-111729561D02*
X184696115Y-111634323D01*
X184696115Y-111634323D02*
X184743734Y-111443847D01*
X184743734Y-111443847D02*
X184743734Y-111300990D01*
X184743734Y-111300990D02*
X184696115Y-111110514D01*
X184696115Y-111110514D02*
X184648496Y-111015276D01*
X184648496Y-111015276D02*
X184553258Y-110920038D01*
X184553258Y-110920038D02*
X184410401Y-110872419D01*
X184410401Y-110872419D02*
X184315163Y-110872419D01*
X184315163Y-110872419D02*
X184172306Y-110920038D01*
X184172306Y-110920038D02*
X184124687Y-110967657D01*
X183267544Y-111872419D02*
X183267544Y-111348609D01*
X183267544Y-111348609D02*
X183315163Y-111253371D01*
X183315163Y-111253371D02*
X183410401Y-111205752D01*
X183410401Y-111205752D02*
X183600877Y-111205752D01*
X183600877Y-111205752D02*
X183696115Y-111253371D01*
X183267544Y-111824800D02*
X183362782Y-111872419D01*
X183362782Y-111872419D02*
X183600877Y-111872419D01*
X183600877Y-111872419D02*
X183696115Y-111824800D01*
X183696115Y-111824800D02*
X183743734Y-111729561D01*
X183743734Y-111729561D02*
X183743734Y-111634323D01*
X183743734Y-111634323D02*
X183696115Y-111539085D01*
X183696115Y-111539085D02*
X183600877Y-111491466D01*
X183600877Y-111491466D02*
X183362782Y-111491466D01*
X183362782Y-111491466D02*
X183267544Y-111443847D01*
X182791353Y-111872419D02*
X182791353Y-111205752D01*
X182791353Y-111300990D02*
X182743734Y-111253371D01*
X182743734Y-111253371D02*
X182648496Y-111205752D01*
X182648496Y-111205752D02*
X182505639Y-111205752D01*
X182505639Y-111205752D02*
X182410401Y-111253371D01*
X182410401Y-111253371D02*
X182362782Y-111348609D01*
X182362782Y-111348609D02*
X182362782Y-111872419D01*
X182362782Y-111348609D02*
X182315163Y-111253371D01*
X182315163Y-111253371D02*
X182219925Y-111205752D01*
X182219925Y-111205752D02*
X182077068Y-111205752D01*
X182077068Y-111205752D02*
X181981829Y-111253371D01*
X181981829Y-111253371D02*
X181934210Y-111348609D01*
X181934210Y-111348609D02*
X181934210Y-111872419D01*
X181077068Y-111824800D02*
X181172306Y-111872419D01*
X181172306Y-111872419D02*
X181362782Y-111872419D01*
X181362782Y-111872419D02*
X181458020Y-111824800D01*
X181458020Y-111824800D02*
X181505639Y-111729561D01*
X181505639Y-111729561D02*
X181505639Y-111348609D01*
X181505639Y-111348609D02*
X181458020Y-111253371D01*
X181458020Y-111253371D02*
X181362782Y-111205752D01*
X181362782Y-111205752D02*
X181172306Y-111205752D01*
X181172306Y-111205752D02*
X181077068Y-111253371D01*
X181077068Y-111253371D02*
X181029449Y-111348609D01*
X181029449Y-111348609D02*
X181029449Y-111443847D01*
X181029449Y-111443847D02*
X181505639Y-111539085D01*
X180600877Y-111872419D02*
X180600877Y-111205752D01*
X180600877Y-111396228D02*
X180553258Y-111300990D01*
X180553258Y-111300990D02*
X180505639Y-111253371D01*
X180505639Y-111253371D02*
X180410401Y-111205752D01*
X180410401Y-111205752D02*
X180315163Y-111205752D01*
X179553258Y-111872419D02*
X179553258Y-111348609D01*
X179553258Y-111348609D02*
X179600877Y-111253371D01*
X179600877Y-111253371D02*
X179696115Y-111205752D01*
X179696115Y-111205752D02*
X179886591Y-111205752D01*
X179886591Y-111205752D02*
X179981829Y-111253371D01*
X179553258Y-111824800D02*
X179648496Y-111872419D01*
X179648496Y-111872419D02*
X179886591Y-111872419D01*
X179886591Y-111872419D02*
X179981829Y-111824800D01*
X179981829Y-111824800D02*
X180029448Y-111729561D01*
X180029448Y-111729561D02*
X180029448Y-111634323D01*
X180029448Y-111634323D02*
X179981829Y-111539085D01*
X179981829Y-111539085D02*
X179886591Y-111491466D01*
X179886591Y-111491466D02*
X179648496Y-111491466D01*
X179648496Y-111491466D02*
X179553258Y-111443847D01*
X178124686Y-110872419D02*
X177934210Y-110872419D01*
X177934210Y-110872419D02*
X177838972Y-110920038D01*
X177838972Y-110920038D02*
X177743734Y-111015276D01*
X177743734Y-111015276D02*
X177696115Y-111205752D01*
X177696115Y-111205752D02*
X177696115Y-111539085D01*
X177696115Y-111539085D02*
X177743734Y-111729561D01*
X177743734Y-111729561D02*
X177838972Y-111824800D01*
X177838972Y-111824800D02*
X177934210Y-111872419D01*
X177934210Y-111872419D02*
X178124686Y-111872419D01*
X178124686Y-111872419D02*
X178219924Y-111824800D01*
X178219924Y-111824800D02*
X178315162Y-111729561D01*
X178315162Y-111729561D02*
X178362781Y-111539085D01*
X178362781Y-111539085D02*
X178362781Y-111205752D01*
X178362781Y-111205752D02*
X178315162Y-111015276D01*
X178315162Y-111015276D02*
X178219924Y-110920038D01*
X178219924Y-110920038D02*
X178124686Y-110872419D01*
X176838972Y-111205752D02*
X176838972Y-111872419D01*
X177267543Y-111205752D02*
X177267543Y-111729561D01*
X177267543Y-111729561D02*
X177219924Y-111824800D01*
X177219924Y-111824800D02*
X177124686Y-111872419D01*
X177124686Y-111872419D02*
X176981829Y-111872419D01*
X176981829Y-111872419D02*
X176886591Y-111824800D01*
X176886591Y-111824800D02*
X176838972Y-111777180D01*
X176505638Y-111205752D02*
X176124686Y-111205752D01*
X176362781Y-110872419D02*
X176362781Y-111729561D01*
X176362781Y-111729561D02*
X176315162Y-111824800D01*
X176315162Y-111824800D02*
X176219924Y-111872419D01*
X176219924Y-111872419D02*
X176124686Y-111872419D01*
X169624687Y-106777180D02*
X169672306Y-106824800D01*
X169672306Y-106824800D02*
X169815163Y-106872419D01*
X169815163Y-106872419D02*
X169910401Y-106872419D01*
X169910401Y-106872419D02*
X170053258Y-106824800D01*
X170053258Y-106824800D02*
X170148496Y-106729561D01*
X170148496Y-106729561D02*
X170196115Y-106634323D01*
X170196115Y-106634323D02*
X170243734Y-106443847D01*
X170243734Y-106443847D02*
X170243734Y-106300990D01*
X170243734Y-106300990D02*
X170196115Y-106110514D01*
X170196115Y-106110514D02*
X170148496Y-106015276D01*
X170148496Y-106015276D02*
X170053258Y-105920038D01*
X170053258Y-105920038D02*
X169910401Y-105872419D01*
X169910401Y-105872419D02*
X169815163Y-105872419D01*
X169815163Y-105872419D02*
X169672306Y-105920038D01*
X169672306Y-105920038D02*
X169624687Y-105967657D01*
X169243734Y-106586704D02*
X168767544Y-106586704D01*
X169338972Y-106872419D02*
X169005639Y-105872419D01*
X169005639Y-105872419D02*
X168672306Y-106872419D01*
X168338972Y-106872419D02*
X168338972Y-105872419D01*
X168338972Y-105872419D02*
X167767544Y-106872419D01*
X167767544Y-106872419D02*
X167767544Y-105872419D01*
D11*
X192087380Y-67509080D02*
X192510714Y-67509080D01*
X192510714Y-68174318D02*
X192510714Y-66904318D01*
X192510714Y-66904318D02*
X191905952Y-66904318D01*
X190817381Y-68174318D02*
X191422143Y-68174318D01*
X191422143Y-68174318D02*
X191422143Y-66904318D01*
X190454524Y-67025270D02*
X190394048Y-66964794D01*
X190394048Y-66964794D02*
X190273095Y-66904318D01*
X190273095Y-66904318D02*
X189970714Y-66904318D01*
X189970714Y-66904318D02*
X189849762Y-66964794D01*
X189849762Y-66964794D02*
X189789286Y-67025270D01*
X189789286Y-67025270D02*
X189728809Y-67146222D01*
X189728809Y-67146222D02*
X189728809Y-67267175D01*
X189728809Y-67267175D02*
X189789286Y-67448603D01*
X189789286Y-67448603D02*
X190515000Y-68174318D01*
X190515000Y-68174318D02*
X189728809Y-68174318D01*
X166137380Y-75659080D02*
X166560714Y-75659080D01*
X166560714Y-76324318D02*
X166560714Y-75054318D01*
X166560714Y-75054318D02*
X165955952Y-75054318D01*
X164867381Y-76324318D02*
X165472143Y-76324318D01*
X165472143Y-76324318D02*
X165472143Y-75054318D01*
X163778809Y-76324318D02*
X164504524Y-76324318D01*
X164141667Y-76324318D02*
X164141667Y-75054318D01*
X164141667Y-75054318D02*
X164262619Y-75235746D01*
X164262619Y-75235746D02*
X164383571Y-75356699D01*
X164383571Y-75356699D02*
X164504524Y-75417175D01*
D12*
X119833333Y-55454819D02*
X119833333Y-56169104D01*
X119833333Y-56169104D02*
X119880952Y-56311961D01*
X119880952Y-56311961D02*
X119976190Y-56407200D01*
X119976190Y-56407200D02*
X120119047Y-56454819D01*
X120119047Y-56454819D02*
X120214285Y-56454819D01*
X119357142Y-56454819D02*
X119357142Y-55454819D01*
X119357142Y-55454819D02*
X118976190Y-55454819D01*
X118976190Y-55454819D02*
X118880952Y-55502438D01*
X118880952Y-55502438D02*
X118833333Y-55550057D01*
X118833333Y-55550057D02*
X118785714Y-55645295D01*
X118785714Y-55645295D02*
X118785714Y-55788152D01*
X118785714Y-55788152D02*
X118833333Y-55883390D01*
X118833333Y-55883390D02*
X118880952Y-55931009D01*
X118880952Y-55931009D02*
X118976190Y-55978628D01*
X118976190Y-55978628D02*
X119357142Y-55978628D01*
X117833333Y-56454819D02*
X118404761Y-56454819D01*
X118119047Y-56454819D02*
X118119047Y-55454819D01*
X118119047Y-55454819D02*
X118214285Y-55597676D01*
X118214285Y-55597676D02*
X118309523Y-55692914D01*
X118309523Y-55692914D02*
X118404761Y-55740533D01*
X168714285Y-95454819D02*
X168714285Y-94454819D01*
X168714285Y-94454819D02*
X168476190Y-94454819D01*
X168476190Y-94454819D02*
X168333333Y-94502438D01*
X168333333Y-94502438D02*
X168238095Y-94597676D01*
X168238095Y-94597676D02*
X168190476Y-94692914D01*
X168190476Y-94692914D02*
X168142857Y-94883390D01*
X168142857Y-94883390D02*
X168142857Y-95026247D01*
X168142857Y-95026247D02*
X168190476Y-95216723D01*
X168190476Y-95216723D02*
X168238095Y-95311961D01*
X168238095Y-95311961D02*
X168333333Y-95407200D01*
X168333333Y-95407200D02*
X168476190Y-95454819D01*
X168476190Y-95454819D02*
X168714285Y-95454819D01*
X167761904Y-94550057D02*
X167714285Y-94502438D01*
X167714285Y-94502438D02*
X167619047Y-94454819D01*
X167619047Y-94454819D02*
X167380952Y-94454819D01*
X167380952Y-94454819D02*
X167285714Y-94502438D01*
X167285714Y-94502438D02*
X167238095Y-94550057D01*
X167238095Y-94550057D02*
X167190476Y-94645295D01*
X167190476Y-94645295D02*
X167190476Y-94740533D01*
X167190476Y-94740533D02*
X167238095Y-94883390D01*
X167238095Y-94883390D02*
X167809523Y-95454819D01*
X167809523Y-95454819D02*
X167190476Y-95454819D01*
X166809523Y-94550057D02*
X166761904Y-94502438D01*
X166761904Y-94502438D02*
X166666666Y-94454819D01*
X166666666Y-94454819D02*
X166428571Y-94454819D01*
X166428571Y-94454819D02*
X166333333Y-94502438D01*
X166333333Y-94502438D02*
X166285714Y-94550057D01*
X166285714Y-94550057D02*
X166238095Y-94645295D01*
X166238095Y-94645295D02*
X166238095Y-94740533D01*
X166238095Y-94740533D02*
X166285714Y-94883390D01*
X166285714Y-94883390D02*
X166857142Y-95454819D01*
X166857142Y-95454819D02*
X166238095Y-95454819D01*
X124833332Y-96384264D02*
X124690475Y-96431883D01*
X124690475Y-96431883D02*
X124452380Y-96431883D01*
X124452380Y-96431883D02*
X124357142Y-96384264D01*
X124357142Y-96384264D02*
X124309523Y-96336644D01*
X124309523Y-96336644D02*
X124261904Y-96241406D01*
X124261904Y-96241406D02*
X124261904Y-96146168D01*
X124261904Y-96146168D02*
X124309523Y-96050930D01*
X124309523Y-96050930D02*
X124357142Y-96003311D01*
X124357142Y-96003311D02*
X124452380Y-95955692D01*
X124452380Y-95955692D02*
X124642856Y-95908073D01*
X124642856Y-95908073D02*
X124738094Y-95860454D01*
X124738094Y-95860454D02*
X124785713Y-95812835D01*
X124785713Y-95812835D02*
X124833332Y-95717597D01*
X124833332Y-95717597D02*
X124833332Y-95622359D01*
X124833332Y-95622359D02*
X124785713Y-95527121D01*
X124785713Y-95527121D02*
X124738094Y-95479502D01*
X124738094Y-95479502D02*
X124642856Y-95431883D01*
X124642856Y-95431883D02*
X124404761Y-95431883D01*
X124404761Y-95431883D02*
X124261904Y-95479502D01*
X123928570Y-95431883D02*
X123690475Y-96431883D01*
X123690475Y-96431883D02*
X123499999Y-95717597D01*
X123499999Y-95717597D02*
X123309523Y-96431883D01*
X123309523Y-96431883D02*
X123071428Y-95431883D01*
X122166666Y-96431883D02*
X122738094Y-96431883D01*
X122452380Y-96431883D02*
X122452380Y-95431883D01*
X122452380Y-95431883D02*
X122547618Y-95574740D01*
X122547618Y-95574740D02*
X122642856Y-95669978D01*
X122642856Y-95669978D02*
X122738094Y-95717597D01*
X145261904Y-74954819D02*
X145261904Y-75764342D01*
X145261904Y-75764342D02*
X145214285Y-75859580D01*
X145214285Y-75859580D02*
X145166666Y-75907200D01*
X145166666Y-75907200D02*
X145071428Y-75954819D01*
X145071428Y-75954819D02*
X144880952Y-75954819D01*
X144880952Y-75954819D02*
X144785714Y-75907200D01*
X144785714Y-75907200D02*
X144738095Y-75859580D01*
X144738095Y-75859580D02*
X144690476Y-75764342D01*
X144690476Y-75764342D02*
X144690476Y-74954819D01*
X144309523Y-74954819D02*
X143690476Y-74954819D01*
X143690476Y-74954819D02*
X144023809Y-75335771D01*
X144023809Y-75335771D02*
X143880952Y-75335771D01*
X143880952Y-75335771D02*
X143785714Y-75383390D01*
X143785714Y-75383390D02*
X143738095Y-75431009D01*
X143738095Y-75431009D02*
X143690476Y-75526247D01*
X143690476Y-75526247D02*
X143690476Y-75764342D01*
X143690476Y-75764342D02*
X143738095Y-75859580D01*
X143738095Y-75859580D02*
X143785714Y-75907200D01*
X143785714Y-75907200D02*
X143880952Y-75954819D01*
X143880952Y-75954819D02*
X144166666Y-75954819D01*
X144166666Y-75954819D02*
X144261904Y-75907200D01*
X144261904Y-75907200D02*
X144309523Y-75859580D01*
X147166666Y-64859580D02*
X147214285Y-64907200D01*
X147214285Y-64907200D02*
X147357142Y-64954819D01*
X147357142Y-64954819D02*
X147452380Y-64954819D01*
X147452380Y-64954819D02*
X147595237Y-64907200D01*
X147595237Y-64907200D02*
X147690475Y-64811961D01*
X147690475Y-64811961D02*
X147738094Y-64716723D01*
X147738094Y-64716723D02*
X147785713Y-64526247D01*
X147785713Y-64526247D02*
X147785713Y-64383390D01*
X147785713Y-64383390D02*
X147738094Y-64192914D01*
X147738094Y-64192914D02*
X147690475Y-64097676D01*
X147690475Y-64097676D02*
X147595237Y-64002438D01*
X147595237Y-64002438D02*
X147452380Y-63954819D01*
X147452380Y-63954819D02*
X147357142Y-63954819D01*
X147357142Y-63954819D02*
X147214285Y-64002438D01*
X147214285Y-64002438D02*
X147166666Y-64050057D01*
X146261904Y-63954819D02*
X146738094Y-63954819D01*
X146738094Y-63954819D02*
X146785713Y-64431009D01*
X146785713Y-64431009D02*
X146738094Y-64383390D01*
X146738094Y-64383390D02*
X146642856Y-64335771D01*
X146642856Y-64335771D02*
X146404761Y-64335771D01*
X146404761Y-64335771D02*
X146309523Y-64383390D01*
X146309523Y-64383390D02*
X146261904Y-64431009D01*
X146261904Y-64431009D02*
X146214285Y-64526247D01*
X146214285Y-64526247D02*
X146214285Y-64764342D01*
X146214285Y-64764342D02*
X146261904Y-64859580D01*
X146261904Y-64859580D02*
X146309523Y-64907200D01*
X146309523Y-64907200D02*
X146404761Y-64954819D01*
X146404761Y-64954819D02*
X146642856Y-64954819D01*
X146642856Y-64954819D02*
X146738094Y-64907200D01*
X146738094Y-64907200D02*
X146785713Y-64859580D01*
X170859580Y-86919642D02*
X170907200Y-86872023D01*
X170907200Y-86872023D02*
X170954819Y-86729166D01*
X170954819Y-86729166D02*
X170954819Y-86633928D01*
X170954819Y-86633928D02*
X170907200Y-86491071D01*
X170907200Y-86491071D02*
X170811961Y-86395833D01*
X170811961Y-86395833D02*
X170716723Y-86348214D01*
X170716723Y-86348214D02*
X170526247Y-86300595D01*
X170526247Y-86300595D02*
X170383390Y-86300595D01*
X170383390Y-86300595D02*
X170192914Y-86348214D01*
X170192914Y-86348214D02*
X170097676Y-86395833D01*
X170097676Y-86395833D02*
X170002438Y-86491071D01*
X170002438Y-86491071D02*
X169954819Y-86633928D01*
X169954819Y-86633928D02*
X169954819Y-86729166D01*
X169954819Y-86729166D02*
X170002438Y-86872023D01*
X170002438Y-86872023D02*
X170050057Y-86919642D01*
X170954819Y-87872023D02*
X170954819Y-87300595D01*
X170954819Y-87586309D02*
X169954819Y-87586309D01*
X169954819Y-87586309D02*
X170097676Y-87491071D01*
X170097676Y-87491071D02*
X170192914Y-87395833D01*
X170192914Y-87395833D02*
X170240533Y-87300595D01*
X169954819Y-88491071D02*
X169954819Y-88586309D01*
X169954819Y-88586309D02*
X170002438Y-88681547D01*
X170002438Y-88681547D02*
X170050057Y-88729166D01*
X170050057Y-88729166D02*
X170145295Y-88776785D01*
X170145295Y-88776785D02*
X170335771Y-88824404D01*
X170335771Y-88824404D02*
X170573866Y-88824404D01*
X170573866Y-88824404D02*
X170764342Y-88776785D01*
X170764342Y-88776785D02*
X170859580Y-88729166D01*
X170859580Y-88729166D02*
X170907200Y-88681547D01*
X170907200Y-88681547D02*
X170954819Y-88586309D01*
X170954819Y-88586309D02*
X170954819Y-88491071D01*
X170954819Y-88491071D02*
X170907200Y-88395833D01*
X170907200Y-88395833D02*
X170859580Y-88348214D01*
X170859580Y-88348214D02*
X170764342Y-88300595D01*
X170764342Y-88300595D02*
X170573866Y-88252976D01*
X170573866Y-88252976D02*
X170335771Y-88252976D01*
X170335771Y-88252976D02*
X170145295Y-88300595D01*
X170145295Y-88300595D02*
X170050057Y-88348214D01*
X170050057Y-88348214D02*
X170002438Y-88395833D01*
X170002438Y-88395833D02*
X169954819Y-88491071D01*
X173859580Y-67633333D02*
X173907200Y-67585714D01*
X173907200Y-67585714D02*
X173954819Y-67442857D01*
X173954819Y-67442857D02*
X173954819Y-67347619D01*
X173954819Y-67347619D02*
X173907200Y-67204762D01*
X173907200Y-67204762D02*
X173811961Y-67109524D01*
X173811961Y-67109524D02*
X173716723Y-67061905D01*
X173716723Y-67061905D02*
X173526247Y-67014286D01*
X173526247Y-67014286D02*
X173383390Y-67014286D01*
X173383390Y-67014286D02*
X173192914Y-67061905D01*
X173192914Y-67061905D02*
X173097676Y-67109524D01*
X173097676Y-67109524D02*
X173002438Y-67204762D01*
X173002438Y-67204762D02*
X172954819Y-67347619D01*
X172954819Y-67347619D02*
X172954819Y-67442857D01*
X172954819Y-67442857D02*
X173002438Y-67585714D01*
X173002438Y-67585714D02*
X173050057Y-67633333D01*
X173288152Y-68490476D02*
X173954819Y-68490476D01*
X172907200Y-68252381D02*
X173621485Y-68014286D01*
X173621485Y-68014286D02*
X173621485Y-68633333D01*
X118095238Y-59050057D02*
X118190476Y-59002438D01*
X118190476Y-59002438D02*
X118285714Y-58907200D01*
X118285714Y-58907200D02*
X118428571Y-58764342D01*
X118428571Y-58764342D02*
X118523809Y-58716723D01*
X118523809Y-58716723D02*
X118619047Y-58716723D01*
X118571428Y-58954819D02*
X118666666Y-58907200D01*
X118666666Y-58907200D02*
X118761904Y-58811961D01*
X118761904Y-58811961D02*
X118809523Y-58621485D01*
X118809523Y-58621485D02*
X118809523Y-58288152D01*
X118809523Y-58288152D02*
X118761904Y-58097676D01*
X118761904Y-58097676D02*
X118666666Y-58002438D01*
X118666666Y-58002438D02*
X118571428Y-57954819D01*
X118571428Y-57954819D02*
X118380952Y-57954819D01*
X118380952Y-57954819D02*
X118285714Y-58002438D01*
X118285714Y-58002438D02*
X118190476Y-58097676D01*
X118190476Y-58097676D02*
X118142857Y-58288152D01*
X118142857Y-58288152D02*
X118142857Y-58621485D01*
X118142857Y-58621485D02*
X118190476Y-58811961D01*
X118190476Y-58811961D02*
X118285714Y-58907200D01*
X118285714Y-58907200D02*
X118380952Y-58954819D01*
X118380952Y-58954819D02*
X118571428Y-58954819D01*
X117190476Y-58954819D02*
X117761904Y-58954819D01*
X117476190Y-58954819D02*
X117476190Y-57954819D01*
X117476190Y-57954819D02*
X117571428Y-58097676D01*
X117571428Y-58097676D02*
X117666666Y-58192914D01*
X117666666Y-58192914D02*
X117761904Y-58240533D01*
X185714285Y-69954819D02*
X185714285Y-68954819D01*
X185714285Y-68954819D02*
X185476190Y-68954819D01*
X185476190Y-68954819D02*
X185333333Y-69002438D01*
X185333333Y-69002438D02*
X185238095Y-69097676D01*
X185238095Y-69097676D02*
X185190476Y-69192914D01*
X185190476Y-69192914D02*
X185142857Y-69383390D01*
X185142857Y-69383390D02*
X185142857Y-69526247D01*
X185142857Y-69526247D02*
X185190476Y-69716723D01*
X185190476Y-69716723D02*
X185238095Y-69811961D01*
X185238095Y-69811961D02*
X185333333Y-69907200D01*
X185333333Y-69907200D02*
X185476190Y-69954819D01*
X185476190Y-69954819D02*
X185714285Y-69954819D01*
X184761904Y-69050057D02*
X184714285Y-69002438D01*
X184714285Y-69002438D02*
X184619047Y-68954819D01*
X184619047Y-68954819D02*
X184380952Y-68954819D01*
X184380952Y-68954819D02*
X184285714Y-69002438D01*
X184285714Y-69002438D02*
X184238095Y-69050057D01*
X184238095Y-69050057D02*
X184190476Y-69145295D01*
X184190476Y-69145295D02*
X184190476Y-69240533D01*
X184190476Y-69240533D02*
X184238095Y-69383390D01*
X184238095Y-69383390D02*
X184809523Y-69954819D01*
X184809523Y-69954819D02*
X184190476Y-69954819D01*
X183238095Y-69954819D02*
X183809523Y-69954819D01*
X183523809Y-69954819D02*
X183523809Y-68954819D01*
X183523809Y-68954819D02*
X183619047Y-69097676D01*
X183619047Y-69097676D02*
X183714285Y-69192914D01*
X183714285Y-69192914D02*
X183809523Y-69240533D01*
X188271428Y-71762295D02*
X188728571Y-71762295D01*
X188499999Y-71762295D02*
X188499999Y-70962295D01*
X188499999Y-70962295D02*
X188576190Y-71076580D01*
X188576190Y-71076580D02*
X188652380Y-71152771D01*
X188652380Y-71152771D02*
X188728571Y-71190866D01*
X125869921Y-90454819D02*
X126203254Y-89978628D01*
X126441349Y-90454819D02*
X126441349Y-89454819D01*
X126441349Y-89454819D02*
X126060397Y-89454819D01*
X126060397Y-89454819D02*
X125965159Y-89502438D01*
X125965159Y-89502438D02*
X125917540Y-89550057D01*
X125917540Y-89550057D02*
X125869921Y-89645295D01*
X125869921Y-89645295D02*
X125869921Y-89788152D01*
X125869921Y-89788152D02*
X125917540Y-89883390D01*
X125917540Y-89883390D02*
X125965159Y-89931009D01*
X125965159Y-89931009D02*
X126060397Y-89978628D01*
X126060397Y-89978628D02*
X126441349Y-89978628D01*
X124917540Y-90454819D02*
X125488968Y-90454819D01*
X125203254Y-90454819D02*
X125203254Y-89454819D01*
X125203254Y-89454819D02*
X125298492Y-89597676D01*
X125298492Y-89597676D02*
X125393730Y-89692914D01*
X125393730Y-89692914D02*
X125488968Y-89740533D01*
X124346111Y-89883390D02*
X124441349Y-89835771D01*
X124441349Y-89835771D02*
X124488968Y-89788152D01*
X124488968Y-89788152D02*
X124536587Y-89692914D01*
X124536587Y-89692914D02*
X124536587Y-89645295D01*
X124536587Y-89645295D02*
X124488968Y-89550057D01*
X124488968Y-89550057D02*
X124441349Y-89502438D01*
X124441349Y-89502438D02*
X124346111Y-89454819D01*
X124346111Y-89454819D02*
X124155635Y-89454819D01*
X124155635Y-89454819D02*
X124060397Y-89502438D01*
X124060397Y-89502438D02*
X124012778Y-89550057D01*
X124012778Y-89550057D02*
X123965159Y-89645295D01*
X123965159Y-89645295D02*
X123965159Y-89692914D01*
X123965159Y-89692914D02*
X124012778Y-89788152D01*
X124012778Y-89788152D02*
X124060397Y-89835771D01*
X124060397Y-89835771D02*
X124155635Y-89883390D01*
X124155635Y-89883390D02*
X124346111Y-89883390D01*
X124346111Y-89883390D02*
X124441349Y-89931009D01*
X124441349Y-89931009D02*
X124488968Y-89978628D01*
X124488968Y-89978628D02*
X124536587Y-90073866D01*
X124536587Y-90073866D02*
X124536587Y-90264342D01*
X124536587Y-90264342D02*
X124488968Y-90359580D01*
X124488968Y-90359580D02*
X124441349Y-90407200D01*
X124441349Y-90407200D02*
X124346111Y-90454819D01*
X124346111Y-90454819D02*
X124155635Y-90454819D01*
X124155635Y-90454819D02*
X124060397Y-90407200D01*
X124060397Y-90407200D02*
X124012778Y-90359580D01*
X124012778Y-90359580D02*
X123965159Y-90264342D01*
X123965159Y-90264342D02*
X123965159Y-90073866D01*
X123965159Y-90073866D02*
X124012778Y-89978628D01*
X124012778Y-89978628D02*
X124060397Y-89931009D01*
X124060397Y-89931009D02*
X124155635Y-89883390D01*
X153859580Y-66833333D02*
X153907200Y-66785714D01*
X153907200Y-66785714D02*
X153954819Y-66642857D01*
X153954819Y-66642857D02*
X153954819Y-66547619D01*
X153954819Y-66547619D02*
X153907200Y-66404762D01*
X153907200Y-66404762D02*
X153811961Y-66309524D01*
X153811961Y-66309524D02*
X153716723Y-66261905D01*
X153716723Y-66261905D02*
X153526247Y-66214286D01*
X153526247Y-66214286D02*
X153383390Y-66214286D01*
X153383390Y-66214286D02*
X153192914Y-66261905D01*
X153192914Y-66261905D02*
X153097676Y-66309524D01*
X153097676Y-66309524D02*
X153002438Y-66404762D01*
X153002438Y-66404762D02*
X152954819Y-66547619D01*
X152954819Y-66547619D02*
X152954819Y-66642857D01*
X152954819Y-66642857D02*
X153002438Y-66785714D01*
X153002438Y-66785714D02*
X153050057Y-66833333D01*
X153050057Y-67214286D02*
X153002438Y-67261905D01*
X153002438Y-67261905D02*
X152954819Y-67357143D01*
X152954819Y-67357143D02*
X152954819Y-67595238D01*
X152954819Y-67595238D02*
X153002438Y-67690476D01*
X153002438Y-67690476D02*
X153050057Y-67738095D01*
X153050057Y-67738095D02*
X153145295Y-67785714D01*
X153145295Y-67785714D02*
X153240533Y-67785714D01*
X153240533Y-67785714D02*
X153383390Y-67738095D01*
X153383390Y-67738095D02*
X153954819Y-67166667D01*
X153954819Y-67166667D02*
X153954819Y-67785714D01*
X136859580Y-69833333D02*
X136907200Y-69785714D01*
X136907200Y-69785714D02*
X136954819Y-69642857D01*
X136954819Y-69642857D02*
X136954819Y-69547619D01*
X136954819Y-69547619D02*
X136907200Y-69404762D01*
X136907200Y-69404762D02*
X136811961Y-69309524D01*
X136811961Y-69309524D02*
X136716723Y-69261905D01*
X136716723Y-69261905D02*
X136526247Y-69214286D01*
X136526247Y-69214286D02*
X136383390Y-69214286D01*
X136383390Y-69214286D02*
X136192914Y-69261905D01*
X136192914Y-69261905D02*
X136097676Y-69309524D01*
X136097676Y-69309524D02*
X136002438Y-69404762D01*
X136002438Y-69404762D02*
X135954819Y-69547619D01*
X135954819Y-69547619D02*
X135954819Y-69642857D01*
X135954819Y-69642857D02*
X136002438Y-69785714D01*
X136002438Y-69785714D02*
X136050057Y-69833333D01*
X135954819Y-70690476D02*
X135954819Y-70500000D01*
X135954819Y-70500000D02*
X136002438Y-70404762D01*
X136002438Y-70404762D02*
X136050057Y-70357143D01*
X136050057Y-70357143D02*
X136192914Y-70261905D01*
X136192914Y-70261905D02*
X136383390Y-70214286D01*
X136383390Y-70214286D02*
X136764342Y-70214286D01*
X136764342Y-70214286D02*
X136859580Y-70261905D01*
X136859580Y-70261905D02*
X136907200Y-70309524D01*
X136907200Y-70309524D02*
X136954819Y-70404762D01*
X136954819Y-70404762D02*
X136954819Y-70595238D01*
X136954819Y-70595238D02*
X136907200Y-70690476D01*
X136907200Y-70690476D02*
X136859580Y-70738095D01*
X136859580Y-70738095D02*
X136764342Y-70785714D01*
X136764342Y-70785714D02*
X136526247Y-70785714D01*
X136526247Y-70785714D02*
X136431009Y-70738095D01*
X136431009Y-70738095D02*
X136383390Y-70690476D01*
X136383390Y-70690476D02*
X136335771Y-70595238D01*
X136335771Y-70595238D02*
X136335771Y-70404762D01*
X136335771Y-70404762D02*
X136383390Y-70309524D01*
X136383390Y-70309524D02*
X136431009Y-70261905D01*
X136431009Y-70261905D02*
X136526247Y-70214286D01*
X125333333Y-78954819D02*
X125333333Y-79669104D01*
X125333333Y-79669104D02*
X125380952Y-79811961D01*
X125380952Y-79811961D02*
X125476190Y-79907200D01*
X125476190Y-79907200D02*
X125619047Y-79954819D01*
X125619047Y-79954819D02*
X125714285Y-79954819D01*
X124857142Y-79954819D02*
X124857142Y-78954819D01*
X124857142Y-78954819D02*
X124476190Y-78954819D01*
X124476190Y-78954819D02*
X124380952Y-79002438D01*
X124380952Y-79002438D02*
X124333333Y-79050057D01*
X124333333Y-79050057D02*
X124285714Y-79145295D01*
X124285714Y-79145295D02*
X124285714Y-79288152D01*
X124285714Y-79288152D02*
X124333333Y-79383390D01*
X124333333Y-79383390D02*
X124380952Y-79431009D01*
X124380952Y-79431009D02*
X124476190Y-79478628D01*
X124476190Y-79478628D02*
X124857142Y-79478628D01*
X123904761Y-79050057D02*
X123857142Y-79002438D01*
X123857142Y-79002438D02*
X123761904Y-78954819D01*
X123761904Y-78954819D02*
X123523809Y-78954819D01*
X123523809Y-78954819D02*
X123428571Y-79002438D01*
X123428571Y-79002438D02*
X123380952Y-79050057D01*
X123380952Y-79050057D02*
X123333333Y-79145295D01*
X123333333Y-79145295D02*
X123333333Y-79240533D01*
X123333333Y-79240533D02*
X123380952Y-79383390D01*
X123380952Y-79383390D02*
X123952380Y-79954819D01*
X123952380Y-79954819D02*
X123333333Y-79954819D01*
X132592857Y-90454819D02*
X132926190Y-89978628D01*
X133164285Y-90454819D02*
X133164285Y-89454819D01*
X133164285Y-89454819D02*
X132783333Y-89454819D01*
X132783333Y-89454819D02*
X132688095Y-89502438D01*
X132688095Y-89502438D02*
X132640476Y-89550057D01*
X132640476Y-89550057D02*
X132592857Y-89645295D01*
X132592857Y-89645295D02*
X132592857Y-89788152D01*
X132592857Y-89788152D02*
X132640476Y-89883390D01*
X132640476Y-89883390D02*
X132688095Y-89931009D01*
X132688095Y-89931009D02*
X132783333Y-89978628D01*
X132783333Y-89978628D02*
X133164285Y-89978628D01*
X131640476Y-90454819D02*
X132211904Y-90454819D01*
X131926190Y-90454819D02*
X131926190Y-89454819D01*
X131926190Y-89454819D02*
X132021428Y-89597676D01*
X132021428Y-89597676D02*
X132116666Y-89692914D01*
X132116666Y-89692914D02*
X132211904Y-89740533D01*
X130783333Y-89788152D02*
X130783333Y-90454819D01*
X131021428Y-89407200D02*
X131259523Y-90121485D01*
X131259523Y-90121485D02*
X130640476Y-90121485D01*
X200714285Y-108954819D02*
X200714285Y-107954819D01*
X200714285Y-107954819D02*
X200476190Y-107954819D01*
X200476190Y-107954819D02*
X200333333Y-108002438D01*
X200333333Y-108002438D02*
X200238095Y-108097676D01*
X200238095Y-108097676D02*
X200190476Y-108192914D01*
X200190476Y-108192914D02*
X200142857Y-108383390D01*
X200142857Y-108383390D02*
X200142857Y-108526247D01*
X200142857Y-108526247D02*
X200190476Y-108716723D01*
X200190476Y-108716723D02*
X200238095Y-108811961D01*
X200238095Y-108811961D02*
X200333333Y-108907200D01*
X200333333Y-108907200D02*
X200476190Y-108954819D01*
X200476190Y-108954819D02*
X200714285Y-108954819D01*
X199190476Y-108954819D02*
X199761904Y-108954819D01*
X199476190Y-108954819D02*
X199476190Y-107954819D01*
X199476190Y-107954819D02*
X199571428Y-108097676D01*
X199571428Y-108097676D02*
X199666666Y-108192914D01*
X199666666Y-108192914D02*
X199761904Y-108240533D01*
X198809523Y-108050057D02*
X198761904Y-108002438D01*
X198761904Y-108002438D02*
X198666666Y-107954819D01*
X198666666Y-107954819D02*
X198428571Y-107954819D01*
X198428571Y-107954819D02*
X198333333Y-108002438D01*
X198333333Y-108002438D02*
X198285714Y-108050057D01*
X198285714Y-108050057D02*
X198238095Y-108145295D01*
X198238095Y-108145295D02*
X198238095Y-108240533D01*
X198238095Y-108240533D02*
X198285714Y-108383390D01*
X198285714Y-108383390D02*
X198857142Y-108954819D01*
X198857142Y-108954819D02*
X198238095Y-108954819D01*
X185414819Y-106051666D02*
X186129104Y-106051666D01*
X186129104Y-106051666D02*
X186271961Y-106004047D01*
X186271961Y-106004047D02*
X186367200Y-105908809D01*
X186367200Y-105908809D02*
X186414819Y-105765952D01*
X186414819Y-105765952D02*
X186414819Y-105670714D01*
X185414819Y-106432619D02*
X185414819Y-107051666D01*
X185414819Y-107051666D02*
X185795771Y-106718333D01*
X185795771Y-106718333D02*
X185795771Y-106861190D01*
X185795771Y-106861190D02*
X185843390Y-106956428D01*
X185843390Y-106956428D02*
X185891009Y-107004047D01*
X185891009Y-107004047D02*
X185986247Y-107051666D01*
X185986247Y-107051666D02*
X186224342Y-107051666D01*
X186224342Y-107051666D02*
X186319580Y-107004047D01*
X186319580Y-107004047D02*
X186367200Y-106956428D01*
X186367200Y-106956428D02*
X186414819Y-106861190D01*
X186414819Y-106861190D02*
X186414819Y-106575476D01*
X186414819Y-106575476D02*
X186367200Y-106480238D01*
X186367200Y-106480238D02*
X186319580Y-106432619D01*
X123833333Y-106454819D02*
X123833333Y-107169104D01*
X123833333Y-107169104D02*
X123880952Y-107311961D01*
X123880952Y-107311961D02*
X123976190Y-107407200D01*
X123976190Y-107407200D02*
X124119047Y-107454819D01*
X124119047Y-107454819D02*
X124214285Y-107454819D01*
X123404761Y-106550057D02*
X123357142Y-106502438D01*
X123357142Y-106502438D02*
X123261904Y-106454819D01*
X123261904Y-106454819D02*
X123023809Y-106454819D01*
X123023809Y-106454819D02*
X122928571Y-106502438D01*
X122928571Y-106502438D02*
X122880952Y-106550057D01*
X122880952Y-106550057D02*
X122833333Y-106645295D01*
X122833333Y-106645295D02*
X122833333Y-106740533D01*
X122833333Y-106740533D02*
X122880952Y-106883390D01*
X122880952Y-106883390D02*
X123452380Y-107454819D01*
X123452380Y-107454819D02*
X122833333Y-107454819D01*
X201454819Y-57166666D02*
X202169104Y-57166666D01*
X202169104Y-57166666D02*
X202311961Y-57119047D01*
X202311961Y-57119047D02*
X202407200Y-57023809D01*
X202407200Y-57023809D02*
X202454819Y-56880952D01*
X202454819Y-56880952D02*
X202454819Y-56785714D01*
X202454819Y-58166666D02*
X202454819Y-57595238D01*
X202454819Y-57880952D02*
X201454819Y-57880952D01*
X201454819Y-57880952D02*
X201597676Y-57785714D01*
X201597676Y-57785714D02*
X201692914Y-57690476D01*
X201692914Y-57690476D02*
X201740533Y-57595238D01*
X135954819Y-57785714D02*
X134954819Y-57785714D01*
X134954819Y-57785714D02*
X134954819Y-58023809D01*
X134954819Y-58023809D02*
X135002438Y-58166666D01*
X135002438Y-58166666D02*
X135097676Y-58261904D01*
X135097676Y-58261904D02*
X135192914Y-58309523D01*
X135192914Y-58309523D02*
X135383390Y-58357142D01*
X135383390Y-58357142D02*
X135526247Y-58357142D01*
X135526247Y-58357142D02*
X135716723Y-58309523D01*
X135716723Y-58309523D02*
X135811961Y-58261904D01*
X135811961Y-58261904D02*
X135907200Y-58166666D01*
X135907200Y-58166666D02*
X135954819Y-58023809D01*
X135954819Y-58023809D02*
X135954819Y-57785714D01*
X135954819Y-59309523D02*
X135954819Y-58738095D01*
X135954819Y-59023809D02*
X134954819Y-59023809D01*
X134954819Y-59023809D02*
X135097676Y-58928571D01*
X135097676Y-58928571D02*
X135192914Y-58833333D01*
X135192914Y-58833333D02*
X135240533Y-58738095D01*
X135288152Y-60166666D02*
X135954819Y-60166666D01*
X134907200Y-59928571D02*
X135621485Y-59690476D01*
X135621485Y-59690476D02*
X135621485Y-60309523D01*
X160261904Y-75454819D02*
X160261904Y-76264342D01*
X160261904Y-76264342D02*
X160214285Y-76359580D01*
X160214285Y-76359580D02*
X160166666Y-76407200D01*
X160166666Y-76407200D02*
X160071428Y-76454819D01*
X160071428Y-76454819D02*
X159880952Y-76454819D01*
X159880952Y-76454819D02*
X159785714Y-76407200D01*
X159785714Y-76407200D02*
X159738095Y-76359580D01*
X159738095Y-76359580D02*
X159690476Y-76264342D01*
X159690476Y-76264342D02*
X159690476Y-75454819D01*
X159261904Y-75550057D02*
X159214285Y-75502438D01*
X159214285Y-75502438D02*
X159119047Y-75454819D01*
X159119047Y-75454819D02*
X158880952Y-75454819D01*
X158880952Y-75454819D02*
X158785714Y-75502438D01*
X158785714Y-75502438D02*
X158738095Y-75550057D01*
X158738095Y-75550057D02*
X158690476Y-75645295D01*
X158690476Y-75645295D02*
X158690476Y-75740533D01*
X158690476Y-75740533D02*
X158738095Y-75883390D01*
X158738095Y-75883390D02*
X159309523Y-76454819D01*
X159309523Y-76454819D02*
X158690476Y-76454819D01*
X131754819Y-73468095D02*
X132564342Y-73468095D01*
X132564342Y-73468095D02*
X132659580Y-73515714D01*
X132659580Y-73515714D02*
X132707200Y-73563333D01*
X132707200Y-73563333D02*
X132754819Y-73658571D01*
X132754819Y-73658571D02*
X132754819Y-73849047D01*
X132754819Y-73849047D02*
X132707200Y-73944285D01*
X132707200Y-73944285D02*
X132659580Y-73991904D01*
X132659580Y-73991904D02*
X132564342Y-74039523D01*
X132564342Y-74039523D02*
X131754819Y-74039523D01*
X131754819Y-74944285D02*
X131754819Y-74753809D01*
X131754819Y-74753809D02*
X131802438Y-74658571D01*
X131802438Y-74658571D02*
X131850057Y-74610952D01*
X131850057Y-74610952D02*
X131992914Y-74515714D01*
X131992914Y-74515714D02*
X132183390Y-74468095D01*
X132183390Y-74468095D02*
X132564342Y-74468095D01*
X132564342Y-74468095D02*
X132659580Y-74515714D01*
X132659580Y-74515714D02*
X132707200Y-74563333D01*
X132707200Y-74563333D02*
X132754819Y-74658571D01*
X132754819Y-74658571D02*
X132754819Y-74849047D01*
X132754819Y-74849047D02*
X132707200Y-74944285D01*
X132707200Y-74944285D02*
X132659580Y-74991904D01*
X132659580Y-74991904D02*
X132564342Y-75039523D01*
X132564342Y-75039523D02*
X132326247Y-75039523D01*
X132326247Y-75039523D02*
X132231009Y-74991904D01*
X132231009Y-74991904D02*
X132183390Y-74944285D01*
X132183390Y-74944285D02*
X132135771Y-74849047D01*
X132135771Y-74849047D02*
X132135771Y-74658571D01*
X132135771Y-74658571D02*
X132183390Y-74563333D01*
X132183390Y-74563333D02*
X132231009Y-74515714D01*
X132231009Y-74515714D02*
X132326247Y-74468095D01*
X129166666Y-67954819D02*
X129499999Y-67478628D01*
X129738094Y-67954819D02*
X129738094Y-66954819D01*
X129738094Y-66954819D02*
X129357142Y-66954819D01*
X129357142Y-66954819D02*
X129261904Y-67002438D01*
X129261904Y-67002438D02*
X129214285Y-67050057D01*
X129214285Y-67050057D02*
X129166666Y-67145295D01*
X129166666Y-67145295D02*
X129166666Y-67288152D01*
X129166666Y-67288152D02*
X129214285Y-67383390D01*
X129214285Y-67383390D02*
X129261904Y-67431009D01*
X129261904Y-67431009D02*
X129357142Y-67478628D01*
X129357142Y-67478628D02*
X129738094Y-67478628D01*
X128309523Y-66954819D02*
X128499999Y-66954819D01*
X128499999Y-66954819D02*
X128595237Y-67002438D01*
X128595237Y-67002438D02*
X128642856Y-67050057D01*
X128642856Y-67050057D02*
X128738094Y-67192914D01*
X128738094Y-67192914D02*
X128785713Y-67383390D01*
X128785713Y-67383390D02*
X128785713Y-67764342D01*
X128785713Y-67764342D02*
X128738094Y-67859580D01*
X128738094Y-67859580D02*
X128690475Y-67907200D01*
X128690475Y-67907200D02*
X128595237Y-67954819D01*
X128595237Y-67954819D02*
X128404761Y-67954819D01*
X128404761Y-67954819D02*
X128309523Y-67907200D01*
X128309523Y-67907200D02*
X128261904Y-67859580D01*
X128261904Y-67859580D02*
X128214285Y-67764342D01*
X128214285Y-67764342D02*
X128214285Y-67526247D01*
X128214285Y-67526247D02*
X128261904Y-67431009D01*
X128261904Y-67431009D02*
X128309523Y-67383390D01*
X128309523Y-67383390D02*
X128404761Y-67335771D01*
X128404761Y-67335771D02*
X128595237Y-67335771D01*
X128595237Y-67335771D02*
X128690475Y-67383390D01*
X128690475Y-67383390D02*
X128738094Y-67431009D01*
X128738094Y-67431009D02*
X128785713Y-67526247D01*
X139054819Y-88928095D02*
X139864342Y-88928095D01*
X139864342Y-88928095D02*
X139959580Y-88975714D01*
X139959580Y-88975714D02*
X140007200Y-89023333D01*
X140007200Y-89023333D02*
X140054819Y-89118571D01*
X140054819Y-89118571D02*
X140054819Y-89309047D01*
X140054819Y-89309047D02*
X140007200Y-89404285D01*
X140007200Y-89404285D02*
X139959580Y-89451904D01*
X139959580Y-89451904D02*
X139864342Y-89499523D01*
X139864342Y-89499523D02*
X139054819Y-89499523D01*
X140054819Y-90499523D02*
X140054819Y-89928095D01*
X140054819Y-90213809D02*
X139054819Y-90213809D01*
X139054819Y-90213809D02*
X139197676Y-90118571D01*
X139197676Y-90118571D02*
X139292914Y-90023333D01*
X139292914Y-90023333D02*
X139340533Y-89928095D01*
X114954819Y-54833333D02*
X114478628Y-54500000D01*
X114954819Y-54261905D02*
X113954819Y-54261905D01*
X113954819Y-54261905D02*
X113954819Y-54642857D01*
X113954819Y-54642857D02*
X114002438Y-54738095D01*
X114002438Y-54738095D02*
X114050057Y-54785714D01*
X114050057Y-54785714D02*
X114145295Y-54833333D01*
X114145295Y-54833333D02*
X114288152Y-54833333D01*
X114288152Y-54833333D02*
X114383390Y-54785714D01*
X114383390Y-54785714D02*
X114431009Y-54738095D01*
X114431009Y-54738095D02*
X114478628Y-54642857D01*
X114478628Y-54642857D02*
X114478628Y-54261905D01*
X114383390Y-55404762D02*
X114335771Y-55309524D01*
X114335771Y-55309524D02*
X114288152Y-55261905D01*
X114288152Y-55261905D02*
X114192914Y-55214286D01*
X114192914Y-55214286D02*
X114145295Y-55214286D01*
X114145295Y-55214286D02*
X114050057Y-55261905D01*
X114050057Y-55261905D02*
X114002438Y-55309524D01*
X114002438Y-55309524D02*
X113954819Y-55404762D01*
X113954819Y-55404762D02*
X113954819Y-55595238D01*
X113954819Y-55595238D02*
X114002438Y-55690476D01*
X114002438Y-55690476D02*
X114050057Y-55738095D01*
X114050057Y-55738095D02*
X114145295Y-55785714D01*
X114145295Y-55785714D02*
X114192914Y-55785714D01*
X114192914Y-55785714D02*
X114288152Y-55738095D01*
X114288152Y-55738095D02*
X114335771Y-55690476D01*
X114335771Y-55690476D02*
X114383390Y-55595238D01*
X114383390Y-55595238D02*
X114383390Y-55404762D01*
X114383390Y-55404762D02*
X114431009Y-55309524D01*
X114431009Y-55309524D02*
X114478628Y-55261905D01*
X114478628Y-55261905D02*
X114573866Y-55214286D01*
X114573866Y-55214286D02*
X114764342Y-55214286D01*
X114764342Y-55214286D02*
X114859580Y-55261905D01*
X114859580Y-55261905D02*
X114907200Y-55309524D01*
X114907200Y-55309524D02*
X114954819Y-55404762D01*
X114954819Y-55404762D02*
X114954819Y-55595238D01*
X114954819Y-55595238D02*
X114907200Y-55690476D01*
X114907200Y-55690476D02*
X114859580Y-55738095D01*
X114859580Y-55738095D02*
X114764342Y-55785714D01*
X114764342Y-55785714D02*
X114573866Y-55785714D01*
X114573866Y-55785714D02*
X114478628Y-55738095D01*
X114478628Y-55738095D02*
X114431009Y-55690476D01*
X114431009Y-55690476D02*
X114383390Y-55595238D01*
X134359580Y-77833333D02*
X134407200Y-77785714D01*
X134407200Y-77785714D02*
X134454819Y-77642857D01*
X134454819Y-77642857D02*
X134454819Y-77547619D01*
X134454819Y-77547619D02*
X134407200Y-77404762D01*
X134407200Y-77404762D02*
X134311961Y-77309524D01*
X134311961Y-77309524D02*
X134216723Y-77261905D01*
X134216723Y-77261905D02*
X134026247Y-77214286D01*
X134026247Y-77214286D02*
X133883390Y-77214286D01*
X133883390Y-77214286D02*
X133692914Y-77261905D01*
X133692914Y-77261905D02*
X133597676Y-77309524D01*
X133597676Y-77309524D02*
X133502438Y-77404762D01*
X133502438Y-77404762D02*
X133454819Y-77547619D01*
X133454819Y-77547619D02*
X133454819Y-77642857D01*
X133454819Y-77642857D02*
X133502438Y-77785714D01*
X133502438Y-77785714D02*
X133550057Y-77833333D01*
X133454819Y-78166667D02*
X133454819Y-78833333D01*
X133454819Y-78833333D02*
X134454819Y-78404762D01*
X109454819Y-85357142D02*
X108978628Y-85023809D01*
X109454819Y-84785714D02*
X108454819Y-84785714D01*
X108454819Y-84785714D02*
X108454819Y-85166666D01*
X108454819Y-85166666D02*
X108502438Y-85261904D01*
X108502438Y-85261904D02*
X108550057Y-85309523D01*
X108550057Y-85309523D02*
X108645295Y-85357142D01*
X108645295Y-85357142D02*
X108788152Y-85357142D01*
X108788152Y-85357142D02*
X108883390Y-85309523D01*
X108883390Y-85309523D02*
X108931009Y-85261904D01*
X108931009Y-85261904D02*
X108978628Y-85166666D01*
X108978628Y-85166666D02*
X108978628Y-84785714D01*
X109454819Y-86309523D02*
X109454819Y-85738095D01*
X109454819Y-86023809D02*
X108454819Y-86023809D01*
X108454819Y-86023809D02*
X108597676Y-85928571D01*
X108597676Y-85928571D02*
X108692914Y-85833333D01*
X108692914Y-85833333D02*
X108740533Y-85738095D01*
X108550057Y-86690476D02*
X108502438Y-86738095D01*
X108502438Y-86738095D02*
X108454819Y-86833333D01*
X108454819Y-86833333D02*
X108454819Y-87071428D01*
X108454819Y-87071428D02*
X108502438Y-87166666D01*
X108502438Y-87166666D02*
X108550057Y-87214285D01*
X108550057Y-87214285D02*
X108645295Y-87261904D01*
X108645295Y-87261904D02*
X108740533Y-87261904D01*
X108740533Y-87261904D02*
X108883390Y-87214285D01*
X108883390Y-87214285D02*
X109454819Y-86642857D01*
X109454819Y-86642857D02*
X109454819Y-87261904D01*
X132716666Y-86454819D02*
X133049999Y-85978628D01*
X133288094Y-86454819D02*
X133288094Y-85454819D01*
X133288094Y-85454819D02*
X132907142Y-85454819D01*
X132907142Y-85454819D02*
X132811904Y-85502438D01*
X132811904Y-85502438D02*
X132764285Y-85550057D01*
X132764285Y-85550057D02*
X132716666Y-85645295D01*
X132716666Y-85645295D02*
X132716666Y-85788152D01*
X132716666Y-85788152D02*
X132764285Y-85883390D01*
X132764285Y-85883390D02*
X132811904Y-85931009D01*
X132811904Y-85931009D02*
X132907142Y-85978628D01*
X132907142Y-85978628D02*
X133288094Y-85978628D01*
X132240475Y-86454819D02*
X132049999Y-86454819D01*
X132049999Y-86454819D02*
X131954761Y-86407200D01*
X131954761Y-86407200D02*
X131907142Y-86359580D01*
X131907142Y-86359580D02*
X131811904Y-86216723D01*
X131811904Y-86216723D02*
X131764285Y-86026247D01*
X131764285Y-86026247D02*
X131764285Y-85645295D01*
X131764285Y-85645295D02*
X131811904Y-85550057D01*
X131811904Y-85550057D02*
X131859523Y-85502438D01*
X131859523Y-85502438D02*
X131954761Y-85454819D01*
X131954761Y-85454819D02*
X132145237Y-85454819D01*
X132145237Y-85454819D02*
X132240475Y-85502438D01*
X132240475Y-85502438D02*
X132288094Y-85550057D01*
X132288094Y-85550057D02*
X132335713Y-85645295D01*
X132335713Y-85645295D02*
X132335713Y-85883390D01*
X132335713Y-85883390D02*
X132288094Y-85978628D01*
X132288094Y-85978628D02*
X132240475Y-86026247D01*
X132240475Y-86026247D02*
X132145237Y-86073866D01*
X132145237Y-86073866D02*
X131954761Y-86073866D01*
X131954761Y-86073866D02*
X131859523Y-86026247D01*
X131859523Y-86026247D02*
X131811904Y-85978628D01*
X131811904Y-85978628D02*
X131764285Y-85883390D01*
X151142857Y-52454819D02*
X151476190Y-51978628D01*
X151714285Y-52454819D02*
X151714285Y-51454819D01*
X151714285Y-51454819D02*
X151333333Y-51454819D01*
X151333333Y-51454819D02*
X151238095Y-51502438D01*
X151238095Y-51502438D02*
X151190476Y-51550057D01*
X151190476Y-51550057D02*
X151142857Y-51645295D01*
X151142857Y-51645295D02*
X151142857Y-51788152D01*
X151142857Y-51788152D02*
X151190476Y-51883390D01*
X151190476Y-51883390D02*
X151238095Y-51931009D01*
X151238095Y-51931009D02*
X151333333Y-51978628D01*
X151333333Y-51978628D02*
X151714285Y-51978628D01*
X150190476Y-52454819D02*
X150761904Y-52454819D01*
X150476190Y-52454819D02*
X150476190Y-51454819D01*
X150476190Y-51454819D02*
X150571428Y-51597676D01*
X150571428Y-51597676D02*
X150666666Y-51692914D01*
X150666666Y-51692914D02*
X150761904Y-51740533D01*
X149333333Y-51454819D02*
X149523809Y-51454819D01*
X149523809Y-51454819D02*
X149619047Y-51502438D01*
X149619047Y-51502438D02*
X149666666Y-51550057D01*
X149666666Y-51550057D02*
X149761904Y-51692914D01*
X149761904Y-51692914D02*
X149809523Y-51883390D01*
X149809523Y-51883390D02*
X149809523Y-52264342D01*
X149809523Y-52264342D02*
X149761904Y-52359580D01*
X149761904Y-52359580D02*
X149714285Y-52407200D01*
X149714285Y-52407200D02*
X149619047Y-52454819D01*
X149619047Y-52454819D02*
X149428571Y-52454819D01*
X149428571Y-52454819D02*
X149333333Y-52407200D01*
X149333333Y-52407200D02*
X149285714Y-52359580D01*
X149285714Y-52359580D02*
X149238095Y-52264342D01*
X149238095Y-52264342D02*
X149238095Y-52026247D01*
X149238095Y-52026247D02*
X149285714Y-51931009D01*
X149285714Y-51931009D02*
X149333333Y-51883390D01*
X149333333Y-51883390D02*
X149428571Y-51835771D01*
X149428571Y-51835771D02*
X149619047Y-51835771D01*
X149619047Y-51835771D02*
X149714285Y-51883390D01*
X149714285Y-51883390D02*
X149761904Y-51931009D01*
X149761904Y-51931009D02*
X149809523Y-52026247D01*
X105142857Y-52454819D02*
X105476190Y-51978628D01*
X105714285Y-52454819D02*
X105714285Y-51454819D01*
X105714285Y-51454819D02*
X105333333Y-51454819D01*
X105333333Y-51454819D02*
X105238095Y-51502438D01*
X105238095Y-51502438D02*
X105190476Y-51550057D01*
X105190476Y-51550057D02*
X105142857Y-51645295D01*
X105142857Y-51645295D02*
X105142857Y-51788152D01*
X105142857Y-51788152D02*
X105190476Y-51883390D01*
X105190476Y-51883390D02*
X105238095Y-51931009D01*
X105238095Y-51931009D02*
X105333333Y-51978628D01*
X105333333Y-51978628D02*
X105714285Y-51978628D01*
X104190476Y-52454819D02*
X104761904Y-52454819D01*
X104476190Y-52454819D02*
X104476190Y-51454819D01*
X104476190Y-51454819D02*
X104571428Y-51597676D01*
X104571428Y-51597676D02*
X104666666Y-51692914D01*
X104666666Y-51692914D02*
X104761904Y-51740533D01*
X103238095Y-52454819D02*
X103809523Y-52454819D01*
X103523809Y-52454819D02*
X103523809Y-51454819D01*
X103523809Y-51454819D02*
X103619047Y-51597676D01*
X103619047Y-51597676D02*
X103714285Y-51692914D01*
X103714285Y-51692914D02*
X103809523Y-51740533D01*
X170833333Y-76254819D02*
X170833333Y-76969104D01*
X170833333Y-76969104D02*
X170880952Y-77111961D01*
X170880952Y-77111961D02*
X170976190Y-77207200D01*
X170976190Y-77207200D02*
X171119047Y-77254819D01*
X171119047Y-77254819D02*
X171214285Y-77254819D01*
X170357142Y-77254819D02*
X170357142Y-76254819D01*
X170357142Y-76254819D02*
X169976190Y-76254819D01*
X169976190Y-76254819D02*
X169880952Y-76302438D01*
X169880952Y-76302438D02*
X169833333Y-76350057D01*
X169833333Y-76350057D02*
X169785714Y-76445295D01*
X169785714Y-76445295D02*
X169785714Y-76588152D01*
X169785714Y-76588152D02*
X169833333Y-76683390D01*
X169833333Y-76683390D02*
X169880952Y-76731009D01*
X169880952Y-76731009D02*
X169976190Y-76778628D01*
X169976190Y-76778628D02*
X170357142Y-76778628D01*
X169452380Y-76254819D02*
X168833333Y-76254819D01*
X168833333Y-76254819D02*
X169166666Y-76635771D01*
X169166666Y-76635771D02*
X169023809Y-76635771D01*
X169023809Y-76635771D02*
X168928571Y-76683390D01*
X168928571Y-76683390D02*
X168880952Y-76731009D01*
X168880952Y-76731009D02*
X168833333Y-76826247D01*
X168833333Y-76826247D02*
X168833333Y-77064342D01*
X168833333Y-77064342D02*
X168880952Y-77159580D01*
X168880952Y-77159580D02*
X168928571Y-77207200D01*
X168928571Y-77207200D02*
X169023809Y-77254819D01*
X169023809Y-77254819D02*
X169309523Y-77254819D01*
X169309523Y-77254819D02*
X169404761Y-77207200D01*
X169404761Y-77207200D02*
X169452380Y-77159580D01*
X100666666Y-103859580D02*
X100714285Y-103907200D01*
X100714285Y-103907200D02*
X100857142Y-103954819D01*
X100857142Y-103954819D02*
X100952380Y-103954819D01*
X100952380Y-103954819D02*
X101095237Y-103907200D01*
X101095237Y-103907200D02*
X101190475Y-103811961D01*
X101190475Y-103811961D02*
X101238094Y-103716723D01*
X101238094Y-103716723D02*
X101285713Y-103526247D01*
X101285713Y-103526247D02*
X101285713Y-103383390D01*
X101285713Y-103383390D02*
X101238094Y-103192914D01*
X101238094Y-103192914D02*
X101190475Y-103097676D01*
X101190475Y-103097676D02*
X101095237Y-103002438D01*
X101095237Y-103002438D02*
X100952380Y-102954819D01*
X100952380Y-102954819D02*
X100857142Y-102954819D01*
X100857142Y-102954819D02*
X100714285Y-103002438D01*
X100714285Y-103002438D02*
X100666666Y-103050057D01*
X99714285Y-103954819D02*
X100285713Y-103954819D01*
X99999999Y-103954819D02*
X99999999Y-102954819D01*
X99999999Y-102954819D02*
X100095237Y-103097676D01*
X100095237Y-103097676D02*
X100190475Y-103192914D01*
X100190475Y-103192914D02*
X100285713Y-103240533D01*
X160359580Y-79333333D02*
X160407200Y-79285714D01*
X160407200Y-79285714D02*
X160454819Y-79142857D01*
X160454819Y-79142857D02*
X160454819Y-79047619D01*
X160454819Y-79047619D02*
X160407200Y-78904762D01*
X160407200Y-78904762D02*
X160311961Y-78809524D01*
X160311961Y-78809524D02*
X160216723Y-78761905D01*
X160216723Y-78761905D02*
X160026247Y-78714286D01*
X160026247Y-78714286D02*
X159883390Y-78714286D01*
X159883390Y-78714286D02*
X159692914Y-78761905D01*
X159692914Y-78761905D02*
X159597676Y-78809524D01*
X159597676Y-78809524D02*
X159502438Y-78904762D01*
X159502438Y-78904762D02*
X159454819Y-79047619D01*
X159454819Y-79047619D02*
X159454819Y-79142857D01*
X159454819Y-79142857D02*
X159502438Y-79285714D01*
X159502438Y-79285714D02*
X159550057Y-79333333D01*
X159883390Y-79904762D02*
X159835771Y-79809524D01*
X159835771Y-79809524D02*
X159788152Y-79761905D01*
X159788152Y-79761905D02*
X159692914Y-79714286D01*
X159692914Y-79714286D02*
X159645295Y-79714286D01*
X159645295Y-79714286D02*
X159550057Y-79761905D01*
X159550057Y-79761905D02*
X159502438Y-79809524D01*
X159502438Y-79809524D02*
X159454819Y-79904762D01*
X159454819Y-79904762D02*
X159454819Y-80095238D01*
X159454819Y-80095238D02*
X159502438Y-80190476D01*
X159502438Y-80190476D02*
X159550057Y-80238095D01*
X159550057Y-80238095D02*
X159645295Y-80285714D01*
X159645295Y-80285714D02*
X159692914Y-80285714D01*
X159692914Y-80285714D02*
X159788152Y-80238095D01*
X159788152Y-80238095D02*
X159835771Y-80190476D01*
X159835771Y-80190476D02*
X159883390Y-80095238D01*
X159883390Y-80095238D02*
X159883390Y-79904762D01*
X159883390Y-79904762D02*
X159931009Y-79809524D01*
X159931009Y-79809524D02*
X159978628Y-79761905D01*
X159978628Y-79761905D02*
X160073866Y-79714286D01*
X160073866Y-79714286D02*
X160264342Y-79714286D01*
X160264342Y-79714286D02*
X160359580Y-79761905D01*
X160359580Y-79761905D02*
X160407200Y-79809524D01*
X160407200Y-79809524D02*
X160454819Y-79904762D01*
X160454819Y-79904762D02*
X160454819Y-80095238D01*
X160454819Y-80095238D02*
X160407200Y-80190476D01*
X160407200Y-80190476D02*
X160359580Y-80238095D01*
X160359580Y-80238095D02*
X160264342Y-80285714D01*
X160264342Y-80285714D02*
X160073866Y-80285714D01*
X160073866Y-80285714D02*
X159978628Y-80238095D01*
X159978628Y-80238095D02*
X159931009Y-80190476D01*
X159931009Y-80190476D02*
X159883390Y-80095238D01*
X139859580Y-103857142D02*
X139907200Y-103809523D01*
X139907200Y-103809523D02*
X139954819Y-103666666D01*
X139954819Y-103666666D02*
X139954819Y-103571428D01*
X139954819Y-103571428D02*
X139907200Y-103428571D01*
X139907200Y-103428571D02*
X139811961Y-103333333D01*
X139811961Y-103333333D02*
X139716723Y-103285714D01*
X139716723Y-103285714D02*
X139526247Y-103238095D01*
X139526247Y-103238095D02*
X139383390Y-103238095D01*
X139383390Y-103238095D02*
X139192914Y-103285714D01*
X139192914Y-103285714D02*
X139097676Y-103333333D01*
X139097676Y-103333333D02*
X139002438Y-103428571D01*
X139002438Y-103428571D02*
X138954819Y-103571428D01*
X138954819Y-103571428D02*
X138954819Y-103666666D01*
X138954819Y-103666666D02*
X139002438Y-103809523D01*
X139002438Y-103809523D02*
X139050057Y-103857142D01*
X139954819Y-104809523D02*
X139954819Y-104238095D01*
X139954819Y-104523809D02*
X138954819Y-104523809D01*
X138954819Y-104523809D02*
X139097676Y-104428571D01*
X139097676Y-104428571D02*
X139192914Y-104333333D01*
X139192914Y-104333333D02*
X139240533Y-104238095D01*
X139050057Y-105190476D02*
X139002438Y-105238095D01*
X139002438Y-105238095D02*
X138954819Y-105333333D01*
X138954819Y-105333333D02*
X138954819Y-105571428D01*
X138954819Y-105571428D02*
X139002438Y-105666666D01*
X139002438Y-105666666D02*
X139050057Y-105714285D01*
X139050057Y-105714285D02*
X139145295Y-105761904D01*
X139145295Y-105761904D02*
X139240533Y-105761904D01*
X139240533Y-105761904D02*
X139383390Y-105714285D01*
X139383390Y-105714285D02*
X139954819Y-105142857D01*
X139954819Y-105142857D02*
X139954819Y-105761904D01*
X161859580Y-97357142D02*
X161907200Y-97309523D01*
X161907200Y-97309523D02*
X161954819Y-97166666D01*
X161954819Y-97166666D02*
X161954819Y-97071428D01*
X161954819Y-97071428D02*
X161907200Y-96928571D01*
X161907200Y-96928571D02*
X161811961Y-96833333D01*
X161811961Y-96833333D02*
X161716723Y-96785714D01*
X161716723Y-96785714D02*
X161526247Y-96738095D01*
X161526247Y-96738095D02*
X161383390Y-96738095D01*
X161383390Y-96738095D02*
X161192914Y-96785714D01*
X161192914Y-96785714D02*
X161097676Y-96833333D01*
X161097676Y-96833333D02*
X161002438Y-96928571D01*
X161002438Y-96928571D02*
X160954819Y-97071428D01*
X160954819Y-97071428D02*
X160954819Y-97166666D01*
X160954819Y-97166666D02*
X161002438Y-97309523D01*
X161002438Y-97309523D02*
X161050057Y-97357142D01*
X161954819Y-98309523D02*
X161954819Y-97738095D01*
X161954819Y-98023809D02*
X160954819Y-98023809D01*
X160954819Y-98023809D02*
X161097676Y-97928571D01*
X161097676Y-97928571D02*
X161192914Y-97833333D01*
X161192914Y-97833333D02*
X161240533Y-97738095D01*
X160954819Y-99214285D02*
X160954819Y-98738095D01*
X160954819Y-98738095D02*
X161431009Y-98690476D01*
X161431009Y-98690476D02*
X161383390Y-98738095D01*
X161383390Y-98738095D02*
X161335771Y-98833333D01*
X161335771Y-98833333D02*
X161335771Y-99071428D01*
X161335771Y-99071428D02*
X161383390Y-99166666D01*
X161383390Y-99166666D02*
X161431009Y-99214285D01*
X161431009Y-99214285D02*
X161526247Y-99261904D01*
X161526247Y-99261904D02*
X161764342Y-99261904D01*
X161764342Y-99261904D02*
X161859580Y-99214285D01*
X161859580Y-99214285D02*
X161907200Y-99166666D01*
X161907200Y-99166666D02*
X161954819Y-99071428D01*
X161954819Y-99071428D02*
X161954819Y-98833333D01*
X161954819Y-98833333D02*
X161907200Y-98738095D01*
X161907200Y-98738095D02*
X161859580Y-98690476D01*
X129142857Y-65954819D02*
X129476190Y-65478628D01*
X129714285Y-65954819D02*
X129714285Y-64954819D01*
X129714285Y-64954819D02*
X129333333Y-64954819D01*
X129333333Y-64954819D02*
X129238095Y-65002438D01*
X129238095Y-65002438D02*
X129190476Y-65050057D01*
X129190476Y-65050057D02*
X129142857Y-65145295D01*
X129142857Y-65145295D02*
X129142857Y-65288152D01*
X129142857Y-65288152D02*
X129190476Y-65383390D01*
X129190476Y-65383390D02*
X129238095Y-65431009D01*
X129238095Y-65431009D02*
X129333333Y-65478628D01*
X129333333Y-65478628D02*
X129714285Y-65478628D01*
X128190476Y-65954819D02*
X128761904Y-65954819D01*
X128476190Y-65954819D02*
X128476190Y-64954819D01*
X128476190Y-64954819D02*
X128571428Y-65097676D01*
X128571428Y-65097676D02*
X128666666Y-65192914D01*
X128666666Y-65192914D02*
X128761904Y-65240533D01*
X127857142Y-64954819D02*
X127238095Y-64954819D01*
X127238095Y-64954819D02*
X127571428Y-65335771D01*
X127571428Y-65335771D02*
X127428571Y-65335771D01*
X127428571Y-65335771D02*
X127333333Y-65383390D01*
X127333333Y-65383390D02*
X127285714Y-65431009D01*
X127285714Y-65431009D02*
X127238095Y-65526247D01*
X127238095Y-65526247D02*
X127238095Y-65764342D01*
X127238095Y-65764342D02*
X127285714Y-65859580D01*
X127285714Y-65859580D02*
X127333333Y-65907200D01*
X127333333Y-65907200D02*
X127428571Y-65954819D01*
X127428571Y-65954819D02*
X127714285Y-65954819D01*
X127714285Y-65954819D02*
X127809523Y-65907200D01*
X127809523Y-65907200D02*
X127857142Y-65859580D01*
X171236904Y-84549819D02*
X171236904Y-85359342D01*
X171236904Y-85359342D02*
X171189285Y-85454580D01*
X171189285Y-85454580D02*
X171141666Y-85502200D01*
X171141666Y-85502200D02*
X171046428Y-85549819D01*
X171046428Y-85549819D02*
X170855952Y-85549819D01*
X170855952Y-85549819D02*
X170760714Y-85502200D01*
X170760714Y-85502200D02*
X170713095Y-85454580D01*
X170713095Y-85454580D02*
X170665476Y-85359342D01*
X170665476Y-85359342D02*
X170665476Y-84549819D01*
X169760714Y-84883152D02*
X169760714Y-85549819D01*
X169998809Y-84502200D02*
X170236904Y-85216485D01*
X170236904Y-85216485D02*
X169617857Y-85216485D01*
X125032738Y-59550057D02*
X125127976Y-59502438D01*
X125127976Y-59502438D02*
X125223214Y-59407200D01*
X125223214Y-59407200D02*
X125366071Y-59264342D01*
X125366071Y-59264342D02*
X125461309Y-59216723D01*
X125461309Y-59216723D02*
X125556547Y-59216723D01*
X125508928Y-59454819D02*
X125604166Y-59407200D01*
X125604166Y-59407200D02*
X125699404Y-59311961D01*
X125699404Y-59311961D02*
X125747023Y-59121485D01*
X125747023Y-59121485D02*
X125747023Y-58788152D01*
X125747023Y-58788152D02*
X125699404Y-58597676D01*
X125699404Y-58597676D02*
X125604166Y-58502438D01*
X125604166Y-58502438D02*
X125508928Y-58454819D01*
X125508928Y-58454819D02*
X125318452Y-58454819D01*
X125318452Y-58454819D02*
X125223214Y-58502438D01*
X125223214Y-58502438D02*
X125127976Y-58597676D01*
X125127976Y-58597676D02*
X125080357Y-58788152D01*
X125080357Y-58788152D02*
X125080357Y-59121485D01*
X125080357Y-59121485D02*
X125127976Y-59311961D01*
X125127976Y-59311961D02*
X125223214Y-59407200D01*
X125223214Y-59407200D02*
X125318452Y-59454819D01*
X125318452Y-59454819D02*
X125508928Y-59454819D01*
X124223214Y-58788152D02*
X124223214Y-59454819D01*
X124461309Y-58407200D02*
X124699404Y-59121485D01*
X124699404Y-59121485D02*
X124080357Y-59121485D01*
X185454819Y-51761905D02*
X184454819Y-51761905D01*
X184454819Y-51761905D02*
X184454819Y-52000000D01*
X184454819Y-52000000D02*
X184502438Y-52142857D01*
X184502438Y-52142857D02*
X184597676Y-52238095D01*
X184597676Y-52238095D02*
X184692914Y-52285714D01*
X184692914Y-52285714D02*
X184883390Y-52333333D01*
X184883390Y-52333333D02*
X185026247Y-52333333D01*
X185026247Y-52333333D02*
X185216723Y-52285714D01*
X185216723Y-52285714D02*
X185311961Y-52238095D01*
X185311961Y-52238095D02*
X185407200Y-52142857D01*
X185407200Y-52142857D02*
X185454819Y-52000000D01*
X185454819Y-52000000D02*
X185454819Y-51761905D01*
X184454819Y-52666667D02*
X184454819Y-53333333D01*
X184454819Y-53333333D02*
X185454819Y-52904762D01*
X109454819Y-71261905D02*
X108454819Y-71261905D01*
X108454819Y-71261905D02*
X108454819Y-71500000D01*
X108454819Y-71500000D02*
X108502438Y-71642857D01*
X108502438Y-71642857D02*
X108597676Y-71738095D01*
X108597676Y-71738095D02*
X108692914Y-71785714D01*
X108692914Y-71785714D02*
X108883390Y-71833333D01*
X108883390Y-71833333D02*
X109026247Y-71833333D01*
X109026247Y-71833333D02*
X109216723Y-71785714D01*
X109216723Y-71785714D02*
X109311961Y-71738095D01*
X109311961Y-71738095D02*
X109407200Y-71642857D01*
X109407200Y-71642857D02*
X109454819Y-71500000D01*
X109454819Y-71500000D02*
X109454819Y-71261905D01*
X108550057Y-72214286D02*
X108502438Y-72261905D01*
X108502438Y-72261905D02*
X108454819Y-72357143D01*
X108454819Y-72357143D02*
X108454819Y-72595238D01*
X108454819Y-72595238D02*
X108502438Y-72690476D01*
X108502438Y-72690476D02*
X108550057Y-72738095D01*
X108550057Y-72738095D02*
X108645295Y-72785714D01*
X108645295Y-72785714D02*
X108740533Y-72785714D01*
X108740533Y-72785714D02*
X108883390Y-72738095D01*
X108883390Y-72738095D02*
X109454819Y-72166667D01*
X109454819Y-72166667D02*
X109454819Y-72785714D01*
X110050057Y-57529761D02*
X110002438Y-57434523D01*
X110002438Y-57434523D02*
X109907200Y-57339285D01*
X109907200Y-57339285D02*
X109764342Y-57196428D01*
X109764342Y-57196428D02*
X109716723Y-57101190D01*
X109716723Y-57101190D02*
X109716723Y-57005952D01*
X109954819Y-57053571D02*
X109907200Y-56958333D01*
X109907200Y-56958333D02*
X109811961Y-56863095D01*
X109811961Y-56863095D02*
X109621485Y-56815476D01*
X109621485Y-56815476D02*
X109288152Y-56815476D01*
X109288152Y-56815476D02*
X109097676Y-56863095D01*
X109097676Y-56863095D02*
X109002438Y-56958333D01*
X109002438Y-56958333D02*
X108954819Y-57053571D01*
X108954819Y-57053571D02*
X108954819Y-57244047D01*
X108954819Y-57244047D02*
X109002438Y-57339285D01*
X109002438Y-57339285D02*
X109097676Y-57434523D01*
X109097676Y-57434523D02*
X109288152Y-57482142D01*
X109288152Y-57482142D02*
X109621485Y-57482142D01*
X109621485Y-57482142D02*
X109811961Y-57434523D01*
X109811961Y-57434523D02*
X109907200Y-57339285D01*
X109907200Y-57339285D02*
X109954819Y-57244047D01*
X109954819Y-57244047D02*
X109954819Y-57053571D01*
X108954819Y-57815476D02*
X108954819Y-58434523D01*
X108954819Y-58434523D02*
X109335771Y-58101190D01*
X109335771Y-58101190D02*
X109335771Y-58244047D01*
X109335771Y-58244047D02*
X109383390Y-58339285D01*
X109383390Y-58339285D02*
X109431009Y-58386904D01*
X109431009Y-58386904D02*
X109526247Y-58434523D01*
X109526247Y-58434523D02*
X109764342Y-58434523D01*
X109764342Y-58434523D02*
X109859580Y-58386904D01*
X109859580Y-58386904D02*
X109907200Y-58339285D01*
X109907200Y-58339285D02*
X109954819Y-58244047D01*
X109954819Y-58244047D02*
X109954819Y-57958333D01*
X109954819Y-57958333D02*
X109907200Y-57863095D01*
X109907200Y-57863095D02*
X109859580Y-57815476D01*
X109454819Y-62261905D02*
X108454819Y-62261905D01*
X108454819Y-62261905D02*
X108454819Y-62500000D01*
X108454819Y-62500000D02*
X108502438Y-62642857D01*
X108502438Y-62642857D02*
X108597676Y-62738095D01*
X108597676Y-62738095D02*
X108692914Y-62785714D01*
X108692914Y-62785714D02*
X108883390Y-62833333D01*
X108883390Y-62833333D02*
X109026247Y-62833333D01*
X109026247Y-62833333D02*
X109216723Y-62785714D01*
X109216723Y-62785714D02*
X109311961Y-62738095D01*
X109311961Y-62738095D02*
X109407200Y-62642857D01*
X109407200Y-62642857D02*
X109454819Y-62500000D01*
X109454819Y-62500000D02*
X109454819Y-62261905D01*
X109454819Y-63785714D02*
X109454819Y-63214286D01*
X109454819Y-63500000D02*
X108454819Y-63500000D01*
X108454819Y-63500000D02*
X108597676Y-63404762D01*
X108597676Y-63404762D02*
X108692914Y-63309524D01*
X108692914Y-63309524D02*
X108740533Y-63214286D01*
X143142857Y-84359580D02*
X143190476Y-84407200D01*
X143190476Y-84407200D02*
X143333333Y-84454819D01*
X143333333Y-84454819D02*
X143428571Y-84454819D01*
X143428571Y-84454819D02*
X143571428Y-84407200D01*
X143571428Y-84407200D02*
X143666666Y-84311961D01*
X143666666Y-84311961D02*
X143714285Y-84216723D01*
X143714285Y-84216723D02*
X143761904Y-84026247D01*
X143761904Y-84026247D02*
X143761904Y-83883390D01*
X143761904Y-83883390D02*
X143714285Y-83692914D01*
X143714285Y-83692914D02*
X143666666Y-83597676D01*
X143666666Y-83597676D02*
X143571428Y-83502438D01*
X143571428Y-83502438D02*
X143428571Y-83454819D01*
X143428571Y-83454819D02*
X143333333Y-83454819D01*
X143333333Y-83454819D02*
X143190476Y-83502438D01*
X143190476Y-83502438D02*
X143142857Y-83550057D01*
X142190476Y-84454819D02*
X142761904Y-84454819D01*
X142476190Y-84454819D02*
X142476190Y-83454819D01*
X142476190Y-83454819D02*
X142571428Y-83597676D01*
X142571428Y-83597676D02*
X142666666Y-83692914D01*
X142666666Y-83692914D02*
X142761904Y-83740533D01*
X141333333Y-83788152D02*
X141333333Y-84454819D01*
X141571428Y-83407200D02*
X141809523Y-84121485D01*
X141809523Y-84121485D02*
X141190476Y-84121485D01*
X124431605Y-82359580D02*
X124479224Y-82407200D01*
X124479224Y-82407200D02*
X124622081Y-82454819D01*
X124622081Y-82454819D02*
X124717319Y-82454819D01*
X124717319Y-82454819D02*
X124860176Y-82407200D01*
X124860176Y-82407200D02*
X124955414Y-82311961D01*
X124955414Y-82311961D02*
X125003033Y-82216723D01*
X125003033Y-82216723D02*
X125050652Y-82026247D01*
X125050652Y-82026247D02*
X125050652Y-81883390D01*
X125050652Y-81883390D02*
X125003033Y-81692914D01*
X125003033Y-81692914D02*
X124955414Y-81597676D01*
X124955414Y-81597676D02*
X124860176Y-81502438D01*
X124860176Y-81502438D02*
X124717319Y-81454819D01*
X124717319Y-81454819D02*
X124622081Y-81454819D01*
X124622081Y-81454819D02*
X124479224Y-81502438D01*
X124479224Y-81502438D02*
X124431605Y-81550057D01*
X123479224Y-82454819D02*
X124050652Y-82454819D01*
X123764938Y-82454819D02*
X123764938Y-81454819D01*
X123764938Y-81454819D02*
X123860176Y-81597676D01*
X123860176Y-81597676D02*
X123955414Y-81692914D01*
X123955414Y-81692914D02*
X124050652Y-81740533D01*
X123145890Y-81454819D02*
X122526843Y-81454819D01*
X122526843Y-81454819D02*
X122860176Y-81835771D01*
X122860176Y-81835771D02*
X122717319Y-81835771D01*
X122717319Y-81835771D02*
X122622081Y-81883390D01*
X122622081Y-81883390D02*
X122574462Y-81931009D01*
X122574462Y-81931009D02*
X122526843Y-82026247D01*
X122526843Y-82026247D02*
X122526843Y-82264342D01*
X122526843Y-82264342D02*
X122574462Y-82359580D01*
X122574462Y-82359580D02*
X122622081Y-82407200D01*
X122622081Y-82407200D02*
X122717319Y-82454819D01*
X122717319Y-82454819D02*
X123003033Y-82454819D01*
X123003033Y-82454819D02*
X123098271Y-82407200D01*
X123098271Y-82407200D02*
X123145890Y-82359580D01*
X128142857Y-56454819D02*
X128476190Y-55978628D01*
X128714285Y-56454819D02*
X128714285Y-55454819D01*
X128714285Y-55454819D02*
X128333333Y-55454819D01*
X128333333Y-55454819D02*
X128238095Y-55502438D01*
X128238095Y-55502438D02*
X128190476Y-55550057D01*
X128190476Y-55550057D02*
X128142857Y-55645295D01*
X128142857Y-55645295D02*
X128142857Y-55788152D01*
X128142857Y-55788152D02*
X128190476Y-55883390D01*
X128190476Y-55883390D02*
X128238095Y-55931009D01*
X128238095Y-55931009D02*
X128333333Y-55978628D01*
X128333333Y-55978628D02*
X128714285Y-55978628D01*
X127190476Y-56454819D02*
X127761904Y-56454819D01*
X127476190Y-56454819D02*
X127476190Y-55454819D01*
X127476190Y-55454819D02*
X127571428Y-55597676D01*
X127571428Y-55597676D02*
X127666666Y-55692914D01*
X127666666Y-55692914D02*
X127761904Y-55740533D01*
X126571428Y-55454819D02*
X126476190Y-55454819D01*
X126476190Y-55454819D02*
X126380952Y-55502438D01*
X126380952Y-55502438D02*
X126333333Y-55550057D01*
X126333333Y-55550057D02*
X126285714Y-55645295D01*
X126285714Y-55645295D02*
X126238095Y-55835771D01*
X126238095Y-55835771D02*
X126238095Y-56073866D01*
X126238095Y-56073866D02*
X126285714Y-56264342D01*
X126285714Y-56264342D02*
X126333333Y-56359580D01*
X126333333Y-56359580D02*
X126380952Y-56407200D01*
X126380952Y-56407200D02*
X126476190Y-56454819D01*
X126476190Y-56454819D02*
X126571428Y-56454819D01*
X126571428Y-56454819D02*
X126666666Y-56407200D01*
X126666666Y-56407200D02*
X126714285Y-56359580D01*
X126714285Y-56359580D02*
X126761904Y-56264342D01*
X126761904Y-56264342D02*
X126809523Y-56073866D01*
X126809523Y-56073866D02*
X126809523Y-55835771D01*
X126809523Y-55835771D02*
X126761904Y-55645295D01*
X126761904Y-55645295D02*
X126714285Y-55550057D01*
X126714285Y-55550057D02*
X126666666Y-55502438D01*
X126666666Y-55502438D02*
X126571428Y-55454819D01*
X102788094Y-109954819D02*
X102788094Y-108954819D01*
X102788094Y-108954819D02*
X102549999Y-108954819D01*
X102549999Y-108954819D02*
X102407142Y-109002438D01*
X102407142Y-109002438D02*
X102311904Y-109097676D01*
X102311904Y-109097676D02*
X102264285Y-109192914D01*
X102264285Y-109192914D02*
X102216666Y-109383390D01*
X102216666Y-109383390D02*
X102216666Y-109526247D01*
X102216666Y-109526247D02*
X102264285Y-109716723D01*
X102264285Y-109716723D02*
X102311904Y-109811961D01*
X102311904Y-109811961D02*
X102407142Y-109907200D01*
X102407142Y-109907200D02*
X102549999Y-109954819D01*
X102549999Y-109954819D02*
X102788094Y-109954819D01*
X101883332Y-108954819D02*
X101264285Y-108954819D01*
X101264285Y-108954819D02*
X101597618Y-109335771D01*
X101597618Y-109335771D02*
X101454761Y-109335771D01*
X101454761Y-109335771D02*
X101359523Y-109383390D01*
X101359523Y-109383390D02*
X101311904Y-109431009D01*
X101311904Y-109431009D02*
X101264285Y-109526247D01*
X101264285Y-109526247D02*
X101264285Y-109764342D01*
X101264285Y-109764342D02*
X101311904Y-109859580D01*
X101311904Y-109859580D02*
X101359523Y-109907200D01*
X101359523Y-109907200D02*
X101454761Y-109954819D01*
X101454761Y-109954819D02*
X101740475Y-109954819D01*
X101740475Y-109954819D02*
X101835713Y-109907200D01*
X101835713Y-109907200D02*
X101883332Y-109859580D01*
X117595238Y-77050057D02*
X117690476Y-77002438D01*
X117690476Y-77002438D02*
X117785714Y-76907200D01*
X117785714Y-76907200D02*
X117928571Y-76764342D01*
X117928571Y-76764342D02*
X118023809Y-76716723D01*
X118023809Y-76716723D02*
X118119047Y-76716723D01*
X118071428Y-76954819D02*
X118166666Y-76907200D01*
X118166666Y-76907200D02*
X118261904Y-76811961D01*
X118261904Y-76811961D02*
X118309523Y-76621485D01*
X118309523Y-76621485D02*
X118309523Y-76288152D01*
X118309523Y-76288152D02*
X118261904Y-76097676D01*
X118261904Y-76097676D02*
X118166666Y-76002438D01*
X118166666Y-76002438D02*
X118071428Y-75954819D01*
X118071428Y-75954819D02*
X117880952Y-75954819D01*
X117880952Y-75954819D02*
X117785714Y-76002438D01*
X117785714Y-76002438D02*
X117690476Y-76097676D01*
X117690476Y-76097676D02*
X117642857Y-76288152D01*
X117642857Y-76288152D02*
X117642857Y-76621485D01*
X117642857Y-76621485D02*
X117690476Y-76811961D01*
X117690476Y-76811961D02*
X117785714Y-76907200D01*
X117785714Y-76907200D02*
X117880952Y-76954819D01*
X117880952Y-76954819D02*
X118071428Y-76954819D01*
X117261904Y-76050057D02*
X117214285Y-76002438D01*
X117214285Y-76002438D02*
X117119047Y-75954819D01*
X117119047Y-75954819D02*
X116880952Y-75954819D01*
X116880952Y-75954819D02*
X116785714Y-76002438D01*
X116785714Y-76002438D02*
X116738095Y-76050057D01*
X116738095Y-76050057D02*
X116690476Y-76145295D01*
X116690476Y-76145295D02*
X116690476Y-76240533D01*
X116690476Y-76240533D02*
X116738095Y-76383390D01*
X116738095Y-76383390D02*
X117309523Y-76954819D01*
X117309523Y-76954819D02*
X116690476Y-76954819D01*
X158134285Y-80954819D02*
X158134285Y-79954819D01*
X158134285Y-79954819D02*
X157896190Y-79954819D01*
X157896190Y-79954819D02*
X157753333Y-80002438D01*
X157753333Y-80002438D02*
X157658095Y-80097676D01*
X157658095Y-80097676D02*
X157610476Y-80192914D01*
X157610476Y-80192914D02*
X157562857Y-80383390D01*
X157562857Y-80383390D02*
X157562857Y-80526247D01*
X157562857Y-80526247D02*
X157610476Y-80716723D01*
X157610476Y-80716723D02*
X157658095Y-80811961D01*
X157658095Y-80811961D02*
X157753333Y-80907200D01*
X157753333Y-80907200D02*
X157896190Y-80954819D01*
X157896190Y-80954819D02*
X158134285Y-80954819D01*
X156610476Y-80954819D02*
X157181904Y-80954819D01*
X156896190Y-80954819D02*
X156896190Y-79954819D01*
X156896190Y-79954819D02*
X156991428Y-80097676D01*
X156991428Y-80097676D02*
X157086666Y-80192914D01*
X157086666Y-80192914D02*
X157181904Y-80240533D01*
X155991428Y-79954819D02*
X155896190Y-79954819D01*
X155896190Y-79954819D02*
X155800952Y-80002438D01*
X155800952Y-80002438D02*
X155753333Y-80050057D01*
X155753333Y-80050057D02*
X155705714Y-80145295D01*
X155705714Y-80145295D02*
X155658095Y-80335771D01*
X155658095Y-80335771D02*
X155658095Y-80573866D01*
X155658095Y-80573866D02*
X155705714Y-80764342D01*
X155705714Y-80764342D02*
X155753333Y-80859580D01*
X155753333Y-80859580D02*
X155800952Y-80907200D01*
X155800952Y-80907200D02*
X155896190Y-80954819D01*
X155896190Y-80954819D02*
X155991428Y-80954819D01*
X155991428Y-80954819D02*
X156086666Y-80907200D01*
X156086666Y-80907200D02*
X156134285Y-80859580D01*
X156134285Y-80859580D02*
X156181904Y-80764342D01*
X156181904Y-80764342D02*
X156229523Y-80573866D01*
X156229523Y-80573866D02*
X156229523Y-80335771D01*
X156229523Y-80335771D02*
X156181904Y-80145295D01*
X156181904Y-80145295D02*
X156134285Y-80050057D01*
X156134285Y-80050057D02*
X156086666Y-80002438D01*
X156086666Y-80002438D02*
X155991428Y-79954819D01*
X147681904Y-80954819D02*
X147681904Y-79954819D01*
X147110476Y-80954819D02*
X147539047Y-80383390D01*
X147110476Y-79954819D02*
X147681904Y-80526247D01*
X156642857Y-84454819D02*
X156976190Y-83978628D01*
X157214285Y-84454819D02*
X157214285Y-83454819D01*
X157214285Y-83454819D02*
X156833333Y-83454819D01*
X156833333Y-83454819D02*
X156738095Y-83502438D01*
X156738095Y-83502438D02*
X156690476Y-83550057D01*
X156690476Y-83550057D02*
X156642857Y-83645295D01*
X156642857Y-83645295D02*
X156642857Y-83788152D01*
X156642857Y-83788152D02*
X156690476Y-83883390D01*
X156690476Y-83883390D02*
X156738095Y-83931009D01*
X156738095Y-83931009D02*
X156833333Y-83978628D01*
X156833333Y-83978628D02*
X157214285Y-83978628D01*
X155690476Y-84454819D02*
X156261904Y-84454819D01*
X155976190Y-84454819D02*
X155976190Y-83454819D01*
X155976190Y-83454819D02*
X156071428Y-83597676D01*
X156071428Y-83597676D02*
X156166666Y-83692914D01*
X156166666Y-83692914D02*
X156261904Y-83740533D01*
X155214285Y-84454819D02*
X155023809Y-84454819D01*
X155023809Y-84454819D02*
X154928571Y-84407200D01*
X154928571Y-84407200D02*
X154880952Y-84359580D01*
X154880952Y-84359580D02*
X154785714Y-84216723D01*
X154785714Y-84216723D02*
X154738095Y-84026247D01*
X154738095Y-84026247D02*
X154738095Y-83645295D01*
X154738095Y-83645295D02*
X154785714Y-83550057D01*
X154785714Y-83550057D02*
X154833333Y-83502438D01*
X154833333Y-83502438D02*
X154928571Y-83454819D01*
X154928571Y-83454819D02*
X155119047Y-83454819D01*
X155119047Y-83454819D02*
X155214285Y-83502438D01*
X155214285Y-83502438D02*
X155261904Y-83550057D01*
X155261904Y-83550057D02*
X155309523Y-83645295D01*
X155309523Y-83645295D02*
X155309523Y-83883390D01*
X155309523Y-83883390D02*
X155261904Y-83978628D01*
X155261904Y-83978628D02*
X155214285Y-84026247D01*
X155214285Y-84026247D02*
X155119047Y-84073866D01*
X155119047Y-84073866D02*
X154928571Y-84073866D01*
X154928571Y-84073866D02*
X154833333Y-84026247D01*
X154833333Y-84026247D02*
X154785714Y-83978628D01*
X154785714Y-83978628D02*
X154738095Y-83883390D01*
X98454819Y-60383333D02*
X97978628Y-60050000D01*
X98454819Y-59811905D02*
X97454819Y-59811905D01*
X97454819Y-59811905D02*
X97454819Y-60192857D01*
X97454819Y-60192857D02*
X97502438Y-60288095D01*
X97502438Y-60288095D02*
X97550057Y-60335714D01*
X97550057Y-60335714D02*
X97645295Y-60383333D01*
X97645295Y-60383333D02*
X97788152Y-60383333D01*
X97788152Y-60383333D02*
X97883390Y-60335714D01*
X97883390Y-60335714D02*
X97931009Y-60288095D01*
X97931009Y-60288095D02*
X97978628Y-60192857D01*
X97978628Y-60192857D02*
X97978628Y-59811905D01*
X97454819Y-61288095D02*
X97454819Y-60811905D01*
X97454819Y-60811905D02*
X97931009Y-60764286D01*
X97931009Y-60764286D02*
X97883390Y-60811905D01*
X97883390Y-60811905D02*
X97835771Y-60907143D01*
X97835771Y-60907143D02*
X97835771Y-61145238D01*
X97835771Y-61145238D02*
X97883390Y-61240476D01*
X97883390Y-61240476D02*
X97931009Y-61288095D01*
X97931009Y-61288095D02*
X98026247Y-61335714D01*
X98026247Y-61335714D02*
X98264342Y-61335714D01*
X98264342Y-61335714D02*
X98359580Y-61288095D01*
X98359580Y-61288095D02*
X98407200Y-61240476D01*
X98407200Y-61240476D02*
X98454819Y-61145238D01*
X98454819Y-61145238D02*
X98454819Y-60907143D01*
X98454819Y-60907143D02*
X98407200Y-60811905D01*
X98407200Y-60811905D02*
X98359580Y-60764286D01*
X168954819Y-52341905D02*
X167954819Y-52341905D01*
X167954819Y-52341905D02*
X167954819Y-52580000D01*
X167954819Y-52580000D02*
X168002438Y-52722857D01*
X168002438Y-52722857D02*
X168097676Y-52818095D01*
X168097676Y-52818095D02*
X168192914Y-52865714D01*
X168192914Y-52865714D02*
X168383390Y-52913333D01*
X168383390Y-52913333D02*
X168526247Y-52913333D01*
X168526247Y-52913333D02*
X168716723Y-52865714D01*
X168716723Y-52865714D02*
X168811961Y-52818095D01*
X168811961Y-52818095D02*
X168907200Y-52722857D01*
X168907200Y-52722857D02*
X168954819Y-52580000D01*
X168954819Y-52580000D02*
X168954819Y-52341905D01*
X168954819Y-53389524D02*
X168954819Y-53580000D01*
X168954819Y-53580000D02*
X168907200Y-53675238D01*
X168907200Y-53675238D02*
X168859580Y-53722857D01*
X168859580Y-53722857D02*
X168716723Y-53818095D01*
X168716723Y-53818095D02*
X168526247Y-53865714D01*
X168526247Y-53865714D02*
X168145295Y-53865714D01*
X168145295Y-53865714D02*
X168050057Y-53818095D01*
X168050057Y-53818095D02*
X168002438Y-53770476D01*
X168002438Y-53770476D02*
X167954819Y-53675238D01*
X167954819Y-53675238D02*
X167954819Y-53484762D01*
X167954819Y-53484762D02*
X168002438Y-53389524D01*
X168002438Y-53389524D02*
X168050057Y-53341905D01*
X168050057Y-53341905D02*
X168145295Y-53294286D01*
X168145295Y-53294286D02*
X168383390Y-53294286D01*
X168383390Y-53294286D02*
X168478628Y-53341905D01*
X168478628Y-53341905D02*
X168526247Y-53389524D01*
X168526247Y-53389524D02*
X168573866Y-53484762D01*
X168573866Y-53484762D02*
X168573866Y-53675238D01*
X168573866Y-53675238D02*
X168526247Y-53770476D01*
X168526247Y-53770476D02*
X168478628Y-53818095D01*
X168478628Y-53818095D02*
X168383390Y-53865714D01*
X166454819Y-51318095D02*
X165454819Y-51318095D01*
X166454819Y-51889523D02*
X165883390Y-51460952D01*
X165454819Y-51889523D02*
X166026247Y-51318095D01*
X149124819Y-60785714D02*
X148124819Y-60785714D01*
X148124819Y-60785714D02*
X148124819Y-61023809D01*
X148124819Y-61023809D02*
X148172438Y-61166666D01*
X148172438Y-61166666D02*
X148267676Y-61261904D01*
X148267676Y-61261904D02*
X148362914Y-61309523D01*
X148362914Y-61309523D02*
X148553390Y-61357142D01*
X148553390Y-61357142D02*
X148696247Y-61357142D01*
X148696247Y-61357142D02*
X148886723Y-61309523D01*
X148886723Y-61309523D02*
X148981961Y-61261904D01*
X148981961Y-61261904D02*
X149077200Y-61166666D01*
X149077200Y-61166666D02*
X149124819Y-61023809D01*
X149124819Y-61023809D02*
X149124819Y-60785714D01*
X148220057Y-61738095D02*
X148172438Y-61785714D01*
X148172438Y-61785714D02*
X148124819Y-61880952D01*
X148124819Y-61880952D02*
X148124819Y-62119047D01*
X148124819Y-62119047D02*
X148172438Y-62214285D01*
X148172438Y-62214285D02*
X148220057Y-62261904D01*
X148220057Y-62261904D02*
X148315295Y-62309523D01*
X148315295Y-62309523D02*
X148410533Y-62309523D01*
X148410533Y-62309523D02*
X148553390Y-62261904D01*
X148553390Y-62261904D02*
X149124819Y-61690476D01*
X149124819Y-61690476D02*
X149124819Y-62309523D01*
X148124819Y-62928571D02*
X148124819Y-63023809D01*
X148124819Y-63023809D02*
X148172438Y-63119047D01*
X148172438Y-63119047D02*
X148220057Y-63166666D01*
X148220057Y-63166666D02*
X148315295Y-63214285D01*
X148315295Y-63214285D02*
X148505771Y-63261904D01*
X148505771Y-63261904D02*
X148743866Y-63261904D01*
X148743866Y-63261904D02*
X148934342Y-63214285D01*
X148934342Y-63214285D02*
X149029580Y-63166666D01*
X149029580Y-63166666D02*
X149077200Y-63119047D01*
X149077200Y-63119047D02*
X149124819Y-63023809D01*
X149124819Y-63023809D02*
X149124819Y-62928571D01*
X149124819Y-62928571D02*
X149077200Y-62833333D01*
X149077200Y-62833333D02*
X149029580Y-62785714D01*
X149029580Y-62785714D02*
X148934342Y-62738095D01*
X148934342Y-62738095D02*
X148743866Y-62690476D01*
X148743866Y-62690476D02*
X148505771Y-62690476D01*
X148505771Y-62690476D02*
X148315295Y-62738095D01*
X148315295Y-62738095D02*
X148220057Y-62785714D01*
X148220057Y-62785714D02*
X148172438Y-62833333D01*
X148172438Y-62833333D02*
X148124819Y-62928571D01*
X109873333Y-106454819D02*
X109873333Y-107169104D01*
X109873333Y-107169104D02*
X109920952Y-107311961D01*
X109920952Y-107311961D02*
X110016190Y-107407200D01*
X110016190Y-107407200D02*
X110159047Y-107454819D01*
X110159047Y-107454819D02*
X110254285Y-107454819D01*
X108968571Y-106788152D02*
X108968571Y-107454819D01*
X109206666Y-106407200D02*
X109444761Y-107121485D01*
X109444761Y-107121485D02*
X108825714Y-107121485D01*
X135859580Y-93857142D02*
X135907200Y-93809523D01*
X135907200Y-93809523D02*
X135954819Y-93666666D01*
X135954819Y-93666666D02*
X135954819Y-93571428D01*
X135954819Y-93571428D02*
X135907200Y-93428571D01*
X135907200Y-93428571D02*
X135811961Y-93333333D01*
X135811961Y-93333333D02*
X135716723Y-93285714D01*
X135716723Y-93285714D02*
X135526247Y-93238095D01*
X135526247Y-93238095D02*
X135383390Y-93238095D01*
X135383390Y-93238095D02*
X135192914Y-93285714D01*
X135192914Y-93285714D02*
X135097676Y-93333333D01*
X135097676Y-93333333D02*
X135002438Y-93428571D01*
X135002438Y-93428571D02*
X134954819Y-93571428D01*
X134954819Y-93571428D02*
X134954819Y-93666666D01*
X134954819Y-93666666D02*
X135002438Y-93809523D01*
X135002438Y-93809523D02*
X135050057Y-93857142D01*
X135954819Y-94809523D02*
X135954819Y-94238095D01*
X135954819Y-94523809D02*
X134954819Y-94523809D01*
X134954819Y-94523809D02*
X135097676Y-94428571D01*
X135097676Y-94428571D02*
X135192914Y-94333333D01*
X135192914Y-94333333D02*
X135240533Y-94238095D01*
X135954819Y-95761904D02*
X135954819Y-95190476D01*
X135954819Y-95476190D02*
X134954819Y-95476190D01*
X134954819Y-95476190D02*
X135097676Y-95380952D01*
X135097676Y-95380952D02*
X135192914Y-95285714D01*
X135192914Y-95285714D02*
X135240533Y-95190476D01*
X184238094Y-53954819D02*
X184238094Y-52954819D01*
X184238094Y-52954819D02*
X183999999Y-52954819D01*
X183999999Y-52954819D02*
X183857142Y-53002438D01*
X183857142Y-53002438D02*
X183761904Y-53097676D01*
X183761904Y-53097676D02*
X183714285Y-53192914D01*
X183714285Y-53192914D02*
X183666666Y-53383390D01*
X183666666Y-53383390D02*
X183666666Y-53526247D01*
X183666666Y-53526247D02*
X183714285Y-53716723D01*
X183714285Y-53716723D02*
X183761904Y-53811961D01*
X183761904Y-53811961D02*
X183857142Y-53907200D01*
X183857142Y-53907200D02*
X183999999Y-53954819D01*
X183999999Y-53954819D02*
X184238094Y-53954819D01*
X183095237Y-53383390D02*
X183190475Y-53335771D01*
X183190475Y-53335771D02*
X183238094Y-53288152D01*
X183238094Y-53288152D02*
X183285713Y-53192914D01*
X183285713Y-53192914D02*
X183285713Y-53145295D01*
X183285713Y-53145295D02*
X183238094Y-53050057D01*
X183238094Y-53050057D02*
X183190475Y-53002438D01*
X183190475Y-53002438D02*
X183095237Y-52954819D01*
X183095237Y-52954819D02*
X182904761Y-52954819D01*
X182904761Y-52954819D02*
X182809523Y-53002438D01*
X182809523Y-53002438D02*
X182761904Y-53050057D01*
X182761904Y-53050057D02*
X182714285Y-53145295D01*
X182714285Y-53145295D02*
X182714285Y-53192914D01*
X182714285Y-53192914D02*
X182761904Y-53288152D01*
X182761904Y-53288152D02*
X182809523Y-53335771D01*
X182809523Y-53335771D02*
X182904761Y-53383390D01*
X182904761Y-53383390D02*
X183095237Y-53383390D01*
X183095237Y-53383390D02*
X183190475Y-53431009D01*
X183190475Y-53431009D02*
X183238094Y-53478628D01*
X183238094Y-53478628D02*
X183285713Y-53573866D01*
X183285713Y-53573866D02*
X183285713Y-53764342D01*
X183285713Y-53764342D02*
X183238094Y-53859580D01*
X183238094Y-53859580D02*
X183190475Y-53907200D01*
X183190475Y-53907200D02*
X183095237Y-53954819D01*
X183095237Y-53954819D02*
X182904761Y-53954819D01*
X182904761Y-53954819D02*
X182809523Y-53907200D01*
X182809523Y-53907200D02*
X182761904Y-53859580D01*
X182761904Y-53859580D02*
X182714285Y-53764342D01*
X182714285Y-53764342D02*
X182714285Y-53573866D01*
X182714285Y-53573866D02*
X182761904Y-53478628D01*
X182761904Y-53478628D02*
X182809523Y-53431009D01*
X182809523Y-53431009D02*
X182904761Y-53383390D01*
X172261904Y-53954819D02*
X172261904Y-52954819D01*
X171690476Y-53954819D02*
X172119047Y-53383390D01*
X171690476Y-52954819D02*
X172261904Y-53526247D01*
X122024285Y-108954819D02*
X122024285Y-107954819D01*
X122024285Y-107954819D02*
X121786190Y-107954819D01*
X121786190Y-107954819D02*
X121643333Y-108002438D01*
X121643333Y-108002438D02*
X121548095Y-108097676D01*
X121548095Y-108097676D02*
X121500476Y-108192914D01*
X121500476Y-108192914D02*
X121452857Y-108383390D01*
X121452857Y-108383390D02*
X121452857Y-108526247D01*
X121452857Y-108526247D02*
X121500476Y-108716723D01*
X121500476Y-108716723D02*
X121548095Y-108811961D01*
X121548095Y-108811961D02*
X121643333Y-108907200D01*
X121643333Y-108907200D02*
X121786190Y-108954819D01*
X121786190Y-108954819D02*
X122024285Y-108954819D01*
X120500476Y-108954819D02*
X121071904Y-108954819D01*
X120786190Y-108954819D02*
X120786190Y-107954819D01*
X120786190Y-107954819D02*
X120881428Y-108097676D01*
X120881428Y-108097676D02*
X120976666Y-108192914D01*
X120976666Y-108192914D02*
X121071904Y-108240533D01*
X120167142Y-107954819D02*
X119548095Y-107954819D01*
X119548095Y-107954819D02*
X119881428Y-108335771D01*
X119881428Y-108335771D02*
X119738571Y-108335771D01*
X119738571Y-108335771D02*
X119643333Y-108383390D01*
X119643333Y-108383390D02*
X119595714Y-108431009D01*
X119595714Y-108431009D02*
X119548095Y-108526247D01*
X119548095Y-108526247D02*
X119548095Y-108764342D01*
X119548095Y-108764342D02*
X119595714Y-108859580D01*
X119595714Y-108859580D02*
X119643333Y-108907200D01*
X119643333Y-108907200D02*
X119738571Y-108954819D01*
X119738571Y-108954819D02*
X120024285Y-108954819D01*
X120024285Y-108954819D02*
X120119523Y-108907200D01*
X120119523Y-108907200D02*
X120167142Y-108859580D01*
X120071904Y-110954819D02*
X120071904Y-109954819D01*
X119500476Y-110954819D02*
X119929047Y-110383390D01*
X119500476Y-109954819D02*
X120071904Y-110526247D01*
X200714285Y-104454819D02*
X200714285Y-103454819D01*
X200714285Y-103454819D02*
X200476190Y-103454819D01*
X200476190Y-103454819D02*
X200333333Y-103502438D01*
X200333333Y-103502438D02*
X200238095Y-103597676D01*
X200238095Y-103597676D02*
X200190476Y-103692914D01*
X200190476Y-103692914D02*
X200142857Y-103883390D01*
X200142857Y-103883390D02*
X200142857Y-104026247D01*
X200142857Y-104026247D02*
X200190476Y-104216723D01*
X200190476Y-104216723D02*
X200238095Y-104311961D01*
X200238095Y-104311961D02*
X200333333Y-104407200D01*
X200333333Y-104407200D02*
X200476190Y-104454819D01*
X200476190Y-104454819D02*
X200714285Y-104454819D01*
X199190476Y-104454819D02*
X199761904Y-104454819D01*
X199476190Y-104454819D02*
X199476190Y-103454819D01*
X199476190Y-103454819D02*
X199571428Y-103597676D01*
X199571428Y-103597676D02*
X199666666Y-103692914D01*
X199666666Y-103692914D02*
X199761904Y-103740533D01*
X198238095Y-104454819D02*
X198809523Y-104454819D01*
X198523809Y-104454819D02*
X198523809Y-103454819D01*
X198523809Y-103454819D02*
X198619047Y-103597676D01*
X198619047Y-103597676D02*
X198714285Y-103692914D01*
X198714285Y-103692914D02*
X198809523Y-103740533D01*
X165333333Y-106179819D02*
X165333333Y-106894104D01*
X165333333Y-106894104D02*
X165380952Y-107036961D01*
X165380952Y-107036961D02*
X165476190Y-107132200D01*
X165476190Y-107132200D02*
X165619047Y-107179819D01*
X165619047Y-107179819D02*
X165714285Y-107179819D01*
X164380952Y-106179819D02*
X164857142Y-106179819D01*
X164857142Y-106179819D02*
X164904761Y-106656009D01*
X164904761Y-106656009D02*
X164857142Y-106608390D01*
X164857142Y-106608390D02*
X164761904Y-106560771D01*
X164761904Y-106560771D02*
X164523809Y-106560771D01*
X164523809Y-106560771D02*
X164428571Y-106608390D01*
X164428571Y-106608390D02*
X164380952Y-106656009D01*
X164380952Y-106656009D02*
X164333333Y-106751247D01*
X164333333Y-106751247D02*
X164333333Y-106989342D01*
X164333333Y-106989342D02*
X164380952Y-107084580D01*
X164380952Y-107084580D02*
X164428571Y-107132200D01*
X164428571Y-107132200D02*
X164523809Y-107179819D01*
X164523809Y-107179819D02*
X164761904Y-107179819D01*
X164761904Y-107179819D02*
X164857142Y-107132200D01*
X164857142Y-107132200D02*
X164904761Y-107084580D01*
X163954819Y-87883333D02*
X163478628Y-87550000D01*
X163954819Y-87311905D02*
X162954819Y-87311905D01*
X162954819Y-87311905D02*
X162954819Y-87692857D01*
X162954819Y-87692857D02*
X163002438Y-87788095D01*
X163002438Y-87788095D02*
X163050057Y-87835714D01*
X163050057Y-87835714D02*
X163145295Y-87883333D01*
X163145295Y-87883333D02*
X163288152Y-87883333D01*
X163288152Y-87883333D02*
X163383390Y-87835714D01*
X163383390Y-87835714D02*
X163431009Y-87788095D01*
X163431009Y-87788095D02*
X163478628Y-87692857D01*
X163478628Y-87692857D02*
X163478628Y-87311905D01*
X162954819Y-88216667D02*
X162954819Y-88835714D01*
X162954819Y-88835714D02*
X163335771Y-88502381D01*
X163335771Y-88502381D02*
X163335771Y-88645238D01*
X163335771Y-88645238D02*
X163383390Y-88740476D01*
X163383390Y-88740476D02*
X163431009Y-88788095D01*
X163431009Y-88788095D02*
X163526247Y-88835714D01*
X163526247Y-88835714D02*
X163764342Y-88835714D01*
X163764342Y-88835714D02*
X163859580Y-88788095D01*
X163859580Y-88788095D02*
X163907200Y-88740476D01*
X163907200Y-88740476D02*
X163954819Y-88645238D01*
X163954819Y-88645238D02*
X163954819Y-88359524D01*
X163954819Y-88359524D02*
X163907200Y-88264286D01*
X163907200Y-88264286D02*
X163859580Y-88216667D01*
X109454819Y-78833333D02*
X108978628Y-78500000D01*
X109454819Y-78261905D02*
X108454819Y-78261905D01*
X108454819Y-78261905D02*
X108454819Y-78642857D01*
X108454819Y-78642857D02*
X108502438Y-78738095D01*
X108502438Y-78738095D02*
X108550057Y-78785714D01*
X108550057Y-78785714D02*
X108645295Y-78833333D01*
X108645295Y-78833333D02*
X108788152Y-78833333D01*
X108788152Y-78833333D02*
X108883390Y-78785714D01*
X108883390Y-78785714D02*
X108931009Y-78738095D01*
X108931009Y-78738095D02*
X108978628Y-78642857D01*
X108978628Y-78642857D02*
X108978628Y-78261905D01*
X108454819Y-79166667D02*
X108454819Y-79833333D01*
X108454819Y-79833333D02*
X109454819Y-79404762D01*
X118964285Y-88954819D02*
X118964285Y-87954819D01*
X118964285Y-87954819D02*
X118726190Y-87954819D01*
X118726190Y-87954819D02*
X118583333Y-88002438D01*
X118583333Y-88002438D02*
X118488095Y-88097676D01*
X118488095Y-88097676D02*
X118440476Y-88192914D01*
X118440476Y-88192914D02*
X118392857Y-88383390D01*
X118392857Y-88383390D02*
X118392857Y-88526247D01*
X118392857Y-88526247D02*
X118440476Y-88716723D01*
X118440476Y-88716723D02*
X118488095Y-88811961D01*
X118488095Y-88811961D02*
X118583333Y-88907200D01*
X118583333Y-88907200D02*
X118726190Y-88954819D01*
X118726190Y-88954819D02*
X118964285Y-88954819D01*
X117440476Y-88954819D02*
X118011904Y-88954819D01*
X117726190Y-88954819D02*
X117726190Y-87954819D01*
X117726190Y-87954819D02*
X117821428Y-88097676D01*
X117821428Y-88097676D02*
X117916666Y-88192914D01*
X117916666Y-88192914D02*
X118011904Y-88240533D01*
X116535714Y-87954819D02*
X117011904Y-87954819D01*
X117011904Y-87954819D02*
X117059523Y-88431009D01*
X117059523Y-88431009D02*
X117011904Y-88383390D01*
X117011904Y-88383390D02*
X116916666Y-88335771D01*
X116916666Y-88335771D02*
X116678571Y-88335771D01*
X116678571Y-88335771D02*
X116583333Y-88383390D01*
X116583333Y-88383390D02*
X116535714Y-88431009D01*
X116535714Y-88431009D02*
X116488095Y-88526247D01*
X116488095Y-88526247D02*
X116488095Y-88764342D01*
X116488095Y-88764342D02*
X116535714Y-88859580D01*
X116535714Y-88859580D02*
X116583333Y-88907200D01*
X116583333Y-88907200D02*
X116678571Y-88954819D01*
X116678571Y-88954819D02*
X116916666Y-88954819D01*
X116916666Y-88954819D02*
X117011904Y-88907200D01*
X117011904Y-88907200D02*
X117059523Y-88859580D01*
X102954819Y-59357142D02*
X102478628Y-59023809D01*
X102954819Y-58785714D02*
X101954819Y-58785714D01*
X101954819Y-58785714D02*
X101954819Y-59166666D01*
X101954819Y-59166666D02*
X102002438Y-59261904D01*
X102002438Y-59261904D02*
X102050057Y-59309523D01*
X102050057Y-59309523D02*
X102145295Y-59357142D01*
X102145295Y-59357142D02*
X102288152Y-59357142D01*
X102288152Y-59357142D02*
X102383390Y-59309523D01*
X102383390Y-59309523D02*
X102431009Y-59261904D01*
X102431009Y-59261904D02*
X102478628Y-59166666D01*
X102478628Y-59166666D02*
X102478628Y-58785714D01*
X102954819Y-60309523D02*
X102954819Y-59738095D01*
X102954819Y-60023809D02*
X101954819Y-60023809D01*
X101954819Y-60023809D02*
X102097676Y-59928571D01*
X102097676Y-59928571D02*
X102192914Y-59833333D01*
X102192914Y-59833333D02*
X102240533Y-59738095D01*
X101954819Y-61214285D02*
X101954819Y-60738095D01*
X101954819Y-60738095D02*
X102431009Y-60690476D01*
X102431009Y-60690476D02*
X102383390Y-60738095D01*
X102383390Y-60738095D02*
X102335771Y-60833333D01*
X102335771Y-60833333D02*
X102335771Y-61071428D01*
X102335771Y-61071428D02*
X102383390Y-61166666D01*
X102383390Y-61166666D02*
X102431009Y-61214285D01*
X102431009Y-61214285D02*
X102526247Y-61261904D01*
X102526247Y-61261904D02*
X102764342Y-61261904D01*
X102764342Y-61261904D02*
X102859580Y-61214285D01*
X102859580Y-61214285D02*
X102907200Y-61166666D01*
X102907200Y-61166666D02*
X102954819Y-61071428D01*
X102954819Y-61071428D02*
X102954819Y-60833333D01*
X102954819Y-60833333D02*
X102907200Y-60738095D01*
X102907200Y-60738095D02*
X102859580Y-60690476D01*
X167454819Y-87833333D02*
X166978628Y-87500000D01*
X167454819Y-87261905D02*
X166454819Y-87261905D01*
X166454819Y-87261905D02*
X166454819Y-87642857D01*
X166454819Y-87642857D02*
X166502438Y-87738095D01*
X166502438Y-87738095D02*
X166550057Y-87785714D01*
X166550057Y-87785714D02*
X166645295Y-87833333D01*
X166645295Y-87833333D02*
X166788152Y-87833333D01*
X166788152Y-87833333D02*
X166883390Y-87785714D01*
X166883390Y-87785714D02*
X166931009Y-87738095D01*
X166931009Y-87738095D02*
X166978628Y-87642857D01*
X166978628Y-87642857D02*
X166978628Y-87261905D01*
X167454819Y-88785714D02*
X167454819Y-88214286D01*
X167454819Y-88500000D02*
X166454819Y-88500000D01*
X166454819Y-88500000D02*
X166597676Y-88404762D01*
X166597676Y-88404762D02*
X166692914Y-88309524D01*
X166692914Y-88309524D02*
X166740533Y-88214286D01*
X111333332Y-96407200D02*
X111190475Y-96454819D01*
X111190475Y-96454819D02*
X110952380Y-96454819D01*
X110952380Y-96454819D02*
X110857142Y-96407200D01*
X110857142Y-96407200D02*
X110809523Y-96359580D01*
X110809523Y-96359580D02*
X110761904Y-96264342D01*
X110761904Y-96264342D02*
X110761904Y-96169104D01*
X110761904Y-96169104D02*
X110809523Y-96073866D01*
X110809523Y-96073866D02*
X110857142Y-96026247D01*
X110857142Y-96026247D02*
X110952380Y-95978628D01*
X110952380Y-95978628D02*
X111142856Y-95931009D01*
X111142856Y-95931009D02*
X111238094Y-95883390D01*
X111238094Y-95883390D02*
X111285713Y-95835771D01*
X111285713Y-95835771D02*
X111333332Y-95740533D01*
X111333332Y-95740533D02*
X111333332Y-95645295D01*
X111333332Y-95645295D02*
X111285713Y-95550057D01*
X111285713Y-95550057D02*
X111238094Y-95502438D01*
X111238094Y-95502438D02*
X111142856Y-95454819D01*
X111142856Y-95454819D02*
X110904761Y-95454819D01*
X110904761Y-95454819D02*
X110761904Y-95502438D01*
X110428570Y-95454819D02*
X110190475Y-96454819D01*
X110190475Y-96454819D02*
X109999999Y-95740533D01*
X109999999Y-95740533D02*
X109809523Y-96454819D01*
X109809523Y-96454819D02*
X109571428Y-95454819D01*
X109238094Y-95550057D02*
X109190475Y-95502438D01*
X109190475Y-95502438D02*
X109095237Y-95454819D01*
X109095237Y-95454819D02*
X108857142Y-95454819D01*
X108857142Y-95454819D02*
X108761904Y-95502438D01*
X108761904Y-95502438D02*
X108714285Y-95550057D01*
X108714285Y-95550057D02*
X108666666Y-95645295D01*
X108666666Y-95645295D02*
X108666666Y-95740533D01*
X108666666Y-95740533D02*
X108714285Y-95883390D01*
X108714285Y-95883390D02*
X109285713Y-96454819D01*
X109285713Y-96454819D02*
X108666666Y-96454819D01*
X174359580Y-97357142D02*
X174407200Y-97309523D01*
X174407200Y-97309523D02*
X174454819Y-97166666D01*
X174454819Y-97166666D02*
X174454819Y-97071428D01*
X174454819Y-97071428D02*
X174407200Y-96928571D01*
X174407200Y-96928571D02*
X174311961Y-96833333D01*
X174311961Y-96833333D02*
X174216723Y-96785714D01*
X174216723Y-96785714D02*
X174026247Y-96738095D01*
X174026247Y-96738095D02*
X173883390Y-96738095D01*
X173883390Y-96738095D02*
X173692914Y-96785714D01*
X173692914Y-96785714D02*
X173597676Y-96833333D01*
X173597676Y-96833333D02*
X173502438Y-96928571D01*
X173502438Y-96928571D02*
X173454819Y-97071428D01*
X173454819Y-97071428D02*
X173454819Y-97166666D01*
X173454819Y-97166666D02*
X173502438Y-97309523D01*
X173502438Y-97309523D02*
X173550057Y-97357142D01*
X174454819Y-98309523D02*
X174454819Y-97738095D01*
X174454819Y-98023809D02*
X173454819Y-98023809D01*
X173454819Y-98023809D02*
X173597676Y-97928571D01*
X173597676Y-97928571D02*
X173692914Y-97833333D01*
X173692914Y-97833333D02*
X173740533Y-97738095D01*
X173454819Y-99166666D02*
X173454819Y-98976190D01*
X173454819Y-98976190D02*
X173502438Y-98880952D01*
X173502438Y-98880952D02*
X173550057Y-98833333D01*
X173550057Y-98833333D02*
X173692914Y-98738095D01*
X173692914Y-98738095D02*
X173883390Y-98690476D01*
X173883390Y-98690476D02*
X174264342Y-98690476D01*
X174264342Y-98690476D02*
X174359580Y-98738095D01*
X174359580Y-98738095D02*
X174407200Y-98785714D01*
X174407200Y-98785714D02*
X174454819Y-98880952D01*
X174454819Y-98880952D02*
X174454819Y-99071428D01*
X174454819Y-99071428D02*
X174407200Y-99166666D01*
X174407200Y-99166666D02*
X174359580Y-99214285D01*
X174359580Y-99214285D02*
X174264342Y-99261904D01*
X174264342Y-99261904D02*
X174026247Y-99261904D01*
X174026247Y-99261904D02*
X173931009Y-99214285D01*
X173931009Y-99214285D02*
X173883390Y-99166666D01*
X173883390Y-99166666D02*
X173835771Y-99071428D01*
X173835771Y-99071428D02*
X173835771Y-98880952D01*
X173835771Y-98880952D02*
X173883390Y-98785714D01*
X173883390Y-98785714D02*
X173931009Y-98738095D01*
X173931009Y-98738095D02*
X174026247Y-98690476D01*
X135954819Y-98357142D02*
X135478628Y-98023809D01*
X135954819Y-97785714D02*
X134954819Y-97785714D01*
X134954819Y-97785714D02*
X134954819Y-98166666D01*
X134954819Y-98166666D02*
X135002438Y-98261904D01*
X135002438Y-98261904D02*
X135050057Y-98309523D01*
X135050057Y-98309523D02*
X135145295Y-98357142D01*
X135145295Y-98357142D02*
X135288152Y-98357142D01*
X135288152Y-98357142D02*
X135383390Y-98309523D01*
X135383390Y-98309523D02*
X135431009Y-98261904D01*
X135431009Y-98261904D02*
X135478628Y-98166666D01*
X135478628Y-98166666D02*
X135478628Y-97785714D01*
X135954819Y-99309523D02*
X135954819Y-98738095D01*
X135954819Y-99023809D02*
X134954819Y-99023809D01*
X134954819Y-99023809D02*
X135097676Y-98928571D01*
X135097676Y-98928571D02*
X135192914Y-98833333D01*
X135192914Y-98833333D02*
X135240533Y-98738095D01*
X134954819Y-99642857D02*
X134954819Y-100309523D01*
X134954819Y-100309523D02*
X135954819Y-99880952D01*
X162166666Y-64859580D02*
X162214285Y-64907200D01*
X162214285Y-64907200D02*
X162357142Y-64954819D01*
X162357142Y-64954819D02*
X162452380Y-64954819D01*
X162452380Y-64954819D02*
X162595237Y-64907200D01*
X162595237Y-64907200D02*
X162690475Y-64811961D01*
X162690475Y-64811961D02*
X162738094Y-64716723D01*
X162738094Y-64716723D02*
X162785713Y-64526247D01*
X162785713Y-64526247D02*
X162785713Y-64383390D01*
X162785713Y-64383390D02*
X162738094Y-64192914D01*
X162738094Y-64192914D02*
X162690475Y-64097676D01*
X162690475Y-64097676D02*
X162595237Y-64002438D01*
X162595237Y-64002438D02*
X162452380Y-63954819D01*
X162452380Y-63954819D02*
X162357142Y-63954819D01*
X162357142Y-63954819D02*
X162214285Y-64002438D01*
X162214285Y-64002438D02*
X162166666Y-64050057D01*
X161833332Y-63954819D02*
X161214285Y-63954819D01*
X161214285Y-63954819D02*
X161547618Y-64335771D01*
X161547618Y-64335771D02*
X161404761Y-64335771D01*
X161404761Y-64335771D02*
X161309523Y-64383390D01*
X161309523Y-64383390D02*
X161261904Y-64431009D01*
X161261904Y-64431009D02*
X161214285Y-64526247D01*
X161214285Y-64526247D02*
X161214285Y-64764342D01*
X161214285Y-64764342D02*
X161261904Y-64859580D01*
X161261904Y-64859580D02*
X161309523Y-64907200D01*
X161309523Y-64907200D02*
X161404761Y-64954819D01*
X161404761Y-64954819D02*
X161690475Y-64954819D01*
X161690475Y-64954819D02*
X161785713Y-64907200D01*
X161785713Y-64907200D02*
X161833332Y-64859580D01*
D10*
%TO.C,FL2*%
X185000000Y-66600000D02*
X183400000Y-66600000D01*
X184800000Y-63400000D02*
X183200000Y-63400000D01*
D13*
X188200000Y-66000000D02*
X188200000Y-66000000D01*
X188000000Y-66000000D02*
X188000000Y-66000000D01*
X188200000Y-66000000D02*
G75*
G02*
X188000000Y-66000000I-100000J0D01*
G01*
X188000000Y-66000000D02*
G75*
G02*
X188200000Y-66000000I100000J0D01*
G01*
D10*
%TO.C,FL1*%
X167100000Y-81000000D02*
X167100000Y-82600000D01*
X163900000Y-81200000D02*
X163900000Y-82800000D01*
D13*
X166500000Y-77800000D02*
X166500000Y-77800000D01*
X166500000Y-78000000D02*
X166500000Y-78000000D01*
X166500000Y-77800000D02*
G75*
G02*
X166500000Y-78000000I0J-100000D01*
G01*
X166500000Y-78000000D02*
G75*
G02*
X166500000Y-77800000I0J100000D01*
G01*
D12*
%TO.C,JP1*%
X116720000Y-53600000D02*
X116720000Y-54400000D01*
X116720000Y-54400000D02*
X117220000Y-54900000D01*
X117220000Y-53100000D02*
X116720000Y-53600000D01*
X117220000Y-54900000D02*
X120820000Y-54900000D01*
X120820000Y-53100000D02*
X117220000Y-53100000D01*
X120820000Y-54900000D02*
X121320000Y-54400000D01*
X121320000Y-53600000D02*
X120820000Y-53100000D01*
X121320000Y-54400000D02*
X121320000Y-53600000D01*
D14*
%TO.C,D22*%
X165940000Y-98000000D02*
X165940000Y-97200000D01*
X165940000Y-98000000D02*
X165940000Y-98800000D01*
X169060000Y-98000000D02*
X169060000Y-97200000D01*
X169060000Y-98000000D02*
X169060000Y-98800000D01*
X169340000Y-99540000D02*
X169010000Y-99300000D01*
X169340000Y-99060000D01*
X169340000Y-99540000D01*
G36*
X169340000Y-99540000D02*
G01*
X169010000Y-99300000D01*
X169340000Y-99060000D01*
X169340000Y-99540000D01*
G37*
%TO.C,SW1*%
X125400000Y-94700000D02*
X125400000Y-97300000D01*
X125500000Y-99250000D02*
X131500000Y-99250000D01*
X125600000Y-92750000D02*
X131400000Y-92750000D01*
X131600000Y-94700000D02*
X131600000Y-97300000D01*
X133600000Y-92700000D02*
X132600000Y-92700000D01*
X133600000Y-93700000D02*
X133600000Y-92700000D01*
%TO.C,U3*%
X141090000Y-68150000D02*
X141090000Y-71910000D01*
X141090000Y-71910000D02*
X142350000Y-71910000D01*
X147910000Y-68150000D02*
X147910000Y-71910000D01*
X147910000Y-71910000D02*
X146650000Y-71910000D01*
X141190000Y-66870000D02*
X140860000Y-67110000D01*
X140860000Y-66630000D01*
X141190000Y-66870000D01*
G36*
X141190000Y-66870000D02*
G01*
X140860000Y-67110000D01*
X140860000Y-66630000D01*
X141190000Y-66870000D01*
G37*
%TO.C,C5*%
X137240000Y-53804437D02*
X137240000Y-63260000D01*
X137240000Y-63260000D02*
X140990000Y-63260000D01*
X138304437Y-52740000D02*
X137240000Y-53804437D01*
X138304437Y-52740000D02*
X140990000Y-52740000D01*
X139115000Y-51875000D02*
X140365000Y-51875000D01*
X139740000Y-51250000D02*
X139740000Y-52500000D01*
X146695563Y-52740000D02*
X144010000Y-52740000D01*
X146695563Y-52740000D02*
X147760000Y-53804437D01*
X147760000Y-53804437D02*
X147760000Y-63260000D01*
X147760000Y-63260000D02*
X144010000Y-63260000D01*
%TO.C,C10*%
X169590000Y-92211252D02*
X169590000Y-90788748D01*
X171410000Y-92211252D02*
X171410000Y-90788748D01*
%TO.C,C4*%
X165590000Y-67090000D02*
X167940000Y-67090000D01*
X165590000Y-72845563D02*
X165590000Y-67090000D01*
X166654437Y-73910000D02*
X165590000Y-72845563D01*
X166654437Y-73910000D02*
X167940000Y-73910000D01*
X170847500Y-74937500D02*
X170847500Y-74150000D01*
X171241250Y-74543750D02*
X170453750Y-74543750D01*
X171345563Y-73910000D02*
X170060000Y-73910000D01*
X171345563Y-73910000D02*
X172410000Y-72845563D01*
X172410000Y-67090000D02*
X170060000Y-67090000D01*
X172410000Y-72845563D02*
X172410000Y-67090000D01*
%TO.C,Q1*%
X116090000Y-59590000D02*
X116090000Y-60850000D01*
X116090000Y-66410000D02*
X116090000Y-65150000D01*
X119850000Y-59590000D02*
X116090000Y-59590000D01*
X119850000Y-66410000D02*
X116090000Y-66410000D01*
X121130000Y-59690000D02*
X120890000Y-59360000D01*
X121370000Y-59360000D01*
X121130000Y-59690000D01*
G36*
X121130000Y-59690000D02*
G01*
X120890000Y-59360000D01*
X121370000Y-59360000D01*
X121130000Y-59690000D01*
G37*
%TO.C,D21*%
X181000000Y-75300000D02*
X181000000Y-70250000D01*
X181450000Y-75750000D02*
X181000000Y-75300000D01*
X181800000Y-73900000D02*
X181800000Y-72100000D01*
X187200000Y-73900000D02*
X187200000Y-72100000D01*
X188000000Y-70250000D02*
X181000000Y-70250000D01*
X188000000Y-70250000D02*
X188000000Y-75750000D01*
X188000000Y-75750000D02*
X181450000Y-75750000D01*
%TO.C,R18*%
X125227064Y-87090000D02*
X123772936Y-87090000D01*
X125227064Y-88910000D02*
X123772936Y-88910000D01*
%TO.C,C2*%
X152590000Y-71273752D02*
X152590000Y-69851248D01*
X154410000Y-71273752D02*
X154410000Y-69851248D01*
%TO.C,C6*%
X137590000Y-70711252D02*
X137590000Y-69288748D01*
X139410000Y-70711252D02*
X139410000Y-69288748D01*
D12*
%TO.C,JP2*%
X126680000Y-79100000D02*
X126680000Y-79900000D01*
X126680000Y-79900000D02*
X127180000Y-80400000D01*
X127180000Y-78600000D02*
X126680000Y-79100000D01*
X127180000Y-80400000D02*
X130780000Y-80400000D01*
X130780000Y-78600000D02*
X127180000Y-78600000D01*
X130780000Y-80400000D02*
X131280000Y-79900000D01*
X131280000Y-79100000D02*
X130780000Y-78600000D01*
X131280000Y-79900000D02*
X131280000Y-79100000D01*
D14*
%TO.C,R14*%
X130272936Y-87090000D02*
X131727064Y-87090000D01*
X130272936Y-88910000D02*
X131727064Y-88910000D01*
%TO.C,D12*%
X197710000Y-107850000D02*
X190300000Y-107850000D01*
X197710000Y-107850000D02*
X197710000Y-112150000D01*
X197710000Y-112150000D02*
X190300000Y-112150000D01*
%TO.C,J3*%
X176540000Y-104735000D02*
X184380000Y-104735000D01*
X176540000Y-107495000D02*
X176540000Y-104735000D01*
X177490000Y-98735000D02*
X177490000Y-104735000D01*
X177490000Y-107807642D02*
X177490000Y-107495000D01*
X178350000Y-98735000D02*
X177490000Y-98735000D01*
X178350000Y-104735000D02*
X178350000Y-98735000D01*
X178350000Y-107807642D02*
X178350000Y-107495000D01*
X179190000Y-107495000D02*
X179190000Y-104735000D01*
X180030000Y-98735000D02*
X180030000Y-104735000D01*
X180030000Y-107807642D02*
X180030000Y-107495000D01*
X180890000Y-98735000D02*
X180030000Y-98735000D01*
X180890000Y-104735000D02*
X180890000Y-98735000D01*
X180890000Y-107807642D02*
X180890000Y-107495000D01*
X181730000Y-107495000D02*
X181730000Y-104735000D01*
X182570000Y-107725000D02*
X182570000Y-107495000D01*
X183000000Y-110155000D02*
X184270000Y-110155000D01*
X183430000Y-107725000D02*
X183430000Y-107495000D01*
X184270000Y-110155000D02*
X184270000Y-108885000D01*
X184380000Y-104735000D02*
X184380000Y-107495000D01*
X184380000Y-107495000D02*
X176540000Y-107495000D01*
X183430000Y-104735000D02*
X182570000Y-104735000D01*
X182570000Y-98735000D01*
X183430000Y-98735000D01*
X183430000Y-104735000D01*
G36*
X183430000Y-104735000D02*
G01*
X182570000Y-104735000D01*
X182570000Y-98735000D01*
X183430000Y-98735000D01*
X183430000Y-104735000D01*
G37*
%TO.C,J2*%
X123090000Y-105330000D02*
X123090000Y-102670000D01*
X130770000Y-102670000D02*
X123090000Y-102670000D01*
X130770000Y-105330000D02*
X123090000Y-105330000D01*
X130770000Y-105330000D02*
X130770000Y-102670000D01*
X133370000Y-102670000D02*
X132040000Y-102670000D01*
X133370000Y-104000000D02*
X133370000Y-102670000D01*
%TO.C,J1*%
X194490000Y-54620000D02*
X200510000Y-54620000D01*
X194490000Y-55200000D02*
X195090000Y-55200000D01*
X194490000Y-57740000D02*
X195090000Y-57740000D01*
X194490000Y-59920000D02*
X194490000Y-54620000D01*
X195090000Y-55200000D02*
X195090000Y-56800000D01*
X195090000Y-56800000D02*
X194490000Y-56800000D01*
X195090000Y-57740000D02*
X195090000Y-59340000D01*
X195090000Y-59340000D02*
X194490000Y-59340000D01*
X195520000Y-54330000D02*
X199520000Y-54330000D01*
X198980000Y-56250000D02*
X198980000Y-58290000D01*
X198980000Y-58290000D02*
X199510000Y-58540000D01*
X199510000Y-56000000D02*
X198980000Y-56250000D01*
X199510000Y-56000000D02*
X199510000Y-58540000D01*
X199510000Y-58540000D02*
X200510000Y-58540000D01*
X200510000Y-54620000D02*
X200510000Y-59920000D01*
X200510000Y-56000000D02*
X199510000Y-56000000D01*
X200510000Y-56250000D02*
X199510000Y-56250000D01*
X200510000Y-58290000D02*
X199510000Y-58290000D01*
X200510000Y-59920000D02*
X194490000Y-59920000D01*
%TO.C,D14*%
X132390000Y-63660000D02*
X132390000Y-56250000D01*
X134610000Y-56250000D02*
X134610000Y-63660000D01*
X134610000Y-63660000D02*
X132390000Y-63660000D01*
%TO.C,U2*%
X156090000Y-68650000D02*
X156090000Y-72410000D01*
X156090000Y-72410000D02*
X157350000Y-72410000D01*
X162910000Y-68650000D02*
X162910000Y-72410000D01*
X162910000Y-72410000D02*
X161650000Y-72410000D01*
X156190000Y-67370000D02*
X155860000Y-67610000D01*
X155860000Y-67130000D01*
X156190000Y-67370000D01*
G36*
X156190000Y-67370000D02*
G01*
X155860000Y-67610000D01*
X155860000Y-67130000D01*
X156190000Y-67370000D01*
G37*
%TO.C,U6*%
X126650000Y-76030000D02*
X126650000Y-72430000D01*
X126672316Y-72421555D02*
G75*
G02*
X130950000Y-73450000I1827684J-1808445D01*
G01*
X130950000Y-75050000D02*
G75*
G02*
X126657844Y-76041453I-2450000J820000D01*
G01*
%TO.C,R6*%
X128272936Y-68590000D02*
X129727064Y-68590000D01*
X128272936Y-70410000D02*
X129727064Y-70410000D01*
%TO.C,U1*%
X140900000Y-88140000D02*
X142400000Y-88140000D01*
X140900000Y-89140000D02*
X140900000Y-88140000D01*
X140900000Y-113990000D02*
X140900000Y-107790000D01*
X140900000Y-113990000D02*
X159300000Y-113990000D01*
X159300000Y-88140000D02*
X157800000Y-88140000D01*
X159300000Y-88140000D02*
X159300000Y-89140000D01*
X159300000Y-113990000D02*
X159300000Y-107790000D01*
X140900000Y-107615000D02*
X140400000Y-107115000D01*
X140900000Y-107115000D01*
X140900000Y-107615000D01*
G36*
X140900000Y-107615000D02*
G01*
X140400000Y-107115000D01*
X140900000Y-107115000D01*
X140900000Y-107615000D01*
G37*
%TO.C,R8*%
X111590000Y-54222936D02*
X111590000Y-55677064D01*
X113410000Y-54222936D02*
X113410000Y-55677064D01*
%TO.C,C7*%
X135090000Y-77354437D02*
X135090000Y-83110000D01*
X135090000Y-83110000D02*
X137440000Y-83110000D01*
X136154437Y-76290000D02*
X135090000Y-77354437D01*
X136154437Y-76290000D02*
X137440000Y-76290000D01*
X136258750Y-75656250D02*
X137046250Y-75656250D01*
X136652500Y-75262500D02*
X136652500Y-76050000D01*
X140845563Y-76290000D02*
X139560000Y-76290000D01*
X140845563Y-76290000D02*
X141910000Y-77354437D01*
X141910000Y-77354437D02*
X141910000Y-83110000D01*
X141910000Y-83110000D02*
X139560000Y-83110000D01*
%TO.C,R12*%
X110090000Y-85727064D02*
X110090000Y-84272936D01*
X111910000Y-85727064D02*
X111910000Y-84272936D01*
%TO.C,R9*%
X130272936Y-83090000D02*
X131727064Y-83090000D01*
X130272936Y-84910000D02*
X131727064Y-84910000D01*
%TO.C,R16*%
X149590000Y-54772936D02*
X149590000Y-56227064D01*
X151410000Y-54772936D02*
X151410000Y-56227064D01*
%TO.C,R11*%
X102772936Y-53090000D02*
X104227064Y-53090000D01*
X102772936Y-54910000D02*
X104227064Y-54910000D01*
%TO.C,JP3*%
X172100000Y-76200000D02*
X172100000Y-76800000D01*
X172800000Y-77500000D02*
X174200000Y-77500000D01*
X174200000Y-75500000D02*
X172800000Y-75500000D01*
X174900000Y-76800000D02*
X174900000Y-76200000D01*
X172100000Y-76200000D02*
G75*
G02*
X172800000Y-75500000I699999J1D01*
G01*
X172800000Y-77500000D02*
G75*
G02*
X172100000Y-76800000I-1J699999D01*
G01*
X174200000Y-75500000D02*
G75*
G02*
X174900000Y-76200000I0J-700000D01*
G01*
X174900000Y-76800000D02*
G75*
G02*
X174200000Y-77500000I-700000J0D01*
G01*
%TO.C,C1*%
X105211252Y-103290000D02*
X103788748Y-103290000D01*
X105211252Y-105110000D02*
X103788748Y-105110000D01*
%TO.C,C8*%
X159090000Y-82288748D02*
X159090000Y-83711252D01*
X160910000Y-82288748D02*
X160910000Y-83711252D01*
%TO.C,C12*%
X136590000Y-105211252D02*
X136590000Y-103788748D01*
X138410000Y-105211252D02*
X138410000Y-103788748D01*
%TO.C,C15*%
X162590000Y-98711252D02*
X162590000Y-97288748D01*
X164410000Y-98711252D02*
X164410000Y-97288748D01*
%TO.C,R13*%
X128227064Y-62590000D02*
X126772936Y-62590000D01*
X128227064Y-64410000D02*
X126772936Y-64410000D01*
%TO.C,U4*%
X173500000Y-78940000D02*
X171550000Y-78940000D01*
X173500000Y-78940000D02*
X175450000Y-78940000D01*
X173500000Y-84060000D02*
X171550000Y-84060000D01*
X173500000Y-84060000D02*
X175450000Y-84060000D01*
X176200000Y-79035000D02*
X175960000Y-78705000D01*
X176440000Y-78705000D01*
X176200000Y-79035000D01*
G36*
X176200000Y-79035000D02*
G01*
X175960000Y-78705000D01*
X176440000Y-78705000D01*
X176200000Y-79035000D01*
G37*
%TO.C,Q4*%
X128000000Y-57440000D02*
X127350000Y-57440000D01*
X128000000Y-57440000D02*
X128650000Y-57440000D01*
X128000000Y-60560000D02*
X127350000Y-60560000D01*
X128000000Y-60560000D02*
X128650000Y-60560000D01*
X127077500Y-60840000D02*
X126597500Y-60840000D01*
X126837500Y-60510000D01*
X127077500Y-60840000D01*
G36*
X127077500Y-60840000D02*
G01*
X126597500Y-60840000D01*
X126837500Y-60510000D01*
X127077500Y-60840000D01*
G37*
%TO.C,D7*%
X185850000Y-61210000D02*
X185850000Y-53800000D01*
X190150000Y-61210000D02*
X185850000Y-61210000D01*
X190150000Y-61210000D02*
X190150000Y-53800000D01*
%TO.C,D2*%
X109865000Y-69540000D02*
X112135000Y-69540000D01*
X109865000Y-73600000D02*
X109865000Y-69540000D01*
X112135000Y-69540000D02*
X112135000Y-73600000D01*
%TO.C,Q3*%
X106940000Y-54562500D02*
X106940000Y-53912500D01*
X106940000Y-54562500D02*
X106940000Y-55212500D01*
X110060000Y-54562500D02*
X110060000Y-53912500D01*
X110060000Y-54562500D02*
X110060000Y-55212500D01*
X110340000Y-55965000D02*
X110010000Y-55725000D01*
X110340000Y-55485000D01*
X110340000Y-55965000D01*
G36*
X110340000Y-55965000D02*
G01*
X110010000Y-55725000D01*
X110340000Y-55485000D01*
X110340000Y-55965000D01*
G37*
%TO.C,D1*%
X109865000Y-60540000D02*
X112135000Y-60540000D01*
X109865000Y-64600000D02*
X109865000Y-60540000D01*
X112135000Y-60540000D02*
X112135000Y-64600000D01*
%TO.C,C14*%
X145788748Y-83090000D02*
X147211252Y-83090000D01*
X145788748Y-84910000D02*
X147211252Y-84910000D01*
%TO.C,C13*%
X123788748Y-84910000D02*
X125211252Y-84910000D01*
X123788748Y-83090000D02*
X125211252Y-83090000D01*
%TO.C,R10*%
X126722936Y-53090000D02*
X128177064Y-53090000D01*
X126722936Y-54910000D02*
X128177064Y-54910000D01*
%TO.C,D3*%
X103890000Y-108650000D02*
X106550000Y-108650000D01*
X103890000Y-110350000D02*
X103890000Y-108650000D01*
X103890000Y-110350000D02*
X106550000Y-110350000D01*
%TO.C,Q2*%
X116090000Y-68590000D02*
X116090000Y-69850000D01*
X116090000Y-75410000D02*
X116090000Y-74150000D01*
X119850000Y-68590000D02*
X116090000Y-68590000D01*
X119850000Y-75410000D02*
X116090000Y-75410000D01*
X121130000Y-68690000D02*
X120890000Y-68360000D01*
X121370000Y-68360000D01*
X121130000Y-68690000D01*
G36*
X121130000Y-68690000D02*
G01*
X120890000Y-68360000D01*
X121370000Y-68360000D01*
X121130000Y-68690000D01*
G37*
%TO.C,D10*%
X148260000Y-78000000D02*
X149280000Y-78000000D01*
X149280000Y-76530000D02*
X154720000Y-76530000D01*
X149280000Y-79470000D02*
X149280000Y-76530000D01*
X150060000Y-79470000D02*
X150060000Y-76530000D01*
X150180000Y-79470000D02*
X150180000Y-76530000D01*
X150300000Y-79470000D02*
X150300000Y-76530000D01*
X154720000Y-76530000D02*
X154720000Y-79470000D01*
X154720000Y-79470000D02*
X149280000Y-79470000D01*
X155740000Y-78000000D02*
X154720000Y-78000000D01*
%TO.C,R19*%
X151272936Y-83090000D02*
X152727064Y-83090000D01*
X151272936Y-84910000D02*
X152727064Y-84910000D01*
%TO.C,R5*%
X99090000Y-58272936D02*
X99090000Y-59727064D01*
X100910000Y-58272936D02*
X100910000Y-59727064D01*
%TO.C,D9*%
X164530000Y-55860000D02*
X167470000Y-55860000D01*
X164530000Y-56640000D02*
X167470000Y-56640000D01*
X164530000Y-56760000D02*
X167470000Y-56760000D01*
X164530000Y-56880000D02*
X167470000Y-56880000D01*
X164530000Y-61300000D02*
X164530000Y-55860000D01*
X166000000Y-54840000D02*
X166000000Y-55860000D01*
X166000000Y-62320000D02*
X166000000Y-61300000D01*
X167470000Y-55860000D02*
X167470000Y-61300000D01*
X167470000Y-61300000D02*
X164530000Y-61300000D01*
%TO.C,D20*%
X149365000Y-59540000D02*
X151635000Y-59540000D01*
X149365000Y-63600000D02*
X149365000Y-59540000D01*
X151635000Y-59540000D02*
X151635000Y-63600000D01*
%TO.C,J4*%
X109090000Y-105330000D02*
X109090000Y-102670000D01*
X116770000Y-102670000D02*
X109090000Y-102670000D01*
X116770000Y-105330000D02*
X109090000Y-105330000D01*
X116770000Y-105330000D02*
X116770000Y-102670000D01*
X119370000Y-102670000D02*
X118040000Y-102670000D01*
X119370000Y-104000000D02*
X119370000Y-102670000D01*
%TO.C,C11*%
X136590000Y-94211252D02*
X136590000Y-92788748D01*
X138410000Y-94211252D02*
X138410000Y-92788748D01*
%TO.C,D8*%
X174780000Y-52030000D02*
X180220000Y-52030000D01*
X174780000Y-52360000D02*
X174780000Y-52030000D01*
X174780000Y-54640000D02*
X174780000Y-54970000D01*
X174780000Y-54970000D02*
X180220000Y-54970000D01*
X175560000Y-54970000D02*
X175560000Y-52030000D01*
X175680000Y-54970000D02*
X175680000Y-52030000D01*
X175800000Y-54970000D02*
X175800000Y-52030000D01*
X180220000Y-52030000D02*
X180220000Y-52360000D01*
X180220000Y-54970000D02*
X180220000Y-54640000D01*
%TO.C,D13*%
X111280000Y-108030000D02*
X111280000Y-108360000D01*
X111280000Y-110970000D02*
X111280000Y-110640000D01*
X115700000Y-108030000D02*
X115700000Y-110970000D01*
X115820000Y-108030000D02*
X115820000Y-110970000D01*
X115940000Y-108030000D02*
X115940000Y-110970000D01*
X116720000Y-108030000D02*
X111280000Y-108030000D01*
X116720000Y-108360000D02*
X116720000Y-108030000D01*
X116720000Y-110640000D02*
X116720000Y-110970000D01*
X116720000Y-110970000D02*
X111280000Y-110970000D01*
%TO.C,D11*%
X197710000Y-102850000D02*
X190300000Y-102850000D01*
X197710000Y-102850000D02*
X197710000Y-107150000D01*
X197710000Y-107150000D02*
X190300000Y-107150000D01*
%TO.C,J5*%
X164630000Y-105330000D02*
X164630000Y-102670000D01*
X167230000Y-102670000D02*
X164630000Y-102670000D01*
X167230000Y-105330000D02*
X164630000Y-105330000D01*
X167230000Y-105330000D02*
X167230000Y-102670000D01*
X169830000Y-102670000D02*
X168500000Y-102670000D01*
X169830000Y-104000000D02*
X169830000Y-102670000D01*
%TO.C,R3*%
X162590000Y-92227064D02*
X162590000Y-90772936D01*
X164410000Y-92227064D02*
X164410000Y-90772936D01*
%TO.C,R7*%
X110090000Y-79727064D02*
X110090000Y-78272936D01*
X111910000Y-79727064D02*
X111910000Y-78272936D01*
%TO.C,D15*%
X109840000Y-89390000D02*
X117250000Y-89390000D01*
X109840000Y-91610000D02*
X109840000Y-89390000D01*
X117250000Y-91610000D02*
X109840000Y-91610000D01*
%TO.C,R15*%
X103590000Y-58272936D02*
X103590000Y-59727064D01*
X105410000Y-58272936D02*
X105410000Y-59727064D01*
%TO.C,R1*%
X166090000Y-92227064D02*
X166090000Y-90772936D01*
X167910000Y-92227064D02*
X167910000Y-90772936D01*
%TO.C,SW2*%
X111900000Y-94700000D02*
X111900000Y-97300000D01*
X112000000Y-99250000D02*
X118000000Y-99250000D01*
X112100000Y-92750000D02*
X117900000Y-92750000D01*
X118100000Y-94700000D02*
X118100000Y-97300000D01*
X120100000Y-92700000D02*
X119100000Y-92700000D01*
X120100000Y-93700000D02*
X120100000Y-92700000D01*
%TO.C,C16*%
X170590000Y-98711252D02*
X170590000Y-97288748D01*
X172410000Y-98711252D02*
X172410000Y-97288748D01*
%TO.C,R17*%
X136590000Y-99727064D02*
X136590000Y-98272936D01*
X138410000Y-99727064D02*
X138410000Y-98272936D01*
%TO.C,C3*%
X152740000Y-53804437D02*
X152740000Y-63260000D01*
X152740000Y-63260000D02*
X156490000Y-63260000D01*
X153804437Y-52740000D02*
X152740000Y-53804437D01*
X153804437Y-52740000D02*
X156490000Y-52740000D01*
X154615000Y-51875000D02*
X155865000Y-51875000D01*
X155240000Y-51250000D02*
X155240000Y-52500000D01*
X162195563Y-52740000D02*
X159510000Y-52740000D01*
X162195563Y-52740000D02*
X163260000Y-53804437D01*
X163260000Y-53804437D02*
X163260000Y-63260000D01*
X163260000Y-63260000D02*
X159510000Y-63260000D01*
%TD*%
%LPC*%
%TO.C,JP3*%
G36*
X173350000Y-77250000D02*
G01*
X173650000Y-77250000D01*
X173650000Y-75750000D01*
X173350000Y-75750000D01*
X173350000Y-77250000D01*
G37*
%TD*%
D15*
%TO.C,FL2*%
X186025000Y-66150000D03*
X181975000Y-66150000D03*
X181975000Y-63850000D03*
X186025000Y-63850000D03*
%TD*%
D16*
%TO.C,FL1*%
X166650000Y-79975000D03*
X166650000Y-84025000D03*
X164350000Y-84025000D03*
X164350000Y-79975000D03*
%TD*%
D17*
%TO.C,JP1*%
X117750000Y-54000000D03*
X120290000Y-54000000D03*
%TD*%
D18*
%TO.C,D22*%
X168450000Y-99137500D03*
X166550000Y-99137500D03*
X167500000Y-96862500D03*
%TD*%
D19*
%TO.C,SW1*%
X132500000Y-93750000D03*
X124500000Y-93750000D03*
X132500000Y-98250000D03*
X124500000Y-98250000D03*
%TD*%
D20*
%TO.C,U3*%
X142200000Y-66850000D03*
X144500000Y-66850000D03*
D21*
X144500000Y-73150000D03*
D20*
X146800000Y-66850000D03*
%TD*%
D22*
%TO.C,C5*%
X142500000Y-54000000D03*
X142500000Y-62000000D03*
%TD*%
D23*
%TO.C,C10*%
X170500000Y-93062500D03*
X170500000Y-89937500D03*
%TD*%
D24*
%TO.C,C4*%
X169000000Y-73200000D03*
X169000000Y-67800000D03*
%TD*%
D25*
%TO.C,Q1*%
X121150000Y-60700000D03*
X121150000Y-63000000D03*
D26*
X114850000Y-63000000D03*
D25*
X121150000Y-65300000D03*
%TD*%
D27*
%TO.C,D21*%
X186950000Y-71350000D03*
X186950000Y-74650000D03*
X182050000Y-74650000D03*
X182050000Y-71350000D03*
%TD*%
D28*
%TO.C,R18*%
X126050000Y-88000000D03*
X122950000Y-88000000D03*
%TD*%
D23*
%TO.C,C2*%
X153500000Y-72125000D03*
X153500000Y-69000000D03*
%TD*%
%TO.C,C6*%
X138500000Y-71562500D03*
X138500000Y-68437500D03*
%TD*%
D17*
%TO.C,JP2*%
X130250000Y-79500000D03*
X127710000Y-79500000D03*
%TD*%
D29*
%TO.C,R14*%
X129450000Y-88000000D03*
X132550000Y-88000000D03*
%TD*%
D30*
%TO.C,D12*%
X195700000Y-110000000D03*
X190300000Y-110000000D03*
%TD*%
D31*
%TO.C,J3*%
X183000000Y-108885000D03*
D32*
X180460000Y-108885000D03*
X177920000Y-108885000D03*
%TD*%
D31*
%TO.C,J2*%
X132040000Y-104000000D03*
D32*
X129500000Y-104000000D03*
X126960000Y-104000000D03*
X124420000Y-104000000D03*
%TD*%
D33*
%TO.C,J1*%
X197520000Y-56000000D03*
D34*
X197520000Y-58540000D03*
%TD*%
D35*
%TO.C,D14*%
X133500000Y-61750000D03*
X133500000Y-56250000D03*
%TD*%
D20*
%TO.C,U2*%
X157200000Y-67350000D03*
X159500000Y-67350000D03*
D21*
X159500000Y-73650000D03*
D20*
X161800000Y-67350000D03*
%TD*%
D36*
%TO.C,U6*%
X128100000Y-75500000D03*
D37*
X130170000Y-74230000D03*
X128100000Y-72960000D03*
%TD*%
D29*
%TO.C,R6*%
X127450000Y-69500000D03*
X130550000Y-69500000D03*
%TD*%
D38*
%TO.C,U1*%
X141350000Y-106350000D03*
X141350000Y-105080000D03*
X141350000Y-103810000D03*
X141350000Y-102540000D03*
X141350000Y-101270000D03*
X141350000Y-100000000D03*
X141350000Y-98730000D03*
X141350000Y-97460000D03*
X141350000Y-96190000D03*
X141350000Y-94920000D03*
X141350000Y-93650000D03*
X141350000Y-92380000D03*
X141350000Y-91110000D03*
X141350000Y-89840000D03*
D39*
X143115000Y-88590000D03*
X144385000Y-88590000D03*
X145655000Y-88590000D03*
X146925000Y-88590000D03*
X148195000Y-88590000D03*
X149465000Y-88590000D03*
X150735000Y-88590000D03*
X152005000Y-88590000D03*
X153275000Y-88590000D03*
X154545000Y-88590000D03*
X155815000Y-88590000D03*
X157085000Y-88590000D03*
D38*
X158850000Y-89840000D03*
X158850000Y-91110000D03*
X158850000Y-92380000D03*
X158850000Y-93650000D03*
X158850000Y-94920000D03*
X158850000Y-96190000D03*
X158850000Y-97460000D03*
X158850000Y-98730000D03*
X158850000Y-100000000D03*
X158850000Y-101270000D03*
X158850000Y-102540000D03*
X158850000Y-103810000D03*
X158850000Y-105080000D03*
X158850000Y-106350000D03*
D40*
X147200000Y-97930000D03*
X147200000Y-99330000D03*
X147900000Y-97230000D03*
X147900000Y-98630000D03*
X147900000Y-100030000D03*
X148600000Y-97930000D03*
D41*
X148600000Y-98630000D03*
D40*
X148600000Y-99330000D03*
X149300000Y-97230000D03*
X149300000Y-98630000D03*
X149300000Y-100030000D03*
X150000000Y-97930000D03*
X150000000Y-99330000D03*
%TD*%
D42*
%TO.C,R8*%
X112500000Y-53400000D03*
X112500000Y-56500000D03*
%TD*%
D43*
%TO.C,C7*%
X138500000Y-77000000D03*
X138500000Y-82400000D03*
%TD*%
D44*
%TO.C,R12*%
X111000000Y-86550000D03*
X111000000Y-83450000D03*
%TD*%
D29*
%TO.C,R9*%
X129450000Y-84000000D03*
X132550000Y-84000000D03*
%TD*%
D42*
%TO.C,R16*%
X150500000Y-53950000D03*
X150500000Y-57050000D03*
%TD*%
D29*
%TO.C,R11*%
X101950000Y-54000000D03*
X105050000Y-54000000D03*
%TD*%
D45*
%TO.C,JP3*%
X172850000Y-76500000D03*
D46*
X174150000Y-76500000D03*
%TD*%
D47*
%TO.C,C1*%
X106062500Y-104200000D03*
X102937500Y-104200000D03*
%TD*%
D48*
%TO.C,C8*%
X160000000Y-81437500D03*
X160000000Y-84562500D03*
%TD*%
D23*
%TO.C,C12*%
X137500000Y-106062500D03*
X137500000Y-102937500D03*
%TD*%
%TO.C,C15*%
X163500000Y-99562500D03*
X163500000Y-96437500D03*
%TD*%
D28*
%TO.C,R13*%
X129050000Y-63500000D03*
X125950000Y-63500000D03*
%TD*%
D49*
%TO.C,U4*%
X175975000Y-79595000D03*
X175975000Y-80865000D03*
X175975000Y-82135000D03*
X175975000Y-83405000D03*
X171025000Y-83405000D03*
X171025000Y-82135000D03*
X171025000Y-80865000D03*
X171025000Y-79595000D03*
%TD*%
D50*
%TO.C,Q4*%
X127062500Y-59950000D03*
X127062500Y-58050000D03*
X128937500Y-59000000D03*
%TD*%
D51*
%TO.C,D7*%
X188000000Y-59200000D03*
X188000000Y-53800000D03*
%TD*%
D52*
%TO.C,D2*%
X111000000Y-70512500D03*
X111000000Y-73487500D03*
%TD*%
D53*
%TO.C,Q3*%
X109450000Y-55500000D03*
X107550000Y-55500000D03*
X108500000Y-53625000D03*
%TD*%
D52*
%TO.C,D1*%
X111000000Y-61512500D03*
X111000000Y-64487500D03*
%TD*%
D54*
%TO.C,C14*%
X144937500Y-84000000D03*
X148062500Y-84000000D03*
%TD*%
%TO.C,C13*%
X122937500Y-84000000D03*
X126062500Y-84000000D03*
%TD*%
D29*
%TO.C,R10*%
X125900000Y-54000000D03*
X129000000Y-54000000D03*
%TD*%
D55*
%TO.C,D3*%
X104450000Y-109500000D03*
X106550000Y-109500000D03*
%TD*%
D25*
%TO.C,Q2*%
X121150000Y-69700000D03*
X121150000Y-72000000D03*
D26*
X114850000Y-72000000D03*
D25*
X121150000Y-74300000D03*
%TD*%
D56*
%TO.C,D10*%
X146920000Y-78000000D03*
D57*
X157080000Y-78000000D03*
%TD*%
D29*
%TO.C,R19*%
X150450000Y-84000000D03*
X153550000Y-84000000D03*
%TD*%
D42*
%TO.C,R5*%
X100000000Y-57450000D03*
X100000000Y-60550000D03*
%TD*%
D56*
%TO.C,D9*%
X166000000Y-53500000D03*
D57*
X166000000Y-63660000D03*
%TD*%
D52*
%TO.C,D20*%
X150500000Y-60512500D03*
X150500000Y-63487500D03*
%TD*%
D31*
%TO.C,J4*%
X118040000Y-104000000D03*
D32*
X115500000Y-104000000D03*
X112960000Y-104000000D03*
X110420000Y-104000000D03*
%TD*%
D23*
%TO.C,C11*%
X137500000Y-95062500D03*
X137500000Y-91937500D03*
%TD*%
D58*
%TO.C,D8*%
X173690000Y-53500000D03*
D59*
X181310000Y-53500000D03*
%TD*%
D58*
%TO.C,D13*%
X117810000Y-109500000D03*
D59*
X110190000Y-109500000D03*
%TD*%
D30*
%TO.C,D11*%
X195700000Y-105000000D03*
X190300000Y-105000000D03*
%TD*%
D31*
%TO.C,J5*%
X168500000Y-104000000D03*
D32*
X165960000Y-104000000D03*
%TD*%
D44*
%TO.C,R3*%
X163500000Y-93050000D03*
X163500000Y-89950000D03*
%TD*%
%TO.C,R7*%
X111000000Y-80550000D03*
X111000000Y-77450000D03*
%TD*%
D60*
%TO.C,D15*%
X111750000Y-90500000D03*
X117250000Y-90500000D03*
%TD*%
D42*
%TO.C,R15*%
X104500000Y-57450000D03*
X104500000Y-60550000D03*
%TD*%
D44*
%TO.C,R1*%
X167000000Y-93050000D03*
X167000000Y-89950000D03*
%TD*%
D19*
%TO.C,SW2*%
X119000000Y-93750000D03*
X111000000Y-93750000D03*
X119000000Y-98250000D03*
X111000000Y-98250000D03*
%TD*%
D23*
%TO.C,C16*%
X171500000Y-99562500D03*
X171500000Y-96437500D03*
%TD*%
D44*
%TO.C,R17*%
X137500000Y-100550000D03*
X137500000Y-97450000D03*
%TD*%
D22*
%TO.C,C3*%
X158000000Y-54000000D03*
X158000000Y-62000000D03*
%TD*%
%LPD*%
M02*
