%TF.GenerationSoftware,KiCad,Pcbnew,9.0.1*%
%TF.CreationDate,2025-05-10T22:15:22+02:00*%
%TF.ProjectId,Workcross-ReverseCam,576f726b-6372-46f7-9373-2d5265766572,rev?*%
%TF.SameCoordinates,Original*%
%TF.FileFunction,Copper,L1,Top*%
%TF.FilePolarity,Positive*%
%FSLAX46Y46*%
G04 Gerber Fmt 4.6, Leading zero omitted, Abs format (unit mm)*
G04 Created by KiCad (PCBNEW 9.0.1) date 2025-05-10 22:15:22*
%MOMM*%
%LPD*%
G01*
G04 APERTURE LIST*
G04 Aperture macros list*
%AMRoundRect*
0 Rectangle with rounded corners*
0 $1 Rounding radius*
0 $2 $3 $4 $5 $6 $7 $8 $9 X,Y pos of 4 corners*
0 Add a 4 corners polygon primitive as box body*
4,1,4,$2,$3,$4,$5,$6,$7,$8,$9,$2,$3,0*
0 Add four circle primitives for the rounded corners*
1,1,$1+$1,$2,$3*
1,1,$1+$1,$4,$5*
1,1,$1+$1,$6,$7*
1,1,$1+$1,$8,$9*
0 Add four rect primitives between the rounded corners*
20,1,$1+$1,$2,$3,$4,$5,0*
20,1,$1+$1,$4,$5,$6,$7,0*
20,1,$1+$1,$6,$7,$8,$9,0*
20,1,$1+$1,$8,$9,$2,$3,0*%
G04 Aperture macros list end*
%TA.AperFunction,SMDPad,CuDef*%
%ADD10RoundRect,0.250000X0.900000X-1.500000X0.900000X1.500000X-0.900000X1.500000X-0.900000X-1.500000X0*%
%TD*%
%TA.AperFunction,SMDPad,CuDef*%
%ADD11RoundRect,0.250000X-0.900000X1.500000X-0.900000X-1.500000X0.900000X-1.500000X0.900000X1.500000X0*%
%TD*%
%TA.AperFunction,SMDPad,CuDef*%
%ADD12RoundRect,0.250000X1.500000X0.900000X-1.500000X0.900000X-1.500000X-0.900000X1.500000X-0.900000X0*%
%TD*%
%TA.AperFunction,ComponentPad*%
%ADD13C,1.400000*%
%TD*%
%TA.AperFunction,ComponentPad*%
%ADD14R,1.700000X1.700000*%
%TD*%
%TA.AperFunction,ComponentPad*%
%ADD15C,1.700000*%
%TD*%
%TA.AperFunction,ComponentPad*%
%ADD16RoundRect,0.250000X-0.845000X0.620000X-0.845000X-0.620000X0.845000X-0.620000X0.845000X0.620000X0*%
%TD*%
%TA.AperFunction,ComponentPad*%
%ADD17O,2.190000X1.740000*%
%TD*%
%TA.AperFunction,ComponentPad*%
%ADD18R,1.800000X1.100000*%
%TD*%
%TA.AperFunction,ComponentPad*%
%ADD19RoundRect,0.275000X0.625000X-0.275000X0.625000X0.275000X-0.625000X0.275000X-0.625000X-0.275000X0*%
%TD*%
%TA.AperFunction,HeatsinkPad*%
%ADD20C,0.600000*%
%TD*%
%TA.AperFunction,ComponentPad*%
%ADD21R,2.200000X2.200000*%
%TD*%
%TA.AperFunction,ComponentPad*%
%ADD22O,2.200000X2.200000*%
%TD*%
%TA.AperFunction,ComponentPad*%
%ADD23R,1.800000X1.800000*%
%TD*%
%TA.AperFunction,ComponentPad*%
%ADD24O,1.800000X1.800000*%
%TD*%
%TA.AperFunction,ViaPad*%
%ADD25C,0.800000*%
%TD*%
%TA.AperFunction,ViaPad*%
%ADD26C,0.600000*%
%TD*%
%TA.AperFunction,Conductor*%
%ADD27C,0.600000*%
%TD*%
%TA.AperFunction,Conductor*%
%ADD28C,0.200000*%
%TD*%
%TA.AperFunction,Conductor*%
%ADD29C,0.400000*%
%TD*%
G04 APERTURE END LIST*
D10*
%TO.P,D5,1,A1*%
%TO.N,/Controller/ESP.ESP_USB_D+*%
X127300000Y-97700000D03*
%TO.P,D5,2,A2*%
%TO.N,GND*%
X127300000Y-92300000D03*
%TD*%
D11*
%TO.P,D6,1,A1*%
%TO.N,/USB/USB_CON_VCC*%
X132000000Y-92300000D03*
%TO.P,D6,2,A2*%
%TO.N,/Controller/ESP.ESP_USB_D-*%
X132000000Y-97700000D03*
%TD*%
D12*
%TO.P,D4,1,A1*%
%TO.N,/USB/USB_CON_VCC*%
X133000000Y-86500000D03*
%TO.P,D4,2,A2*%
%TO.N,GND*%
X127600000Y-86500000D03*
%TD*%
D13*
%TO.P,JP1,1,A*%
%TO.N,/Controller/ESP.IO4*%
X117750000Y-54000000D03*
%TO.P,JP1,2,B*%
%TO.N,+5V*%
X120290000Y-54000000D03*
%TD*%
%TO.P,JP2,1,A*%
%TO.N,+3V3*%
X130250000Y-79500000D03*
%TO.P,JP2,2,B*%
%TO.N,/Controller/ESP.IO5*%
X127710000Y-79500000D03*
%TD*%
D14*
%TO.P,J3,1,Pin_1*%
%TO.N,/GPIO/SW_5V_Cam_Out*%
X183000000Y-108885000D03*
D15*
%TO.P,J3,2,Pin_2*%
%TO.N,/GPIO/SW_3V3_LEDLight_Out*%
X180460000Y-108885000D03*
%TO.P,J3,3,Pin_3*%
%TO.N,GND*%
X177920000Y-108885000D03*
%TD*%
D14*
%TO.P,J2,1,Pin_1*%
%TO.N,/USB/USB_CON_VCC*%
X132040000Y-104000000D03*
D15*
%TO.P,J2,2,Pin_2*%
%TO.N,/Controller/ESP.ESP_USB_D-*%
X129500000Y-104000000D03*
%TO.P,J2,3,Pin_3*%
%TO.N,/Controller/ESP.ESP_USB_D+*%
X126960000Y-104000000D03*
%TO.P,J2,4,Pin_4*%
%TO.N,GND*%
X124420000Y-104000000D03*
%TD*%
D16*
%TO.P,J1,1,Pin_1*%
%TO.N,VBAT_12V*%
X197520000Y-56000000D03*
D17*
%TO.P,J1,2,Pin_2*%
%TO.N,GND_BAT*%
X197520000Y-58540000D03*
%TD*%
D18*
%TO.P,U6,1,GND*%
%TO.N,GND*%
X128100000Y-75500000D03*
D19*
%TO.P,U6,2,DQ*%
%TO.N,Net-(U6-DQ)*%
X130170000Y-74230000D03*
%TO.P,U6,3,V_{DD}*%
%TO.N,+5V*%
X128100000Y-72960000D03*
%TD*%
D20*
%TO.P,U1,41,GND*%
%TO.N,GND*%
X147200000Y-97930000D03*
X147200000Y-99330000D03*
X147900000Y-97230000D03*
X147900000Y-98630000D03*
X147900000Y-100030000D03*
X148600000Y-97930000D03*
X148600000Y-99330000D03*
X149300000Y-97230000D03*
X149300000Y-98630000D03*
X149300000Y-100030000D03*
X150000000Y-97930000D03*
X150000000Y-99330000D03*
%TD*%
D21*
%TO.P,D10,1,K*%
%TO.N,/Power Supply/REG_5V_IN*%
X146920000Y-78000000D03*
D22*
%TO.P,D10,2,A*%
%TO.N,+5V*%
X157080000Y-78000000D03*
%TD*%
D21*
%TO.P,D9,1,K*%
%TO.N,/Power Supply/REG_12V_IN*%
X166000000Y-53500000D03*
D22*
%TO.P,D9,2,A*%
%TO.N,+12V*%
X166000000Y-63660000D03*
%TD*%
D14*
%TO.P,J4,1,Pin_1*%
%TO.N,+3V3*%
X118040000Y-104000000D03*
D15*
%TO.P,J4,2,Pin_2*%
%TO.N,/Controller/ESP.ESP_RxD*%
X115500000Y-104000000D03*
%TO.P,J4,3,Pin_3*%
%TO.N,/Controller/ESP.ESP_TxD*%
X112960000Y-104000000D03*
%TO.P,J4,4,Pin_4*%
%TO.N,GND*%
X110420000Y-104000000D03*
%TD*%
D23*
%TO.P,D8,1,K*%
%TO.N,+12V*%
X173690000Y-53500000D03*
D24*
%TO.P,D8,2,A*%
%TO.N,GND*%
X181310000Y-53500000D03*
%TD*%
D23*
%TO.P,D13,1,K*%
%TO.N,/USB/USB_CON_VCC*%
X117810000Y-109500000D03*
D24*
%TO.P,D13,2,A*%
%TO.N,GND*%
X110190000Y-109500000D03*
%TD*%
D14*
%TO.P,J5,1,Pin_1*%
%TO.N,/CAN/CAN+*%
X168500000Y-104000000D03*
D15*
%TO.P,J5,2,Pin_2*%
%TO.N,/CAN/CAN-*%
X165960000Y-104000000D03*
%TD*%
D25*
%TO.N,GND*%
X136714000Y-74239000D03*
%TO.N,+3V3*%
X129690203Y-90625000D03*
%TO.N,GND*%
X123100000Y-89900000D03*
X131100000Y-95000000D03*
X118950000Y-59825000D03*
X130850000Y-60300000D03*
%TO.N,/GPIO/SW_5V_Cam_Out*%
X123050000Y-63225000D03*
X176549650Y-67600350D03*
%TO.N,/GPIO/SW_3V3_LEDLight_Out*%
X113225000Y-77825000D03*
%TO.N,+3V3*%
X120125000Y-76175000D03*
X188775000Y-75950000D03*
X141775000Y-79500000D03*
D26*
%TO.N,/Controller/GPIO0*%
X125833000Y-95254600D03*
X151478000Y-95276300D03*
X129766000Y-95995400D03*
X133810000Y-98249900D03*
%TO.N,Net-(Q3-B)*%
X100552000Y-54476900D03*
X114700000Y-55641400D03*
%TO.N,Net-(D15-A)*%
X117950000Y-87000000D03*
X112066000Y-84609500D03*
D25*
%TO.N,/GPIO/SW_3V3_LEDLight_Out*%
X178052000Y-86577100D03*
%TO.N,/USB/USB_CON_VCC*%
X134096000Y-100700000D03*
D26*
%TO.N,/Controller/ESP.IO6*%
X181690000Y-70382800D03*
X184317000Y-95331700D03*
X188175000Y-80125000D03*
X139634000Y-98206700D03*
D25*
%TO.N,+3V3*%
X131100000Y-84264700D03*
X144016000Y-90147200D03*
D26*
%TO.N,/Controller/ESP.IO8*%
X175975000Y-73450000D03*
X184202000Y-92413500D03*
X142622000Y-92856700D03*
X179400000Y-72650000D03*
%TO.N,/Controller/ESP.IO5*%
X142651000Y-100826000D03*
X134350000Y-83300000D03*
X145582000Y-90003800D03*
X151766000Y-98235900D03*
%TO.N,/Controller/ESP.ESP_RxD*%
X157051000Y-104037000D03*
%TO.N,/Controller/ESP.IO4*%
X139667000Y-54476900D03*
X135077000Y-88679700D03*
X142958000Y-91531800D03*
%TO.N,/Controller/ESP.IO10*%
X146762000Y-90147200D03*
X172812000Y-82217400D03*
%TO.N,/Controller/ESP.ESP_TxD*%
X157277000Y-104929000D03*
%TO.N,/Controller/CHIP_PU*%
X130764000Y-102392000D03*
X139864000Y-102677000D03*
%TO.N,/Controller/ESP.IO7*%
X136176000Y-80600000D03*
X134965000Y-89564800D03*
X124468000Y-78243100D03*
X139884000Y-94580900D03*
%TO.N,/Controller/ESP.IO9*%
X145655000Y-86695400D03*
X175533000Y-86118600D03*
D25*
%TO.N,+5V*%
X177151000Y-76992900D03*
%TO.N,GND*%
X136714000Y-63231500D03*
%TD*%
D27*
%TO.N,+3V3*%
X187350000Y-77375000D02*
X188775000Y-75950000D01*
X177825000Y-80100000D02*
X180550000Y-77375000D01*
X148075000Y-80500000D02*
X148475000Y-80100000D01*
X145125000Y-80500000D02*
X148075000Y-80500000D01*
X144325000Y-79700000D02*
X145125000Y-80500000D01*
X141975000Y-79700000D02*
X144325000Y-79700000D01*
X141775000Y-79500000D02*
X141975000Y-79700000D01*
X141775000Y-79500000D02*
X130250000Y-79500000D01*
X148475000Y-80100000D02*
X177825000Y-80100000D01*
X180550000Y-77375000D02*
X187350000Y-77375000D01*
%TO.N,GND*%
X135453000Y-75500000D02*
X128500000Y-75500000D01*
X136714000Y-74239000D02*
X135453000Y-75500000D01*
%TO.N,+3V3*%
X130300000Y-85064700D02*
X131100000Y-84264700D01*
X130300000Y-90015203D02*
X130300000Y-85064700D01*
X129690203Y-90625000D02*
X130300000Y-90015203D01*
X144015900Y-90147200D02*
X144016000Y-90147200D01*
X138268700Y-84400000D02*
X144015900Y-90147200D01*
X131275000Y-84400000D02*
X138268700Y-84400000D01*
X131139700Y-84264700D02*
X131275000Y-84400000D01*
X131100000Y-84264700D02*
X131139700Y-84264700D01*
D28*
%TO.N,/Controller/ESP.IO4*%
X138693900Y-55450000D02*
X119200000Y-55450000D01*
X139667000Y-54476900D02*
X138693900Y-55450000D01*
X119200000Y-55450000D02*
X117750000Y-54000000D01*
%TO.N,/Controller/ESP.IO5*%
X145582000Y-88868000D02*
X145582000Y-90003800D01*
X145582000Y-88857000D02*
X145582000Y-90003800D01*
X134350000Y-83300000D02*
X140025000Y-83300000D01*
X140025000Y-83300000D02*
X145582000Y-88857000D01*
D27*
%TO.N,/USB/USB_CON_VCC*%
X132000000Y-89750000D02*
X132000000Y-92300000D01*
X133000000Y-88750000D02*
X132000000Y-89750000D01*
X133000000Y-86500000D02*
X133000000Y-88750000D01*
X134742000Y-100053000D02*
X134096000Y-100700000D01*
X134742000Y-95042000D02*
X134742000Y-100053000D01*
X132000000Y-92300000D02*
X134742000Y-95042000D01*
D28*
%TO.N,/Controller/ESP.IO10*%
X148109200Y-88800000D02*
X146762000Y-90147200D01*
X178725000Y-88800000D02*
X148109200Y-88800000D01*
X175767400Y-82217400D02*
X179675000Y-86125000D01*
X179675000Y-86125000D02*
X179675000Y-87850000D01*
X172812000Y-82217400D02*
X175767400Y-82217400D01*
X179675000Y-87850000D02*
X178725000Y-88800000D01*
%TO.N,/Controller/ESP.IO9*%
X175464400Y-86050000D02*
X146300400Y-86050000D01*
X146300400Y-86050000D02*
X145655000Y-86695400D01*
X175533000Y-86118600D02*
X175464400Y-86050000D01*
%TO.N,/Controller/ESP.IO6*%
X183190600Y-70375000D02*
X183182800Y-70382800D01*
X189975000Y-75200000D02*
X185150000Y-70375000D01*
X183182800Y-70382800D02*
X181690000Y-70382800D01*
X188175000Y-80125000D02*
X188187500Y-80137500D01*
X188187500Y-80137500D02*
X189975000Y-78350000D01*
X189975000Y-78350000D02*
X189975000Y-75200000D01*
X185150000Y-70375000D02*
X183190600Y-70375000D01*
%TO.N,/Controller/ESP.IO8*%
X178600000Y-73450000D02*
X179400000Y-72650000D01*
X175975000Y-73450000D02*
X178600000Y-73450000D01*
D27*
%TO.N,GND*%
X111525000Y-101950000D02*
X110420000Y-103055000D01*
X110420000Y-103055000D02*
X110420000Y-104000000D01*
X122370000Y-101950000D02*
X111525000Y-101950000D01*
X124420000Y-104000000D02*
X122370000Y-101950000D01*
X125500000Y-92300000D02*
X123100000Y-89900000D01*
X127300000Y-92300000D02*
X125500000Y-92300000D01*
X127300000Y-86800000D02*
X127600000Y-86500000D01*
X127300000Y-92300000D02*
X127300000Y-86800000D01*
X130000000Y-95000000D02*
X127300000Y-92300000D01*
X131100000Y-95000000D02*
X130000000Y-95000000D01*
X110190000Y-104230000D02*
X110420000Y-104000000D01*
X110190000Y-109500000D02*
X110190000Y-104230000D01*
D28*
%TO.N,Net-(Q3-B)*%
X110217000Y-54476900D02*
X100552000Y-54476900D01*
X111381500Y-55641400D02*
X110217000Y-54476900D01*
X114700000Y-55641400D02*
X111381500Y-55641400D01*
D27*
%TO.N,GND*%
X119425000Y-60300000D02*
X118950000Y-59825000D01*
X120500000Y-60300000D02*
X119425000Y-60300000D01*
X130850000Y-60300000D02*
X120500000Y-60300000D01*
X130836700Y-60313300D02*
X130850000Y-60300000D01*
X130836700Y-60313300D02*
X133796000Y-60313300D01*
X133796000Y-60313300D02*
X136714000Y-63231500D01*
%TO.N,/GPIO/SW_5V_Cam_Out*%
X123665000Y-63225000D02*
X123050000Y-63225000D01*
X123670000Y-63230000D02*
X123665000Y-63225000D01*
X123670000Y-63231500D02*
X123670000Y-63230000D01*
X127906500Y-63231500D02*
X123670000Y-63231500D01*
X173650350Y-67600350D02*
X173650000Y-67600000D01*
X132275000Y-67600000D02*
X127906500Y-63231500D01*
X176549650Y-67600350D02*
X173650350Y-67600350D01*
X173650000Y-67600000D02*
X132275000Y-67600000D01*
%TO.N,+3V3*%
X129975000Y-79500000D02*
X130250000Y-79500000D01*
X122300000Y-76175000D02*
X123051700Y-76926700D01*
X123051700Y-76926700D02*
X127401700Y-76926700D01*
X127401700Y-76926700D02*
X129975000Y-79500000D01*
X120125000Y-76175000D02*
X122300000Y-76175000D01*
%TO.N,/GPIO/SW_3V3_LEDLight_Out*%
X113222500Y-77822500D02*
X113225000Y-77825000D01*
X113222000Y-77822500D02*
X113222500Y-77822500D01*
D28*
%TO.N,Net-(D15-A)*%
X117950000Y-87000000D02*
X114456500Y-87000000D01*
X114456500Y-87000000D02*
X112066000Y-84609500D01*
%TO.N,/Controller/GPIO0*%
X140989000Y-95276300D02*
X151478000Y-95276300D01*
X134626000Y-101639000D02*
X140989000Y-95276300D01*
X133700000Y-101639000D02*
X134626000Y-101639000D01*
X133183000Y-101122000D02*
X133700000Y-101639000D01*
X133183000Y-100319000D02*
X133183000Y-101122000D01*
X133810000Y-99692100D02*
X133183000Y-100319000D01*
X133810000Y-98249900D02*
X133810000Y-99692100D01*
X129025000Y-95254600D02*
X125833000Y-95254600D01*
X129766000Y-95995400D02*
X129025000Y-95254600D01*
D27*
%TO.N,/GPIO/SW_3V3_LEDLight_Out*%
X121876000Y-77822500D02*
X113222000Y-77822500D01*
X127319000Y-83264700D02*
X121876000Y-77822500D01*
X132435000Y-83264700D02*
X127319000Y-83264700D01*
X133650000Y-82050000D02*
X132435000Y-83264700D01*
X168350000Y-82050000D02*
X133650000Y-82050000D01*
X170850000Y-84550000D02*
X168350000Y-82050000D01*
X176025000Y-84550000D02*
X170850000Y-84550000D01*
X178052000Y-86577100D02*
X176025000Y-84550000D01*
D28*
%TO.N,/Controller/ESP.IO6*%
X141929000Y-95911500D02*
X139634000Y-98206700D01*
X183737000Y-95911500D02*
X141929000Y-95911500D01*
X184317000Y-95331700D02*
X183737000Y-95911500D01*
%TO.N,/Controller/ESP.IO8*%
X183759000Y-92856700D02*
X184202000Y-92413500D01*
X142622000Y-92856700D02*
X183759000Y-92856700D01*
%TO.N,/Controller/ESP.IO5*%
X150003000Y-96472700D02*
X151766000Y-98235900D01*
X147665000Y-96472700D02*
X150003000Y-96472700D01*
X147198000Y-96939400D02*
X147665000Y-96472700D01*
X147198000Y-96939500D02*
X147198000Y-96939400D01*
X146537000Y-96939500D02*
X147198000Y-96939500D01*
X142651000Y-100826000D02*
X146537000Y-96939500D01*
%TO.N,/Controller/ESP.ESP_RxD*%
X116863000Y-105363000D02*
X115500000Y-104000000D01*
X155726000Y-105363000D02*
X116863000Y-105363000D01*
X157051000Y-104037000D02*
X155726000Y-105363000D01*
%TO.N,/Controller/ESP.IO4*%
X137929000Y-91531800D02*
X142958000Y-91531800D01*
X135077000Y-88679700D02*
X137929000Y-91531800D01*
%TO.N,/Controller/ESP.ESP_TxD*%
X156404000Y-105803000D02*
X157277000Y-104929000D01*
X114763000Y-105803000D02*
X156404000Y-105803000D01*
X112960000Y-104000000D02*
X114763000Y-105803000D01*
%TO.N,/Controller/CHIP_PU*%
X139579000Y-102392000D02*
X139864000Y-102677000D01*
X130764000Y-102392000D02*
X139579000Y-102392000D01*
%TO.N,/Controller/ESP.IO7*%
X139884000Y-94483900D02*
X134965000Y-89564800D01*
X139884000Y-94580900D02*
X139884000Y-94483900D01*
X127276000Y-81050700D02*
X124468000Y-78243100D01*
X135725000Y-81050700D02*
X127276000Y-81050700D01*
X136176000Y-80600000D02*
X135725000Y-81050700D01*
%TO.N,/Controller/ESP.ESP_USB_D-*%
X132000000Y-98300000D02*
X132000000Y-97700000D01*
X129875000Y-100425000D02*
X132000000Y-98300000D01*
X129875000Y-101721000D02*
X129875000Y-100425000D01*
X129500000Y-102096000D02*
X129875000Y-101721000D01*
X129500000Y-104000000D02*
X129500000Y-102096000D01*
%TO.N,/Controller/ESP.ESP_USB_D+*%
X127300000Y-98300000D02*
X127300000Y-97700000D01*
X129425000Y-100425000D02*
X127300000Y-98300000D01*
X129425000Y-101535000D02*
X129425000Y-100425000D01*
X126960000Y-104000000D02*
X129425000Y-101535000D01*
D29*
%TO.N,+5V*%
X130310000Y-71150000D02*
X128500000Y-72960000D01*
X150230000Y-71150000D02*
X130310000Y-71150000D01*
X157080000Y-78000000D02*
X150230000Y-71150000D01*
X158087000Y-76992900D02*
X157080000Y-78000000D01*
X177151000Y-76992900D02*
X158087000Y-76992900D01*
%TO.N,GND*%
X147200000Y-97930000D02*
X148600000Y-97930000D01*
X147900000Y-97230000D02*
X149300000Y-97230000D01*
X148600000Y-99330000D02*
X147200000Y-99330000D01*
X147900000Y-98630000D02*
X149300000Y-98630000D01*
X150000000Y-97930000D02*
X148600000Y-97930000D01*
%TD*%
M02*
