%TF.GenerationSoftware,KiCad,Pcbnew,9.0.1*%
%TF.CreationDate,2025-05-10T22:15:22+02:00*%
%TF.ProjectId,Workcross-ReverseCam,576f726b-6372-46f7-9373-2d5265766572,rev?*%
%TF.SameCoordinates,Original*%
%TF.FileFunction,Paste,Bot*%
%TF.FilePolarity,Positive*%
%FSLAX46Y46*%
G04 Gerber Fmt 4.6, Leading zero omitted, Abs format (unit mm)*
G04 Created by KiCad (PCBNEW 9.0.1) date 2025-05-10 22:15:22*
%MOMM*%
%LPD*%
G01*
G04 APERTURE LIST*
G04 Aperture macros list*
%AMRoundRect*
0 Rectangle with rounded corners*
0 $1 Rounding radius*
0 $2 $3 $4 $5 $6 $7 $8 $9 X,Y pos of 4 corners*
0 Add a 4 corners polygon primitive as box body*
4,1,4,$2,$3,$4,$5,$6,$7,$8,$9,$2,$3,0*
0 Add four circle primitives for the rounded corners*
1,1,$1+$1,$2,$3*
1,1,$1+$1,$4,$5*
1,1,$1+$1,$6,$7*
1,1,$1+$1,$8,$9*
0 Add four rect primitives between the rounded corners*
20,1,$1+$1,$2,$3,$4,$5,0*
20,1,$1+$1,$4,$5,$6,$7,0*
20,1,$1+$1,$6,$7,$8,$9,0*
20,1,$1+$1,$8,$9,$2,$3,0*%
G04 Aperture macros list end*
%ADD10R,1.850000X1.700000*%
%ADD11R,1.700000X1.850000*%
%ADD12RoundRect,0.150000X0.150000X-0.512500X0.150000X0.512500X-0.150000X0.512500X-0.150000X-0.512500X0*%
%ADD13R,1.600000X1.400000*%
%ADD14RoundRect,0.375000X-0.375000X0.625000X-0.375000X-0.625000X0.375000X-0.625000X0.375000X0.625000X0*%
%ADD15RoundRect,0.500000X-1.400000X0.500000X-1.400000X-0.500000X1.400000X-0.500000X1.400000X0.500000X0*%
%ADD16RoundRect,0.250000X-1.000000X1.750000X-1.000000X-1.750000X1.000000X-1.750000X1.000000X1.750000X0*%
%ADD17RoundRect,0.250000X0.650000X-0.412500X0.650000X0.412500X-0.650000X0.412500X-0.650000X-0.412500X0*%
%ADD18RoundRect,0.250000X0.550000X-1.500000X0.550000X1.500000X-0.550000X1.500000X-0.550000X-1.500000X0*%
%ADD19RoundRect,0.375000X0.625000X0.375000X-0.625000X0.375000X-0.625000X-0.375000X0.625000X-0.375000X0*%
%ADD20RoundRect,0.500000X0.500000X1.400000X-0.500000X1.400000X-0.500000X-1.400000X0.500000X-1.400000X0*%
%ADD21RoundRect,0.090000X0.660000X0.360000X-0.660000X0.360000X-0.660000X-0.360000X0.660000X-0.360000X0*%
%ADD22RoundRect,0.250000X0.400000X0.625000X-0.400000X0.625000X-0.400000X-0.625000X0.400000X-0.625000X0*%
%ADD23RoundRect,0.250000X-0.400000X-0.625000X0.400000X-0.625000X0.400000X0.625000X-0.400000X0.625000X0*%
%ADD24RoundRect,0.250000X1.500000X0.900000X-1.500000X0.900000X-1.500000X-0.900000X1.500000X-0.900000X0*%
%ADD25RoundRect,0.250000X0.600000X-1.400000X0.600000X1.400000X-0.600000X1.400000X-0.600000X-1.400000X0*%
%ADD26R,0.900000X0.900000*%
%ADD27R,1.500000X0.900000*%
%ADD28R,0.900000X1.500000*%
%ADD29RoundRect,0.250000X-0.625000X0.400000X-0.625000X-0.400000X0.625000X-0.400000X0.625000X0.400000X0*%
%ADD30RoundRect,0.250000X-0.550000X1.500000X-0.550000X-1.500000X0.550000X-1.500000X0.550000X1.500000X0*%
%ADD31RoundRect,0.250000X0.625000X-0.400000X0.625000X0.400000X-0.625000X0.400000X-0.625000X-0.400000X0*%
%ADD32RoundRect,0.250000X0.412500X0.650000X-0.412500X0.650000X-0.412500X-0.650000X0.412500X-0.650000X0*%
%ADD33RoundRect,0.250000X-0.650000X0.412500X-0.650000X-0.412500X0.650000X-0.412500X0.650000X0.412500X0*%
%ADD34RoundRect,0.150000X0.825000X0.150000X-0.825000X0.150000X-0.825000X-0.150000X0.825000X-0.150000X0*%
%ADD35RoundRect,0.150000X-0.587500X-0.150000X0.587500X-0.150000X0.587500X0.150000X-0.587500X0.150000X0*%
%ADD36RoundRect,0.250000X0.900000X-1.500000X0.900000X1.500000X-0.900000X1.500000X-0.900000X-1.500000X0*%
%ADD37RoundRect,0.250001X-0.624999X0.462499X-0.624999X-0.462499X0.624999X-0.462499X0.624999X0.462499X0*%
%ADD38RoundRect,0.150000X0.150000X-0.587500X0.150000X0.587500X-0.150000X0.587500X-0.150000X-0.587500X0*%
%ADD39RoundRect,0.250000X-0.412500X-0.650000X0.412500X-0.650000X0.412500X0.650000X-0.412500X0.650000X0*%
%ADD40RoundRect,0.112500X-0.187500X-0.112500X0.187500X-0.112500X0.187500X0.112500X-0.187500X0.112500X0*%
%ADD41RoundRect,0.250000X-1.400000X-0.600000X1.400000X-0.600000X1.400000X0.600000X-1.400000X0.600000X0*%
G04 APERTURE END LIST*
D10*
%TO.C,FL2*%
X186025000Y-66150000D03*
X181975000Y-66150000D03*
X181975000Y-63850000D03*
X186025000Y-63850000D03*
%TD*%
D11*
%TO.C,FL1*%
X166650000Y-79975000D03*
X166650000Y-84025000D03*
X164350000Y-84025000D03*
X164350000Y-79975000D03*
%TD*%
D12*
%TO.C,D22*%
X168450000Y-99137500D03*
X166550000Y-99137500D03*
X167500000Y-96862500D03*
%TD*%
D13*
%TO.C,SW1*%
X132500000Y-93750000D03*
X124500000Y-93750000D03*
X132500000Y-98250000D03*
X124500000Y-98250000D03*
%TD*%
D14*
%TO.C,U3*%
X142200000Y-66850000D03*
X144500000Y-66850000D03*
D15*
X144500000Y-73150000D03*
D14*
X146800000Y-66850000D03*
%TD*%
D16*
%TO.C,C5*%
X142500000Y-54000000D03*
X142500000Y-62000000D03*
%TD*%
D17*
%TO.C,C10*%
X170500000Y-93062500D03*
X170500000Y-89937500D03*
%TD*%
D18*
%TO.C,C4*%
X169000000Y-73200000D03*
X169000000Y-67800000D03*
%TD*%
D19*
%TO.C,Q1*%
X121150000Y-60700000D03*
X121150000Y-63000000D03*
D20*
X114850000Y-63000000D03*
D19*
X121150000Y-65300000D03*
%TD*%
D21*
%TO.C,D21*%
X186950000Y-71350000D03*
X186950000Y-74650000D03*
X182050000Y-74650000D03*
X182050000Y-71350000D03*
%TD*%
D22*
%TO.C,R18*%
X126050000Y-88000000D03*
X122950000Y-88000000D03*
%TD*%
D17*
%TO.C,C2*%
X153500000Y-72125000D03*
X153500000Y-69000000D03*
%TD*%
%TO.C,C6*%
X138500000Y-71562500D03*
X138500000Y-68437500D03*
%TD*%
D23*
%TO.C,R14*%
X129450000Y-88000000D03*
X132550000Y-88000000D03*
%TD*%
D24*
%TO.C,D12*%
X195700000Y-110000000D03*
X190300000Y-110000000D03*
%TD*%
D25*
%TO.C,D14*%
X133500000Y-61750000D03*
X133500000Y-56250000D03*
%TD*%
D14*
%TO.C,U2*%
X157200000Y-67350000D03*
X159500000Y-67350000D03*
D15*
X159500000Y-73650000D03*
D14*
X161800000Y-67350000D03*
%TD*%
D23*
%TO.C,R6*%
X127450000Y-69500000D03*
X130550000Y-69500000D03*
%TD*%
D26*
%TO.C,U1*%
X147200000Y-97230000D03*
X147200000Y-98630000D03*
X147200000Y-100030000D03*
X148600000Y-97230000D03*
X148600000Y-98630000D03*
X148600000Y-100030000D03*
X150000000Y-97230000D03*
X150000000Y-98630000D03*
X150000000Y-100030000D03*
D27*
X141350000Y-106350000D03*
X141350000Y-105080000D03*
X141350000Y-103810000D03*
X141350000Y-102540000D03*
X141350000Y-101270000D03*
X141350000Y-100000000D03*
X141350000Y-98730000D03*
X141350000Y-97460000D03*
X141350000Y-96190000D03*
X141350000Y-94920000D03*
X141350000Y-93650000D03*
X141350000Y-92380000D03*
X141350000Y-91110000D03*
X141350000Y-89840000D03*
D28*
X143115000Y-88590000D03*
X144385000Y-88590000D03*
X145655000Y-88590000D03*
X146925000Y-88590000D03*
X148195000Y-88590000D03*
X149465000Y-88590000D03*
X150735000Y-88590000D03*
X152005000Y-88590000D03*
X153275000Y-88590000D03*
X154545000Y-88590000D03*
X155815000Y-88590000D03*
X157085000Y-88590000D03*
D27*
X158850000Y-89840000D03*
X158850000Y-91110000D03*
X158850000Y-92380000D03*
X158850000Y-93650000D03*
X158850000Y-94920000D03*
X158850000Y-96190000D03*
X158850000Y-97460000D03*
X158850000Y-98730000D03*
X158850000Y-100000000D03*
X158850000Y-101270000D03*
X158850000Y-102540000D03*
X158850000Y-103810000D03*
X158850000Y-105080000D03*
X158850000Y-106350000D03*
%TD*%
D29*
%TO.C,R8*%
X112500000Y-53400000D03*
X112500000Y-56500000D03*
%TD*%
D30*
%TO.C,C7*%
X138500000Y-77000000D03*
X138500000Y-82400000D03*
%TD*%
D31*
%TO.C,R12*%
X111000000Y-86550000D03*
X111000000Y-83450000D03*
%TD*%
D23*
%TO.C,R9*%
X129450000Y-84000000D03*
X132550000Y-84000000D03*
%TD*%
D29*
%TO.C,R16*%
X150500000Y-53950000D03*
X150500000Y-57050000D03*
%TD*%
D23*
%TO.C,R11*%
X101950000Y-54000000D03*
X105050000Y-54000000D03*
%TD*%
D32*
%TO.C,C1*%
X106062500Y-104200000D03*
X102937500Y-104200000D03*
%TD*%
D33*
%TO.C,C8*%
X160000000Y-81437500D03*
X160000000Y-84562500D03*
%TD*%
D17*
%TO.C,C12*%
X137500000Y-106062500D03*
X137500000Y-102937500D03*
%TD*%
%TO.C,C15*%
X163500000Y-99562500D03*
X163500000Y-96437500D03*
%TD*%
D22*
%TO.C,R13*%
X129050000Y-63500000D03*
X125950000Y-63500000D03*
%TD*%
D34*
%TO.C,U4*%
X175975000Y-79595000D03*
X175975000Y-80865000D03*
X175975000Y-82135000D03*
X175975000Y-83405000D03*
X171025000Y-83405000D03*
X171025000Y-82135000D03*
X171025000Y-80865000D03*
X171025000Y-79595000D03*
%TD*%
D35*
%TO.C,Q4*%
X127062500Y-59950000D03*
X127062500Y-58050000D03*
X128937500Y-59000000D03*
%TD*%
D36*
%TO.C,D7*%
X188000000Y-59200000D03*
X188000000Y-53800000D03*
%TD*%
D37*
%TO.C,D2*%
X111000000Y-70512500D03*
X111000000Y-73487500D03*
%TD*%
D38*
%TO.C,Q3*%
X109450000Y-55500000D03*
X107550000Y-55500000D03*
X108500000Y-53625000D03*
%TD*%
D37*
%TO.C,D1*%
X111000000Y-61512500D03*
X111000000Y-64487500D03*
%TD*%
D39*
%TO.C,C14*%
X144937500Y-84000000D03*
X148062500Y-84000000D03*
%TD*%
%TO.C,C13*%
X122937500Y-84000000D03*
X126062500Y-84000000D03*
%TD*%
D23*
%TO.C,R10*%
X125900000Y-54000000D03*
X129000000Y-54000000D03*
%TD*%
D40*
%TO.C,D3*%
X104450000Y-109500000D03*
X106550000Y-109500000D03*
%TD*%
D19*
%TO.C,Q2*%
X121150000Y-69700000D03*
X121150000Y-72000000D03*
D20*
X114850000Y-72000000D03*
D19*
X121150000Y-74300000D03*
%TD*%
D23*
%TO.C,R19*%
X150450000Y-84000000D03*
X153550000Y-84000000D03*
%TD*%
D29*
%TO.C,R5*%
X100000000Y-57450000D03*
X100000000Y-60550000D03*
%TD*%
D37*
%TO.C,D20*%
X150500000Y-60512500D03*
X150500000Y-63487500D03*
%TD*%
D17*
%TO.C,C11*%
X137500000Y-95062500D03*
X137500000Y-91937500D03*
%TD*%
D24*
%TO.C,D11*%
X195700000Y-105000000D03*
X190300000Y-105000000D03*
%TD*%
D31*
%TO.C,R3*%
X163500000Y-93050000D03*
X163500000Y-89950000D03*
%TD*%
%TO.C,R7*%
X111000000Y-80550000D03*
X111000000Y-77450000D03*
%TD*%
D41*
%TO.C,D15*%
X111750000Y-90500000D03*
X117250000Y-90500000D03*
%TD*%
D29*
%TO.C,R15*%
X104500000Y-57450000D03*
X104500000Y-60550000D03*
%TD*%
D31*
%TO.C,R1*%
X167000000Y-93050000D03*
X167000000Y-89950000D03*
%TD*%
D13*
%TO.C,SW2*%
X119000000Y-93750000D03*
X111000000Y-93750000D03*
X119000000Y-98250000D03*
X111000000Y-98250000D03*
%TD*%
D17*
%TO.C,C16*%
X171500000Y-99562500D03*
X171500000Y-96437500D03*
%TD*%
D31*
%TO.C,R17*%
X137500000Y-100550000D03*
X137500000Y-97450000D03*
%TD*%
D16*
%TO.C,C3*%
X158000000Y-54000000D03*
X158000000Y-62000000D03*
%TD*%
M02*
